<svg xmlns="http://www.w3.org/2000/svg" width="200" height="70.906" viewBox="0 0 200 70.906"><g transform="translate(-69.486 -176.45)"><path d="M230.722,339.755A4.724,4.724,0,1,1,226,335.044,4.717,4.717,0,0,1,230.722,339.755Z" transform="translate(-107.975 -112.816)" fill="#aeb0b3"/><path d="M168.05,302.849a3.683,3.683,0,1,1-3.683-3.672A3.678,3.678,0,0,1,168.05,302.849Z" transform="translate(-64.873 -87.302)" fill="#aeb0b3"/><path d="M283.507,347.183a2.428,2.428,0,1,1-2.428-2.421A2.424,2.424,0,0,1,283.507,347.183Z" transform="translate(-148.789 -119.729)" fill="#aeb0b3"/><path d="M146.969,272.842a22.073,22.073,0,0,1-4.392.694,20.782,20.782,0,0,1-2.211.014c-.744-.037-1.472-.106-2.2-.212A20.472,20.472,0,0,1,130,270.274a18.661,18.661,0,0,1-6.007-6.255,16.656,16.656,0,0,1-.045-16.74,18.609,18.609,0,0,1,6.009-6.3,20.324,20.324,0,0,1,3.926-1.975,20.992,20.992,0,0,1,4.273-1.087,21.562,21.562,0,0,1,8.823.563h0a1.1,1.1,0,1,1-.59,2.125c-.027-.007-.056-.017-.083-.026a18.364,18.364,0,0,0-15.635,1.543,16.782,16.782,0,0,0-5.738,5.732,15.651,15.651,0,0,0-1.62,3.752,15.227,15.227,0,0,0,1.576,11.883,16.752,16.752,0,0,0,5.74,5.774,18.152,18.152,0,0,0,15.688,1.47,1.1,1.1,0,0,1,.789,2.063,1.18,1.18,0,0,1-.113.036Z" transform="translate(-37.152 -43.571)" fill="#aeb0b3"/><path d="M135.234,217.464A26.393,26.393,0,0,0,124.1,212.91a25.963,25.963,0,0,0-12.042.859,24.652,24.652,0,0,0-10.3,6.312,22.676,22.676,0,0,0-5.3,22.639,24.377,24.377,0,0,0,6.465,10.247,25.86,25.86,0,0,0,10.5,6.045,26.165,26.165,0,0,0,5.992,1.043,25.053,25.053,0,0,0,6.035-.369,1.1,1.1,0,1,1,.407,2.167l-.064.01H125.8a29.414,29.414,0,0,1-6.52.1,30.25,30.25,0,0,1-6.345-1.336,28.414,28.414,0,0,1-11-6.617,27.4,27.4,0,0,1-4.058-5.015,26.091,26.091,0,0,1-2.723-5.852,24.115,24.115,0,0,1,5.529-24.094,26.386,26.386,0,0,1,10.866-6.862,28.409,28.409,0,0,1,12.836-1.133,29.079,29.079,0,0,1,12.1,4.594l.013.009a1.1,1.1,0,1,1-1.224,1.833Z" transform="translate(-17.423 -24.415)" fill="#aeb0b3"/><path d="M155.535,268.835a12.525,12.525,0,0,1,8.759-2.867,10.755,10.755,0,0,1,4.534,1.343,9.539,9.539,0,0,1,4.43,5.452,9.752,9.752,0,0,1,.427,2.338,10.681,10.681,0,0,1-.773,4.6,12.312,12.312,0,0,1-6.271,6.506h0a.748.748,0,0,1-.64-1.353,10.728,10.728,0,0,0,5.355-5.763,8.964,8.964,0,0,0,.574-3.874,7.695,7.695,0,0,0-4.04-6.215,8.77,8.77,0,0,0-3.719-1.015,9.973,9.973,0,0,0-3.852.578,10.618,10.618,0,0,0-1.78.828c-.147.085-.259.154-.422.258-.134.086-.27.181-.4.274-.275.2-.493.369-.788.616a1.1,1.1,0,1,1-1.415-1.689h0Z" transform="translate(-60.912 -63.657)" fill="#aeb0b3"/><path d="M155.307,180.262a3.822,3.822,0,1,1-3.821-3.812A3.817,3.817,0,0,1,155.307,180.262Z" transform="translate(-55.612 0)" fill="#aeb0b3"/><path d="M89.693,199.348a36.114,36.114,0,0,0-17.719,22.546,33.609,33.609,0,0,0-.538,14.554,30.554,30.554,0,0,0,5.9,13.218,29.638,29.638,0,0,0,11.38,8.861,30.614,30.614,0,0,0,14.193,2.5,33.571,33.571,0,0,0,13.879-3.982,35.364,35.364,0,0,0,11.03-9.323,1.1,1.1,0,1,1,1.735,1.36l0,0,0,.006a37.5,37.5,0,0,1-11.792,9.767,35.546,35.546,0,0,1-14.74,4.071A32.443,32.443,0,0,1,88,260.129a31.321,31.321,0,0,1-11.934-9.482A32.088,32.088,0,0,1,70,236.708a34.99,34.99,0,0,1,.708-15.147,37.273,37.273,0,0,1,18.5-23.1l.007,0a.5.5,0,0,1,.472.891Z" transform="translate(0 -15.614)" fill="#aeb0b3"/><g transform="translate(117.916 190.892)"><path d="M244.1,243.308a6.422,6.422,0,0,1,4.766,1.86l-.907,1.317a5.523,5.523,0,0,0-3.808-1.576,4.989,4.989,0,0,0-5.077,5.218,5.046,5.046,0,0,0,5.129,5.218,5.745,5.745,0,0,0,4.17-1.834l.8,1.369a6.963,6.963,0,0,1-5.077,2.041,6.807,6.807,0,1,1,0-13.614Z" transform="translate(-237.265 -238.451)" fill="#aeb0b3"/><path d="M293.848,243.308c3.6,0,5.44,2.764,5.44,5.993,0,.31-.052.9-.052.9h-10a4.9,4.9,0,0,0,5.051,5.141,6.064,6.064,0,0,0,3.963-1.576l.8,1.343a7.476,7.476,0,0,1-4.818,1.808,6.577,6.577,0,0,1-6.812-6.794C287.424,245.865,290.325,243.308,293.848,243.308Zm3.653,5.45c-.1-2.712-1.762-3.978-3.7-3.978a4.413,4.413,0,0,0-4.481,3.978Z" transform="translate(-272.946 -238.451)" fill="#aeb0b3"/><path d="M341.082,243.618h1.735v1.937c0,.568-.052,1.033-.052,1.033h.052a5.547,5.547,0,0,1,5.206-3.281c3.212,0,4.352,1.834,4.352,5.037v8.266h-1.761v-7.8c0-2.041-.311-3.849-2.823-3.849a4.95,4.95,0,0,0-4.74,3.668,6.415,6.415,0,0,0-.207,1.757v6.226h-1.761Z" transform="translate(-311.115 -238.451)" fill="#aeb0b3"/><path d="M392.681,237.16h-1.71v-1.472h1.736v-3.746h1.736v3.746h3.264v1.472h-3.264v6.458c0,3.048,1.942,3.436,2.927,3.436a3.034,3.034,0,0,0,.6-.052v1.576a4.626,4.626,0,0,1-.751.052c-1.5,0-4.533-.491-4.533-4.831Z" transform="translate(-346.604 -230.366)" fill="#aeb0b3"/><path d="M426.144,244.064h1.736v2.3c0,.568-.052,1.033-.052,1.033h.052c.621-1.963,2.072-3.461,4.118-3.461a3.547,3.547,0,0,1,.7.077v1.731a4.5,4.5,0,0,0-.647-.051c-1.839,0-3.212,1.446-3.782,3.358a8.538,8.538,0,0,0-.363,2.532v5.477h-1.762Z" transform="translate(-371.624 -238.897)" fill="#aeb0b3"/><path d="M458.807,226.483h1.839v2.2h-1.839Zm.052,5.167h1.761v12.994h-1.761Z" transform="translate(-394.859 -226.483)" fill="#aeb0b3"/><path d="M502.146,256.239l7.279-9.119c.492-.62,1.036-1.188,1.036-1.188v-.052a12.422,12.422,0,0,1-1.295.052h-6.709v-1.55h10.387v1.162l-7.278,9.093a15.791,15.791,0,0,1-1.062,1.188v.052s.466-.052,1.321-.052H513.1v1.55H502.146Z" transform="translate(-425.688 -239.215)" fill="#aeb0b3"/><path d="M552.3,243.618h1.736v1.937c0,.568-.052,1.033-.052,1.033h.052a5.547,5.547,0,0,1,5.206-3.281c3.212,0,4.351,1.834,4.351,5.037v8.266h-1.761v-7.8c0-2.041-.311-3.849-2.823-3.849a4.95,4.95,0,0,0-4.74,3.668,6.406,6.406,0,0,0-.207,1.757v6.226H552.3Z" transform="translate(-461.368 -238.451)" fill="#aeb0b3"/><path d="M610.71,248.578h.726v-.336c0-2.505-1.373-3.358-3.238-3.358a6.355,6.355,0,0,0-3.678,1.24l-.829-1.343a7.5,7.5,0,0,1,4.636-1.472c3.135,0,4.87,1.731,4.87,4.986v8.318h-1.684v-1.421a10.2,10.2,0,0,1,.052-1.085h-.052a4.7,4.7,0,0,1-4.351,2.816c-2.176,0-4.43-1.266-4.43-3.849C602.732,248.681,608.457,248.578,610.71,248.578Zm-3.264,6.845c2.487,0,3.99-2.583,3.99-4.831v-.568h-.752c-2.046,0-6.139.078-6.139,2.945C604.545,254.183,605.5,255.423,607.446,255.423Z" transform="translate(-497.239 -238.451)" fill="#aeb0b3"/><path d="M653.967,243.618H655.7v1.937c0,.568-.052,1.033-.052,1.033h.052a5.547,5.547,0,0,1,5.207-3.281c3.212,0,4.351,1.834,4.351,5.037v8.266H663.5v-7.8c0-2.041-.311-3.849-2.823-3.849a4.95,4.95,0,0,0-4.74,3.668,6.4,6.4,0,0,0-.207,1.757v6.226h-1.762Z" transform="translate(-533.685 -238.451)" fill="#aeb0b3"/><path d="M701.089,231.65v13.484c0,4.314-3.082,4.831-4.533,4.831a3.548,3.548,0,0,1-.778-.077v-1.524s.234.026.57.026c1.01,0,2.979-.362,2.979-3.332V231.65Zm-1.787-5.167h1.813v2.2H699.3Z" transform="translate(-563.428 -226.483)" fill="#aeb0b3"/><path d="M734.087,248.578h.726v-.336c0-2.505-1.373-3.358-3.238-3.358a6.355,6.355,0,0,0-3.678,1.24l-.829-1.343a7.5,7.5,0,0,1,4.636-1.472c3.135,0,4.87,1.731,4.87,4.986v8.318H734.89v-1.421a10.215,10.215,0,0,1,.052-1.085h-.052a4.7,4.7,0,0,1-4.351,2.816c-2.176,0-4.43-1.266-4.43-3.849C726.109,248.681,731.834,248.578,734.087,248.578Zm-3.264,6.845c2.487,0,3.99-2.583,3.99-4.831v-.568h-.752c-2.046,0-6.139.078-6.139,2.945C727.922,254.183,728.881,255.423,730.823,255.423Z" transform="translate(-585.003 -238.451)" fill="#aeb0b3"/></g><g transform="translate(126.053 211.924)"><path d="M265.455,308.878l2.807-4.072c.2-.285.379-.494.379-.494V304.3a3.83,3.83,0,0,1-.395.015H265.6v-.478h3.7v.378l-2.807,4.072a4.817,4.817,0,0,1-.387.494v.015s.139-.015.4-.015h2.815v.478h-3.875Z" transform="translate(-265.455 -302.539)" fill="#aeb0b3"/><path d="M290.931,307.528h-2.189l-.619,1.727h-.565l2-5.422h.572l2,5.422h-.565Zm-1.1-3.131s-.116.447-.209.7l-.727,1.967h1.872l-.711-1.967c-.093-.255-.209-.7-.209-.7Z" transform="translate(-281.179 -302.539)" fill="#aeb0b3"/><path d="M327.588,303.834h1.756a2.711,2.711,0,1,1,0,5.422h-1.756Zm1.7,4.944a2.233,2.233,0,0,0,0-4.465h-1.168v4.465Z" transform="translate(-309.653 -302.539)" fill="#aeb0b3"/><path d="M354.381,303.834h1.609a2.424,2.424,0,0,1,1.021.147,1.576,1.576,0,0,1-.209,2.861v.015a2.033,2.033,0,0,1,.139.216l1.183,2.182h-.611l-1.23-2.283h-1.369v2.283h-.534Zm1.825,2.661a1.122,1.122,0,0,0,.58-2.051,1.566,1.566,0,0,0-.773-.131h-1.1v2.183Z" transform="translate(-328.712 -302.539)" fill="#aeb0b3"/><path d="M377.932,303.834h.541v3.525a1.544,1.544,0,0,0,3.086-.016v-3.509h.534v3.532a2.083,2.083,0,0,1-4.161,0Z" transform="translate(-345.465 -302.539)" fill="#aeb0b3"/><path d="M403.461,305.053a2.124,2.124,0,0,0,1.423.594.979.979,0,0,0,1.083-.941c0-1.365-2.715-1.018-2.715-2.7a1.563,1.563,0,0,1,1.694-1.458,2.113,2.113,0,0,1,1.454.524l-.263.447a1.857,1.857,0,0,0-1.191-.463,1.04,1.04,0,0,0-1.145.933c0,1.288,2.715.918,2.715,2.7a1.5,1.5,0,0,1-1.648,1.465,2.4,2.4,0,0,1-1.725-.694Zm.464-5.707h.511l.418.617h.015l.418-.617h.51l-.65.918h-.58Z" transform="translate(-363.4 -299.346)" fill="#aeb0b3"/><path d="M425.33,304.312h-1.957v-.478h4.439v.478h-1.949v4.943h-.533Z" transform="translate(-377.79 -302.539)" fill="#aeb0b3"/><path d="M446.682,303.834h.573l1.508,4.118c.1.278.208.7.208.7h.016s.108-.424.209-.7l1.508-4.118h.572l-2.019,5.422H448.7Z" transform="translate(-394.371 -302.539)" fill="#aeb0b3"/><path d="M472.619,303.834h3.062v.478h-2.529v1.974h2.065v.478h-2.065v2.013h2.668v.478h-3.2Z" transform="translate(-412.821 -302.539)" fill="#aeb0b3"/><path d="M494.883,303.834h.518l2.777,3.9c.185.27.449.733.449.733h.015s-.046-.447-.046-.733v-3.9h.534v5.422h-.519l-2.777-3.9c-.186-.27-.448-.733-.448-.733h-.016s.047.447.047.733v3.9h-.534Z" transform="translate(-428.658 -302.539)" fill="#aeb0b3"/><path d="M522.025,303.834h.533v5.422h-.533Z" transform="translate(-447.966 -302.539)" fill="#aeb0b3"/><path d="M550.478,303.834h1.609a2.423,2.423,0,0,1,1.02.147,1.576,1.576,0,0,1-.209,2.861v.015a2.088,2.088,0,0,1,.139.216l1.183,2.182h-.611l-1.23-2.283h-1.369v2.283h-.534Zm1.826,2.661a1.122,1.122,0,0,0,.58-2.051,1.566,1.566,0,0,0-.773-.131h-1.1v2.183Z" transform="translate(-468.206 -302.539)" fill="#aeb0b3"/><path d="M575.259,307.528H573.07l-.619,1.727h-.564l2-5.422h.572l2,5.422h-.565Zm-1.1-3.131s-.116.447-.209.7l-.727,1.967H575.1l-.712-1.967c-.093-.255-.209-.7-.209-.7Z" transform="translate(-483.435 -302.539)" fill="#aeb0b3"/><path d="M596.162,308.878l2.808-4.072c.2-.285.379-.494.379-.494V304.3a3.83,3.83,0,0,1-.395.015h-2.645v-.478h3.705v.378l-2.808,4.072a4.82,4.82,0,0,1-.387.494v.015s.139-.015.4-.015h2.816v.478h-3.875Z" transform="translate(-500.703 -302.539)" fill="#aeb0b3"/><path d="M618.238,303.834h.572l1.508,4.118c.1.278.209.7.209.7h.015s.108-.424.208-.7l1.509-4.118h.572l-2.019,5.422h-.557Z" transform="translate(-516.407 -302.539)" fill="#aeb0b3"/><path d="M645.55,303.514a2.745,2.745,0,0,1,2.769,2.768,2.77,2.77,0,1,1-5.538,0A2.744,2.744,0,0,1,645.55,303.514Zm0,5.113a2.261,2.261,0,0,0,2.212-2.345,2.213,2.213,0,1,0-4.424,0A2.256,2.256,0,0,0,645.55,308.627Z" transform="translate(-533.865 -302.311)" fill="#aeb0b3"/><path d="M671.316,307.52h.533v.2c0,.833.5,1.134,1,1.134.48,0,.99-.278.99-1.119v-3.424h-1.33v-.478h1.864v3.9a1.53,1.53,0,1,1-3.055,0Z" transform="translate(-554.164 -302.539)" fill="#aeb0b3"/></g></g></svg>