<svg xmlns="http://www.w3.org/2000/svg" width="120" height="107.294" viewBox="0 0 120 107.294"><g transform="translate(-740 -3348)"><g transform="translate(740 3348)"><path d="M148.851,331.441v81.511h120V331.441ZM266.543,410.6H151.159V333.676H266.543Z" transform="translate(-148.851 -331.441)" fill="#aeb0b3"/><g transform="translate(30.794 11.436)"><path d="M288.028,367.109l2.435-1.777,2.435,1.777-.927-2.873,2.473-1.777H291.4l-.933-2.908-.933,2.912-3.047,0,2.471,1.777Z" transform="translate(-261.281 -359.55)" fill="#aeb0b3"/><path d="M257.057,375.425l2.435-1.777,2.433,1.777L261,372.551l2.471-1.777h-3.048l-.933-2.912-.933,2.915-3.047,0,2.471,1.777Z" transform="translate(-242.909 -364.481)" fill="#aeb0b3"/><path d="M236.834,390.574l-.933,2.915-3.047,0,2.471,1.777-.927,2.873,2.435-1.777,2.435,1.777-.927-2.873,2.471-1.777h-3.047Z" transform="translate(-229.471 -377.952)" fill="#aeb0b3"/><path d="M228.519,427.289l2.433,1.777-.925-2.873,2.471-1.777h-3.047l-.933-2.912-.933,2.918-3.048-.006,2.473,1.777-.927,2.873Z" transform="translate(-224.538 -396.297)" fill="#aeb0b3"/><path d="M237.767,455.439l-.933-2.912-.933,2.915-3.047,0,2.471,1.777-.927,2.873,2.435-1.78,2.435,1.78-.927-2.873,2.471-1.777Z" transform="translate(-229.471 -414.699)" fill="#aeb0b3"/><path d="M260.47,478.147l-.933-2.908-.931,2.912-3.048,0,2.471,1.777L257.1,482.8l2.435-1.777,2.433,1.777-.925-2.873,2.471-1.777Z" transform="translate(-242.937 -428.17)" fill="#aeb0b3"/><path d="M291.4,486.369l-.933-2.912-.931,2.915-3.048,0,2.471,1.777-.925,2.873,2.435-1.777,2.433,1.777-.927-2.873,2.473-1.777Z" transform="translate(-261.283 -433.045)" fill="#aeb0b3"/><path d="M322.332,478.147l-.931-2.908-.934,2.912-3.045,0,2.47,1.777-.925,2.873,2.435-1.777,2.435,1.777-.928-2.873,2.473-1.777Z" transform="translate(-279.631 -428.17)" fill="#aeb0b3"/><path d="M345.038,455.439l-.934-2.912-.934,2.915-3.045,0,2.473,1.777-.928,2.873,2.435-1.78,2.435,1.78-.928-2.873,2.473-1.777Z" transform="translate(-293.097 -414.699)" fill="#aeb0b3"/><path d="M356.305,424.329h-3.048l-.935-2.912-.931,2.915-3.048,0,2.473,1.777-.925,2.873,2.432-1.78,2.435,1.78-.925-2.873Z" transform="translate(-297.972 -396.247)" fill="#aeb0b3"/><path d="M341.669,398.046l2.435-1.777,2.435,1.777-.928-2.873,2.473-1.774h-3.045l-.934-2.912-.934,2.915-3.045,0,2.473,1.774Z" transform="translate(-293.097 -377.901)" fill="#aeb0b3"/><path d="M321.486,367.871l-.931,2.915-3.048-.006,2.47,1.78-.925,2.873,2.438-1.78,2.432,1.78L323,372.559l2.473-1.78h-3.051Z" transform="translate(-279.682 -364.485)" fill="#aeb0b3"/></g></g><path d="M8.528,11.266H3.267V6.989H8.829V5.523H1.52V19.057H9.13V17.591H3.267v-4.88H8.528Zm10.8-1.928H17.564V15.3a2.584,2.584,0,0,1-.161.9,2.555,2.555,0,0,1-2.329,1.606c-1.606,0-2.169-1.245-2.169-3.092V9.338H11.138v5.683c0,3.414,1.827,4.257,3.353,4.257A3.657,3.657,0,0,0,17.7,17.471h.04l.1,1.586h1.566c-.06-.763-.08-1.647-.08-2.651Zm2.932,9.719H24.01V13.876a4.974,4.974,0,0,1,.08-.823,2.479,2.479,0,0,1,2.369-2.269,2.655,2.655,0,0,1,.6.06V9.178a1.911,1.911,0,0,0-.5-.06,2.916,2.916,0,0,0-2.691,2.129h-.08l-.06-1.908H22.183c.06.9.08,1.888.08,3.032Zm10.482-9.94c-2.691,0-4.819,1.908-4.819,5.161,0,3.072,2.028,5,4.659,5,2.349,0,4.839-1.566,4.839-5.161C37.424,11.145,35.536,9.117,32.745,9.117Zm-.04,1.325c2.088,0,2.912,2.088,2.912,3.735,0,2.189-1.265,3.775-2.952,3.775-1.727,0-2.952-1.606-2.952-3.735C29.713,12.37,30.616,10.443,32.7,10.443Zm6.948,12.59H41.4V17.752h.04a3.408,3.408,0,0,0,2.992,1.526c2.289,0,4.418-1.727,4.418-5.221,0-2.952-1.767-4.94-4.116-4.94A3.821,3.821,0,0,0,41.279,11h-.04l-.08-1.667H39.572c.04.924.08,1.928.08,3.173Zm1.747-9.6a2.866,2.866,0,0,1,.12-.723,2.82,2.82,0,0,1,2.671-2.189c1.867,0,2.892,1.667,2.892,3.614,0,2.229-1.084,3.755-2.952,3.755a2.727,2.727,0,0,1-2.651-2.068,3.979,3.979,0,0,1-.08-.723Zm9,5.161a5.541,5.541,0,0,0,2.731.683c2.309,0,3.635-1.225,3.635-2.932,0-1.446-.863-2.289-2.55-2.932-1.265-.482-1.847-.843-1.847-1.647,0-.723.582-1.325,1.627-1.325A3.782,3.782,0,0,1,55.978,11L56.42,9.72a4.851,4.851,0,0,0-2.39-.6c-2.088,0-3.353,1.285-3.353,2.851,0,1.165.823,2.129,2.57,2.751,1.305.482,1.807.944,1.807,1.787,0,.8-.6,1.446-1.888,1.446a4.631,4.631,0,0,1-2.329-.7ZM60.777,4.8H59.03V19.057h1.747V15.4l.9-1,3.353,4.659h2.149l-4.277-5.723,3.755-4H64.532l-2.851,3.353c-.281.341-.622.763-.863,1.1h-.04Zm14.859,8.293c0-1.948-.723-3.976-3.695-3.976a6.032,6.032,0,0,0-3.193.863l.4,1.165a4.842,4.842,0,0,1,2.53-.723,2,2,0,0,1,2.209,2.249v.2c-3.755-.02-5.843,1.265-5.843,3.614a2.769,2.769,0,0,0,2.972,2.791,3.62,3.62,0,0,0,2.972-1.446h.06l.141,1.225H75.8a13.685,13.685,0,0,1-.161-2.329ZM73.93,15.784a1.844,1.844,0,0,1-.1.562,2.418,2.418,0,0,1-2.349,1.627,1.564,1.564,0,0,1-1.667-1.687c0-1.888,2.189-2.229,4.116-2.189ZM90.877,9.338H89.11V15.3a2.584,2.584,0,0,1-.161.9,2.555,2.555,0,0,1-2.329,1.606c-1.606,0-2.169-1.245-2.169-3.092V9.338H82.685v5.683c0,3.414,1.827,4.257,3.353,4.257a3.657,3.657,0,0,0,3.213-1.807h.04l.1,1.586h1.566c-.06-.763-.08-1.647-.08-2.651Zm2.932,9.719h1.767V13.214a2.541,2.541,0,0,1,.12-.823,2.511,2.511,0,0,1,2.369-1.807c1.667,0,2.249,1.305,2.249,2.871v5.6h1.767v-5.8c0-3.333-2.088-4.137-3.434-4.137a3.574,3.574,0,0,0-3.213,1.827H95.4l-.1-1.606H93.729c.06.8.08,1.627.08,2.631Zm12.912,0V9.338h-1.767v9.719ZM105.837,5.5a1.077,1.077,0,0,0-1.1,1.1,1.094,1.094,0,0,0,2.189,0A1.049,1.049,0,0,0,105.837,5.5Zm1.627,17.791a4.485,4.485,0,0,0,3.012-1.1c.863-.884,1.165-2.108,1.165-4V9.338h-1.767v8.173c0,2.329-.181,3.112-.663,3.655a2.86,2.86,0,0,1-1.928.743ZM110.777,5.5a1.082,1.082,0,0,0-1.124,1.1,1.055,1.055,0,0,0,1.084,1.084,1.037,1.037,0,0,0,1.1-1.084A1.044,1.044,0,0,0,110.777,5.5Zm10.582,7.59c0-1.948-.723-3.976-3.695-3.976a6.032,6.032,0,0,0-3.193.863l.4,1.165a4.842,4.842,0,0,1,2.53-.723,2,2,0,0,1,2.209,2.249v.2c-3.755-.02-5.843,1.265-5.843,3.614a2.769,2.769,0,0,0,2.972,2.791,3.62,3.62,0,0,0,2.972-1.446h.06l.141,1.225h1.606a13.685,13.685,0,0,1-.161-2.329Zm-1.707,2.691a1.844,1.844,0,0,1-.1.562,2.418,2.418,0,0,1-2.349,1.627,1.564,1.564,0,0,1-1.667-1.687c0-1.888,2.189-2.229,4.116-2.189Z" transform="translate(738.48 3432)" fill="#aeb0b3"/></g></svg>