<svg xmlns="http://www.w3.org/2000/svg" width="150" height="108.814" viewBox="0 0 150 108.814"><g transform="translate(-671.793 -477.799)"><path d="M682.835,487.215a3.1,3.1,0,0,0-6.121-.38,2.578,2.578,0,0,0,1.179,2.265l-.467,1.326,1.451-.869a3.5,3.5,0,0,0,.731.13A2.89,2.89,0,0,0,682.835,487.215Z" transform="translate(1.229 1.64)" fill="#aeb0b3"/><path d="M685.875,485a3.977,3.977,0,0,1,3.649-4.535,4.487,4.487,0,0,1,4.641,3.99,4.1,4.1,0,0,1-1.378,3.621l.774,2.129-2.065-1.406a3.933,3.933,0,0,1-.984.2A4.485,4.485,0,0,1,685.875,485Z" transform="translate(3.513 0.663)" fill="#aeb0b3"/><path d="M703.709,487.426a4.369,4.369,0,0,0-6.92,5.194,3.651,3.651,0,0,0,3.339,1.351l.71,1.854.765-2.261a5.07,5.07,0,0,0,.9-.535A4.073,4.073,0,0,0,703.709,487.426Z" transform="translate(6.081 2.063)" fill="#aeb0b3"/><path d="M741.654,487.971c1.215-2.181,4.239-2.815,6.747-1.413s3.556,4.3,2.338,6.489a4.384,4.384,0,0,1-3.762,2.15l-.547,2.325-1.276-2.574a5.916,5.916,0,0,1-1.161-.489C741.48,493.057,740.435,490.151,741.654,487.971Z" transform="translate(17.338 2.003)" fill="#aeb0b3"/><path d="M772.405,489.874c-.673-2.874-3.9-4.579-7.21-3.806s-5.446,3.734-4.771,6.612a5.178,5.178,0,0,0,3.575,3.67l-.139,2.823,2.292-2.509a6.951,6.951,0,0,0,1.479-.178C770.943,495.712,773.08,492.753,772.405,489.874Z" transform="translate(22.127 2.021)" fill="#aeb0b3"/><path d="M728.512,484.436a3.751,3.751,0,0,0-7.211,1.784,3.128,3.128,0,0,0,2.185,2.193l-.061,1.7,1.365-1.531a4.26,4.26,0,0,0,.891-.12A3.5,3.5,0,0,0,728.512,484.436Z" transform="translate(12.356 1.067)" fill="#aeb0b3"/><path d="M730.084,490.873a4.367,4.367,0,0,1,7.881,3.561A3.641,3.641,0,0,1,735,496.482l-.289,1.964-1.24-2.042a4.932,4.932,0,0,1-1-.323A4.072,4.072,0,0,1,730.084,490.873Z" transform="translate(14.499 2.748)" fill="#aeb0b3"/><path d="M716.93,482.537c-1.358-2.1-4.412-2.534-6.828-.972s-3.269,4.526-1.914,6.624a4.386,4.386,0,0,0,3.9,1.905l.7,2.284,1.107-2.649a5.948,5.948,0,0,0,1.127-.566C717.431,487.6,718.287,484.637,716.93,482.537Z" transform="translate(8.938 0.707)" fill="#aeb0b3"/><path d="M751.359,480.785a5.456,5.456,0,0,1,6.56-2.753c2.679.781,4.089,3.279,3.143,5.581a4.966,4.966,0,0,1-3.486,2.813l-.255,2.291-1.6-2.139a5.723,5.723,0,0,1-1.22-.211C751.823,485.587,750.415,483.09,751.359,480.785Z" transform="translate(19.818 0)" fill="#aeb0b3"/><path d="M690.578,556.425c-.311-.054-.464-.211-.464-.466v-3.115a1.414,1.414,0,0,0-1.085-1.41l-.286-.039h-.209a1.413,1.413,0,0,0-1.308,1,1.437,1.437,0,0,0-.06.361v3.186c-.059.324-.211.482-.458.482-.337-.054-.49-.2-.49-.441v-2.646c0-.89-.152-1.216-.279-1.335a1.406,1.406,0,0,0-1.17-.608,1.433,1.433,0,0,0-1.455,1.059,3.031,3.031,0,0,0-.06.672v2.858c0,.239-.152.387-.455.441H682.8c-.2,0-.411-.084-.486-.472v-4.98c.041-.454.284-.547.48-.547.389.1.466.28.466.417v.218a1.965,1.965,0,0,1,1.5-.635,2.545,2.545,0,0,1,2,1.049,1.908,1.908,0,0,1,1.357-.981l.5-.068a2.457,2.457,0,0,1,2.181,1.314,2.422,2.422,0,0,1,.267,1.06v3.209c0,.215-.153.355-.455.417h-.027Z" transform="translate(2.629 18.157)" fill="#aeb0b3"/><path d="M690.789,556.454c-.172,0-.4-.084-.471-.482v-5.1c.041-.375.206-.564.492-.564.322.08.476.221.476.429v.486a2.668,2.668,0,0,1,2.014-.915,3.307,3.307,0,0,1,1.279.29.584.584,0,0,1,.211.4c-.066.415-.293.495-.47.495a3.6,3.6,0,0,0-.933-.194,1.993,1.993,0,0,0-1.976,1.307,2.359,2.359,0,0,0-.125.791V556q0,.373-.467.454h-.03Z" transform="translate(4.631 18.127)" fill="#aeb0b3"/><path d="M697.381,556.447a3.022,3.022,0,0,1-2.635-1.535,3.176,3.176,0,0,1-.4-1.526,3.043,3.043,0,0,1,1.581-2.667,3.294,3.294,0,0,1,1.453-.383,3.041,3.041,0,0,1,2.741,1.674,3.1,3.1,0,0,1,.336,1.425c-.059.443-.218.6-.473.6h-4.619a2.129,2.129,0,0,0,2.055,1.42,2.6,2.6,0,0,0,1.139-.321c.526.062.6.278.6.445,0,.461-.531.723-1.624.865h-.159Zm-.065-5.108a1.973,1.973,0,0,0-1.686,1.006,2.107,2.107,0,0,0-.277.79l4.155-.061a3.332,3.332,0,0,0-.573-1.078,2.058,2.058,0,0,0-1.376-.657Z" transform="translate(5.638 18.134)" fill="#aeb0b3"/><path d="M700.291,556.427c-.179,0-.405-.087-.464-.5,0-.1.1-.318.9-1.23l2.728-3.437-2.856.089-.341.023c-.291-.1-.427-.259-.427-.486.064-.385.276-.464.441-.464h3.959c.495.064.64.2.64.4,0,.208-.061.351-.513.84l-3.115,3.909,3.184-.088c.367.071.444.278.444.441a.469.469,0,0,1-.454.511h-4.122Z" transform="translate(7.008 18.155)" fill="#aeb0b3"/><path d="M710.219,556.445a.493.493,0,0,1-.465-.361l.02-.591a2.656,2.656,0,0,1-2.026.952,3.119,3.119,0,0,1-2.755-1.552,3.352,3.352,0,0,1-.379-1.519,3.037,3.037,0,0,1,1.67-2.693,3.237,3.237,0,0,1,1.383-.336,3.079,3.079,0,0,1,2.735,1.69,3.433,3.433,0,0,1,.311,1.426V556c0,.169-.08.383-.463.449h-.031Zm-2.576-5.135a2.092,2.092,0,0,0-1.943,1.344,2.594,2.594,0,0,0-.121.7,2.085,2.085,0,0,0,1.281,1.983,2.126,2.126,0,0,0,.719.146,2.091,2.091,0,0,0,1.92-1.065,2.127,2.127,0,0,0,.25-.954,2.08,2.08,0,0,0-1.211-1.964,2.12,2.12,0,0,0-.871-.187Z" transform="translate(8.205 18.137)" fill="#aeb0b3"/><path d="M720.982,556.425c-.311-.054-.464-.211-.464-.466v-3.115a1.415,1.415,0,0,0-1.084-1.41l-.286-.039h-.209a1.413,1.413,0,0,0-1.307,1,1.327,1.327,0,0,0-.064.361v3.186c-.056.324-.209.482-.455.482-.336-.054-.489-.2-.489-.441v-2.646c0-.89-.153-1.216-.28-1.335a1.388,1.388,0,0,0-1.17-.608,1.432,1.432,0,0,0-1.454,1.059,3.014,3.014,0,0,0-.062.672v2.858q0,.362-.456.441h0c-.2,0-.413-.084-.488-.472v-4.98c.034-.366.2-.547.481-.547.312.075.464.218.464.417v.218a1.968,1.968,0,0,1,1.5-.635,2.548,2.548,0,0,1,2,1.049,1.914,1.914,0,0,1,1.359-.981l.5-.068a2.411,2.411,0,0,1,2.449,2.374v3.209c0,.215-.153.355-.454.417h-.027Z" transform="translate(10.23 18.157)" fill="#aeb0b3"/><path d="M721.039,556.918c-.175,0-.4-.084-.476-.482v-7.448c.051-.445.26-.537.429-.537.392.063.541.2.541.41V556l.407-.054q.332,0,.43.468c-.065.422-.295.5-.476.5Z" transform="translate(12.192 17.663)" fill="#aeb0b3"/><path d="M703.2,549.082l-.012-.012c-.22-.184-.405-.218-.556-.1l-.359.451-.205.3-.2-.308-.366-.448c-.15-.116-.334-.084-.554.1l-.01.015c-.134.251-.11.448.075.589l.675.526a.656.656,0,0,0,.78,0l.668-.53A.42.42,0,0,0,703.2,549.082Z" transform="translate(7.264 17.776)" fill="#aeb0b3"/><path d="M728.276,556.445a.49.49,0,0,1-.464-.361l.016-.591a2.646,2.646,0,0,1-2.021.952,3.122,3.122,0,0,1-2.759-1.552,3.365,3.365,0,0,1-.378-1.519,3.034,3.034,0,0,1,1.668-2.693,3.256,3.256,0,0,1,1.385-.336,3.079,3.079,0,0,1,2.735,1.69,3.465,3.465,0,0,1,.313,1.426V556c0,.166-.079.383-.464.449h-.031ZM725.7,551.31a2.092,2.092,0,0,0-1.943,1.344,2.594,2.594,0,0,0-.121.7,2.086,2.086,0,0,0,1.283,1.983,2.15,2.15,0,0,0,2.639-.919,2.157,2.157,0,0,0,.251-.954,2.084,2.084,0,0,0-1.214-1.964,2.119,2.119,0,0,0-.871-.187Z" transform="translate(12.719 18.137)" fill="#aeb0b3"/><path d="M731.226,556.923a3.144,3.144,0,0,1-2.319-1.166,3.292,3.292,0,0,1-.658-1.921,3.09,3.09,0,0,1,1.326-2.52,3.151,3.151,0,0,1,1.761-.564,3.258,3.258,0,0,1,2.2.925l-.089-2.46-.025-.348c.094-.3.237-.439.43-.439.392.061.541.2.541.41v4.38l.023.749a3.151,3.151,0,0,1-.719,1.849,3.073,3.073,0,0,1-2.3,1.1Zm.065-5.2a2.069,2.069,0,0,0-1.94,1.363,2.152,2.152,0,0,0-.132.685,2.115,2.115,0,0,0,1.388,2.076,2.408,2.408,0,0,0,.66.1,2.12,2.12,0,0,0,2.076-1.384,2.793,2.793,0,0,0,.107-.639,2.149,2.149,0,0,0-1.411-2.1,3.025,3.025,0,0,0-.66-.106Z" transform="translate(14.114 17.658)" fill="#aeb0b3"/><path d="M734.66,556.753c-.174,0-.395-.084-.47-.482v-5.1q.058-.557.495-.557c.318.08.471.224.471.43V556.3c0,.249-.154.4-.464.454h-.033Zm-.019-6.651c-.226,0-.379-.161-.45-.481.063-.342.228-.505.494-.505.318.076.471.219.471.427,0,.369-.171.513-.509.559h-.006Z" transform="translate(15.599 17.829)" fill="#aeb0b3"/><path d="M741.056,556.921c-.236,0-.4-.149-.472-.439v-2.978a1.741,1.741,0,0,0-1.2-1.671,2.127,2.127,0,0,0-.579-.084,1.719,1.719,0,0,0-1.676,1.271,3.414,3.414,0,0,0-.085.906v2.54c0,.249-.156.4-.466.454h0a.5.5,0,0,1-.5-.439V548.91c.064-.316.209-.47.43-.47.393.06.539.2.539.406v2.7a2.32,2.32,0,0,1,1.761-.785,2.753,2.753,0,0,1,2.406,1.416,2.581,2.581,0,0,1,.345,1.2v3.089c0,.17-.081.387-.47.454h-.027Z" transform="translate(16.07 17.66)" fill="#aeb0b3"/><path d="M748.706,556.921c-.236,0-.4-.149-.475-.439v-2.978a1.741,1.741,0,0,0-1.2-1.671,2.121,2.121,0,0,0-.576-.084,1.719,1.719,0,0,0-1.676,1.271,3.352,3.352,0,0,0-.085.906v2.54c0,.247-.158.4-.466.454h0c-.263,0-.421-.149-.5-.439V548.91c.077-.391.274-.47.426-.47.392.06.541.2.541.406v2.7a2.32,2.32,0,0,1,1.761-.785,2.749,2.749,0,0,1,2.4,1.416,2.566,2.566,0,0,1,.343,1.2v3.089c0,.247-.156.4-.465.454h-.028Z" transform="translate(17.982 17.66)" fill="#aeb0b3"/><path d="M749.583,556.454c-.171,0-.392-.084-.469-.482v-5.1c.046-.467.293-.564.491-.564.321.08.476.224.476.429v.486a2.662,2.662,0,0,1,2.014-.915,3.306,3.306,0,0,1,1.279.29.585.585,0,0,1,.209.4c-.064.415-.29.495-.47.495a3.564,3.564,0,0,0-.931-.194,1.975,1.975,0,0,0-1.975,1.307,2.3,2.3,0,0,0-.125.791V556c0,.248-.156.4-.468.454h-.031Z" transform="translate(19.33 18.127)" fill="#aeb0b3"/><path d="M756.075,556.452c-.277,0-.513-.286-.713-.875-.965-1.97-2.14-4.39-2.241-4.68.069-.5.281-.579.449-.579.3,0,.51.249.691.762l1.88,3.865c1.951-4.351,2.056-4.463,2.09-4.5a.549.549,0,0,1,.33-.127c.33.06.49.22.49.47a11.622,11.622,0,0,1-.969,2.16l-1.631,3.336a.577.577,0,0,1-.357.168Z" transform="translate(20.332 18.13)" fill="#aeb0b3"/><path d="M764.084,556.445a.494.494,0,0,1-.465-.361l.019-.591a2.653,2.653,0,0,1-2.022.952,3.122,3.122,0,0,1-2.758-1.552,3.361,3.361,0,0,1-.376-1.519,3.037,3.037,0,0,1,1.665-2.693,3.273,3.273,0,0,1,1.385-.336,3.077,3.077,0,0,1,2.735,1.69,3.424,3.424,0,0,1,.314,1.426V556c0,.166-.08.383-.464.449h-.033Zm-2.575-5.135a2.092,2.092,0,0,0-1.944,1.344,2.586,2.586,0,0,0-.12.7,2.045,2.045,0,0,0,2,2.129,2.114,2.114,0,0,0,1.92-1.065,2.153,2.153,0,0,0,.247-.954A2.078,2.078,0,0,0,762.4,551.5a2.119,2.119,0,0,0-.871-.187Z" transform="translate(21.672 18.137)" fill="#aeb0b3"/><path d="M766.762,556.875a1.676,1.676,0,0,1-1.574-1.151,2.227,2.227,0,0,1-.091-.666v-3.284l-.373.054-.342.024c-.287-.1-.421-.257-.421-.481.066-.386.275-.466.44-.466h.75l-.054-1.748c.047-.44.256-.529.424-.529.379.06.523.2.523.4v1.93s.881-.056.906-.056a.481.481,0,1,1,.174.946l-.342-.021h-.792l.055,3.1c0,.52.169.844.5.959l.479.04h.236c.148,0,.343.079.418.454-.055.34-.209.493-.464.493Z" transform="translate(23.042 17.707)" fill="#aeb0b3"/><path d="M769.707,556.438a2.774,2.774,0,0,1-2.277-1.255.5.5,0,0,1-.1-.276c0-.3.092-.505.529-.551h0c.165,0,.37.185.635.568a1.88,1.88,0,0,0,1.3.516,1.756,1.756,0,0,0,1.473-.841c.029-.18.029-.356-.309-.391a14.872,14.872,0,0,1-3.111-.816,1.269,1.269,0,0,1-.555-1.036c0-.562.406-1.11,1.213-1.626a2.851,2.851,0,0,1,1.327-.355,2.737,2.737,0,0,1,2.415,1.39l.025.224c0,.179-.084.4-.479.464h0c-.22,0-.426-.172-.638-.525a1.864,1.864,0,0,0-1.323-.56,1.737,1.737,0,0,0-1.534.933c-.008.278.318.349.591.371,1.721.416,2.591.637,2.744.7a1.267,1.267,0,0,1,.661,1.09c0,.638-.453,1.208-1.349,1.718A2.956,2.956,0,0,1,769.707,556.438Z" transform="translate(23.875 18.144)" fill="#aeb0b3"/><path d="M772.569,556.927c-.165,0-.38-.075-.474-.439l0-7.6c.065-.32.209-.476.429-.476.4.065.545.2.545.411v4.366c2.008-1.426,3.226-2.219,3.573-2.416h.025a.517.517,0,0,1,.591.5c0,.209-.242.436-.74.7a14.218,14.218,0,0,1-1.818,1.181l2.52,3.081c-.021.505-.181.662-.441.662-.234,0-.5-.248-.86-.774l-1.995-2.481-.88.61.025,2.214c0,.249-.156.4-.466.454h-.031Z" transform="translate(25.075 17.654)" fill="#aeb0b3"/><path d="M779.872,556.447a3.015,3.015,0,0,1-2.633-1.535,3.138,3.138,0,0,1-.4-1.526,3.043,3.043,0,0,1,1.581-2.667,3.277,3.277,0,0,1,1.453-.383,3.048,3.048,0,0,1,2.742,1.674,3.134,3.134,0,0,1,.335,1.425c-.059.443-.218.6-.472.6h-4.619A2.547,2.547,0,0,0,779,555.274a2.575,2.575,0,0,0,.916.185,2.624,2.624,0,0,0,1.144-.321c.521.062.6.278.6.445,0,.461-.53.723-1.621.865h-.16Zm-.065-5.108a1.973,1.973,0,0,0-1.686,1.006,2.2,2.2,0,0,0-.277.79l4.155-.061a3.337,3.337,0,0,0-.57-1.078,2.058,2.058,0,0,0-1.379-.657Z" transform="translate(26.261 18.134)" fill="#aeb0b3"/><path d="M685.089,564.459a3.066,3.066,0,0,1-2.271-1.149,3.214,3.214,0,0,1-.648-1.883,3.049,3.049,0,0,1,1.3-2.48,3.125,3.125,0,0,1,1.73-.551,3.085,3.085,0,0,1,2.125.881.5.5,0,0,1,.081.26c-.069.409-.292.489-.467.489-.1,0-.255-.044-.753-.422a2.011,2.011,0,0,0-.924-.231,2.044,2.044,0,0,0-1.995,1.3,2.543,2.543,0,0,0-.144.782,2.061,2.061,0,0,0,1.3,1.906,2.317,2.317,0,0,0,.823.145,2.228,2.228,0,0,0,1.438-.6l.209-.054a.47.47,0,0,1,.514.455c0,.357-.467.7-1.429,1.06a4.156,4.156,0,0,1-.715.091Z" transform="translate(2.594 20.149)" fill="#aeb0b3"/><path d="M687.748,564.465c-.171,0-.392-.082-.469-.478v-5.052c.04-.374.205-.56.491-.56.318.08.47.222.47.425v.482a2.628,2.628,0,0,1,1.995-.907,3.25,3.25,0,0,1,1.269.286.574.574,0,0,1,.206.4c-.052.336-.209.489-.466.489a3.642,3.642,0,0,0-.922-.191,1.973,1.973,0,0,0-1.956,1.3,2.293,2.293,0,0,0-.125.782v2.577c0,.169-.079.386-.461.449h-.031Z" transform="translate(3.872 20.144)" fill="#aeb0b3"/><path d="M694.186,564.45a3.054,3.054,0,0,1-2.254-1.136,3.2,3.2,0,0,1-.641-1.87,3.011,3.011,0,0,1,1.29-2.459,3.075,3.075,0,0,1,1.718-.551,3.037,3.037,0,0,1,3.006,3.01,3.007,3.007,0,0,1-2.944,3.006Zm.087-5.042a1.987,1.987,0,0,0-1.91,1.367,2.123,2.123,0,0,0-.1.6,2.011,2.011,0,0,0,1.114,1.89,1.8,1.8,0,0,0,.856.209,2.032,2.032,0,0,0,1.951-1.24,2.086,2.086,0,0,0,.146-.755,2.032,2.032,0,0,0-2.058-2.074Z" transform="translate(4.874 20.159)" fill="#aeb0b3"/><path d="M702.294,564.456a.486.486,0,0,1-.461-.359l.016-.585a2.624,2.624,0,0,1-2,.944,3.087,3.087,0,0,1-2.732-1.539,3.327,3.327,0,0,1-.374-1.5,3.009,3.009,0,0,1,1.652-2.672,3.226,3.226,0,0,1,1.373-.333,3.043,3.043,0,0,1,2.708,1.674,3.355,3.355,0,0,1,.311,1.414v2.514c0,.167-.08.378-.457.443h-.031Zm-2.552-5.086a2.054,2.054,0,0,0-1.926,1.33,2.608,2.608,0,0,0-.12.693,2.046,2.046,0,0,0,1.271,1.964,2.133,2.133,0,0,0,2.615-.907,2.161,2.161,0,0,0,.246-.949,2.041,2.041,0,0,0-1.2-1.946,2.118,2.118,0,0,0-.863-.184Z" transform="translate(6.236 20.153)" fill="#aeb0b3"/><path d="M704.945,564.882a1.659,1.659,0,0,1-1.559-1.139,2.141,2.141,0,0,1-.091-.661v-3.255l-.367.054-.341.024c-.284-.1-.417-.255-.417-.476.054-.31.2-.463.436-.463h.744l-.054-1.731c.046-.435.253-.525.42-.525.376.061.517.2.517.4v1.916s.874-.057.9-.057a.477.477,0,1,1,.175.939l-.344-.021h-.784l.054,3.074c0,.526.164.837.5.952l.471.038h.235c.146,0,.338.078.414.449-.065.411-.286.489-.46.489Z" transform="translate(7.594 19.727)" fill="#aeb0b3"/><path d="M706.315,564.761c-.171,0-.391-.082-.464-.478v-5.052c.046-.459.29-.555.489-.555.317.077.472.221.472.427v5.209c0,.169-.08.384-.464.449h-.034Zm-.016-6.591c-.226,0-.376-.16-.446-.476.061-.34.226-.5.488-.5.392.092.472.283.472.426,0,.361-.17.506-.506.551H706.3Z" transform="translate(8.515 19.848)" fill="#aeb0b3"/><path d="M713.126,564.456a.493.493,0,0,1-.462-.359l.019-.585a2.628,2.628,0,0,1-2.005.944,3.082,3.082,0,0,1-2.731-1.539,3.344,3.344,0,0,1-.374-1.5,3.011,3.011,0,0,1,1.652-2.672,3.23,3.23,0,0,1,1.372-.333,3.041,3.041,0,0,1,2.708,1.674,3.355,3.355,0,0,1,.31,1.414v2.514c0,.167-.08.38-.455.443h-.034Zm-2.554-5.086a2.077,2.077,0,0,0-1.924,1.33,2.6,2.6,0,0,0-.121.693,2.071,2.071,0,0,0,1.27,1.964,2.05,2.05,0,0,0,2.863-1.856,2.041,2.041,0,0,0-1.2-1.946,2.1,2.1,0,0,0-.861-.184Z" transform="translate(8.945 20.153)" fill="#aeb0b3"/><path d="M718.685,564.456c-.314-.056-.466-.213-.466-.468v-2.424a2.016,2.016,0,0,0-1.369-2.093,2.277,2.277,0,0,0-.591-.086,1.978,1.978,0,0,0-1.839,1.189,3.117,3.117,0,0,0-.163,1.166v2.272c0,.167-.08.38-.455.443h0c-.277,0-.435-.16-.495-.478v-5.013c.046-.46.29-.554.489-.554.314.078.464.22.464.425v.477a2.616,2.616,0,0,1,2-.9,2.957,2.957,0,0,1,2.21,1.039,2.89,2.89,0,0,1,.705,1.83v2.755q0,.33-.456.42h-.032Z" transform="translate(10.378 20.153)" fill="#aeb0b3"/><path d="M722.335,566.444q-.448-.1-.449-.4a12.467,12.467,0,0,1,.915-2.389l-1.924-4.677c.069-.414.286-.491.458-.491.256,0,.464.274.636.839.939,2.229,1.334,3.181,1.356,3.288,1.506-3.894,1.581-3.981,1.606-4.009a.506.506,0,0,1,.326-.14c.377.069.455.276.455.436-.006.069-.02.186-2.005,4.919a18.713,18.713,0,0,1-1.06,2.481.692.692,0,0,1-.29.143l-.012,0Z" transform="translate(12.271 20.166)" fill="#aeb0b3"/><path d="M728.168,564.45a3.065,3.065,0,0,1-2.256-1.136,3.187,3.187,0,0,1-.641-1.87,3.01,3.01,0,0,1,1.291-2.459,2.96,2.96,0,0,1,3.825.328,3.04,3.04,0,0,1,.9,2.131,3.005,3.005,0,0,1-2.941,3.006Zm.086-5.042a1.993,1.993,0,0,0-1.912,1.367,2.148,2.148,0,0,0-.1.6,2.014,2.014,0,0,0,1.115,1.89,1.823,1.823,0,0,0,.857.209,2.033,2.033,0,0,0,1.951-1.24,2.112,2.112,0,0,0,.146-.755,1.989,1.989,0,0,0-.886-1.719A2.013,2.013,0,0,0,728.254,559.408Z" transform="translate(13.369 20.159)" fill="#aeb0b3"/><path d="M736.253,564.461c-.389-.069-.467-.292-.467-.468v-.411a2.539,2.539,0,0,1-1.924.879,3.013,3.013,0,0,1-2.545-1.349,3.264,3.264,0,0,1-.468-1.792v-2.371c.039-.372.2-.556.489-.556.313.08.465.221.465.426v2.328a2.106,2.106,0,0,0,.821,1.955,1.88,1.88,0,0,0,1.174.4,2,2,0,0,0,1.86-1.277,2.717,2.717,0,0,0,.128-.821v-2.521c.065-.33.23-.494.489-.494.315.069.467.228.467.467v5.175c0,.221-.154.366-.458.426h-.031Z" transform="translate(14.764 20.148)" fill="#aeb0b3"/><path d="M738.873,564.882a1.661,1.661,0,0,1-1.559-1.139,2.135,2.135,0,0,1-.093-.661v-3.255l-.367.054-.339.024c-.284-.1-.417-.255-.417-.476.065-.385.274-.463.437-.463v-.06l.219.06h.523l-.055-1.731c.049-.435.257-.525.422-.525.374.061.516.193.516.4v1.916s.875-.057.9-.057a.478.478,0,1,1,.176.939l-.342-.021h-.786l.055,3.074c0,.526.162.837.5.952l.473.038h.234c.214,0,.354.15.414.449-.065.411-.286.489-.46.489Z" transform="translate(16.076 19.727)" fill="#aeb0b3"/><path d="M744.585,564.928c-.236,0-.395-.146-.47-.434l0-2.95a1.723,1.723,0,0,0-1.191-1.655,1.982,1.982,0,0,0-.57-.084,1.685,1.685,0,0,0-1.662,1.258,3.4,3.4,0,0,0-.084.9v2.52c0,.169-.08.384-.461.449h0c-.259,0-.418-.146-.5-.434l0-7.505c.067-.313.211-.465.431-.465.386.058.532.194.532.4V559.6a2.3,2.3,0,0,1,1.746-.778,2.729,2.729,0,0,1,2.384,1.4,2.536,2.536,0,0,1,.336,1.189v3.065c0,.169-.079.386-.461.449h-.025Z" transform="translate(16.962 19.681)" fill="#aeb0b3"/><path d="M752.625,564.456c-.386-.069-.465-.293-.465-.468v-2.424a2.016,2.016,0,0,0-1.369-2.093,2.246,2.246,0,0,0-.591-.086,1.952,1.952,0,0,0-1.836,1.189,3.1,3.1,0,0,0-.161,1.166v2.272c0,.167-.079.378-.459.443h0c-.276,0-.432-.16-.5-.478v-5.013c.04-.37.2-.554.489-.554.315.078.467.22.467.425v.477a2.611,2.611,0,0,1,2-.9,2.958,2.958,0,0,1,2.213,1.039,2.882,2.882,0,0,1,.7,1.83v2.755c0,.217-.155.36-.458.42h-.034Z" transform="translate(18.863 20.153)" fill="#aeb0b3"/><path d="M755.606,564.458a2.991,2.991,0,0,1-2.611-1.523,3.119,3.119,0,0,1-.4-1.509,3.017,3.017,0,0,1,1.568-2.645,3.233,3.233,0,0,1,1.441-.378,3.017,3.017,0,0,1,2.716,1.656,3.072,3.072,0,0,1,.332,1.415c-.059.436-.216.6-.466.6h-4.577a2.118,2.118,0,0,0,2.035,1.407,2.631,2.631,0,0,0,1.13-.32c.52.065.6.276.6.441,0,.455-.526.715-1.609.856h-.156Zm-.065-5.057a1.951,1.951,0,0,0-1.671.995,2.211,2.211,0,0,0-.277.787l4.12-.062a3.223,3.223,0,0,0-.569-1.069,2.032,2.032,0,0,0-1.364-.651Z" transform="translate(20.201 20.151)" fill="#aeb0b3"/><path d="M760.687,564.882a1.657,1.657,0,0,1-1.559-1.139,2.2,2.2,0,0,1-.09-.661v-3.255l-.37.054-.339.024c-.284-.1-.417-.255-.417-.476.065-.385.274-.463.436-.463h.744l-.054-1.731c.046-.435.253-.525.417-.525.379.061.52.2.52.4v1.916s.874-.057.9-.057a.478.478,0,1,1,.176.939l-.341-.021h-.785l.054,3.074c0,.526.164.837.5.952l.47.038h.236c.21,0,.351.15.414.449-.068.411-.289.489-.462.489Z" transform="translate(21.53 19.727)" fill="#aeb0b3"/><path d="M766.587,564.439c-.293,0-.5-.3-.61-.879-1.027-3.111-1.027-3.182-1.027-3.214l-1.176,3.865a.484.484,0,0,1-.395.227.51.51,0,0,1-.5-.42l-1.6-5.043c.08-.417.3-.5.482-.5.292,0,.495.305.6.905l1.049,3.214c1.117-3.832,1.181-3.916,1.2-3.947a.691.691,0,0,1,.364-.171h0c.29,0,.478.254.57.753l1.089,3.366c.439-1.665,1.084-3.694,1.174-3.9a.559.559,0,0,1,.393-.223c.324.065.482.228.482.482L767,564.234a.578.578,0,0,1-.4.2Z" transform="translate(22.371 20.17)" fill="#aeb0b3"/><path d="M770.766,564.45a3.065,3.065,0,0,1-2.256-1.136,3.216,3.216,0,0,1-.644-1.87,3.01,3.01,0,0,1,1.294-2.459,3.009,3.009,0,0,1,4.724,2.459,3.008,3.008,0,0,1-2.946,3.006Zm.086-5.042a1.993,1.993,0,0,0-1.913,1.367,2.2,2.2,0,0,0-.1.6,2.013,2.013,0,0,0,1.116,1.89,1.812,1.812,0,0,0,.854.209,2.035,2.035,0,0,0,1.954-1.24,2.117,2.117,0,0,0,.146-.755,2.032,2.032,0,0,0-2.057-2.074Z" transform="translate(24.018 20.159)" fill="#aeb0b3"/><path d="M774.046,564.465c-.171,0-.39-.082-.465-.478v-5.052c.039-.374.205-.56.491-.56.316.08.471.222.471.425v.482a2.621,2.621,0,0,1,1.994-.907,3.249,3.249,0,0,1,1.268.286.586.586,0,0,1,.207.4c-.065.41-.289.489-.464.489a3.693,3.693,0,0,0-.926-.191,1.953,1.953,0,0,0-1.955,1.3,2.3,2.3,0,0,0-.124.782v2.577c0,.169-.079.384-.464.449h-.034Z" transform="translate(25.447 20.144)" fill="#aeb0b3"/><path d="M778.245,564.934c-.163,0-.376-.075-.47-.434l0-7.528c.065-.318.209-.473.426-.473.464.08.541.266.541.41v4.326c1.987-1.416,3.2-2.2,3.539-2.4h.036a.5.5,0,0,1,.574.5c0,.211-.237.436-.731.7a15.628,15.628,0,0,1-1.8,1.171l2.495,3.052c-.024.5-.183.656-.436.656-.236,0-.5-.245-.857-.766l-1.976-2.457-.869.6.025,2.194c0,.169-.079.384-.464.449h-.031Z" transform="translate(26.495 19.675)" fill="#aeb0b3"/><path d="M772.823,501.059a2.457,2.457,0,0,1-2.457,2.459h-8.872a2.458,2.458,0,0,1-2.456-2.459h0a2.457,2.457,0,0,1,2.456-2.455h8.872a2.456,2.456,0,0,1,2.457,2.455Z" transform="translate(21.811 5.201)" fill="#aeb0b3"/><path d="M820.3,537.043a18.726,18.726,0,0,0-4.094-5.926,19.332,19.332,0,0,0-13.559-5.444,18.935,18.935,0,0,0-4.9.633,16.491,16.491,0,0,0-3.944,1.752L792.3,500.974h-8.529L782.28,523.6l-.349,23.58h-3.977v-2.26a13.656,13.656,0,0,0-1.226-5.741,14.968,14.968,0,0,0-3.292-4.659,15.749,15.749,0,0,0-4.828-3.131,15.3,15.3,0,0,0-16.237,2.87,16.108,16.108,0,0,0-4.711-2.946,14.723,14.723,0,0,0-5.63-1.08,15.092,15.092,0,0,0-5.9,1.156,15.686,15.686,0,0,0-4.824,3.131,14.953,14.953,0,0,0-3.3,4.659,13.677,13.677,0,0,0-1.226,5.741v2.26H722.96v-2.26a13.638,13.638,0,0,0-1.229-5.741,14.947,14.947,0,0,0-3.292-4.659,15.717,15.717,0,0,0-4.824-3.131,15.3,15.3,0,0,0-16.239,2.87,16.141,16.141,0,0,0-4.711-2.946,14.733,14.733,0,0,0-5.63-1.08,15.083,15.083,0,0,0-5.9,1.156,15.657,15.657,0,0,0-4.824,3.131,14.953,14.953,0,0,0-3.295,4.659,13.675,13.675,0,0,0-1.226,5.741V573.9a4.9,4.9,0,1,0,9.8,0V544.178a5.059,5.059,0,0,1,1.839-3.2,5.479,5.479,0,0,1,3.6-1.268,5.425,5.425,0,0,1,5.437,5.219v7.29a4.9,4.9,0,1,0,9.805,0v-7.587A5.061,5.061,0,0,1,704,541.121a5.609,5.609,0,0,1,7.277-.149,5.48,5.48,0,0,1,1.876,3.2V551.6a4.715,4.715,0,0,0,0,1.226,4.671,4.671,0,0,0,4.389,4.419h19.049v-13.07a5.064,5.064,0,0,1,1.839-3.2,5.476,5.476,0,0,1,3.6-1.268,5.425,5.425,0,0,1,5.439,5.219v7.29a4.9,4.9,0,1,0,9.8,0v-7.587A5.063,5.063,0,0,1,759,541.121a5.608,5.608,0,0,1,7.276-.149,5.5,5.5,0,0,1,1.879,3.2v8.651c.014.125.037.246.062.37a4.7,4.7,0,0,0,4.473,4.049H793.18l.116-2.666c0-1.242.245-12.691.73-13.811a8.984,8.984,0,0,1,1.99-2.906,9.34,9.34,0,0,1,2.988-1.94,9.691,9.691,0,0,1,7.276,0,9.267,9.267,0,0,1,2.986,1.94,9.008,9.008,0,0,1,1.993,2.906,8.815,8.815,0,0,1,.727,3.541v29.705h.006c0-.04,0-.076,0-.115a4.9,4.9,0,1,0,9.8,0V544.311A17.824,17.824,0,0,0,820.3,537.043Z" transform="translate(0 5.794)" fill="#aeb0b3"/></g></svg>