<svg xmlns="http://www.w3.org/2000/svg" xmlns:xlink="http://www.w3.org/1999/xlink" width="152.281" height="116.341" viewBox="0 0 152.281 116.341"><defs><linearGradient id="a" y1="0.5" x2="1" y2="0.5" gradientUnits="objectBoundingBox"><stop offset="0" stop-color="#ef664b"/><stop offset="0.152" stop-color="#e40019"/><stop offset="0.355" stop-color="#d7031a"/><stop offset="0.723" stop-color="#c6081d"/><stop offset="1" stop-color="#c10a1e"/></linearGradient><linearGradient id="b" x1="0.5" x2="0.5" y2="1" gradientUnits="objectBoundingBox"><stop offset="0" stop-color="#9b9da0"/><stop offset="0.181" stop-color="#888a8d"/><stop offset="0.411" stop-color="#78797c"/><stop offset="0.667" stop-color="#6f7073"/><stop offset="1" stop-color="#6c6d70"/></linearGradient><linearGradient id="c" x1="0.5" y1="0" x2="0.5" y2="1" xlink:href="#b"/><linearGradient id="e" x1="0.5" y1="0" x2="0.5" y2="1" xlink:href="#b"/><linearGradient id="f" x1="0.5" y1="0" x2="0.5" y2="1" xlink:href="#b"/><linearGradient id="h" x1="0.5" y1="0" x2="0.5" y2="1" xlink:href="#b"/><linearGradient id="i" x1="0.5" x2="0.5" y2="1" gradientUnits="objectBoundingBox"><stop offset="0" stop-color="#9b9da0"/><stop offset="1" stop-color="#9a9c9e"/></linearGradient><linearGradient id="r" x1="0.5" y1="0" x2="0.5" y2="1" xlink:href="#b"/><linearGradient id="v" x1="0.5" x2="0.5" y2="1" gradientUnits="objectBoundingBox"><stop offset="0" stop-color="#ef664b"/><stop offset="0.5" stop-color="#e40019"/><stop offset="1" stop-color="#c10a1e"/></linearGradient><linearGradient id="y" x1="0.5" y1="0" x2="0.5" y2="1" xlink:href="#v"/><linearGradient id="z" x1="0.5" y1="0" x2="0.5" y2="1" xlink:href="#v"/><linearGradient id="ac" x1="0.5" y1="0" x2="0.5" y2="1" xlink:href="#v"/><linearGradient id="ag" x1="0.5" y1="0" x2="0.5" y2="1" xlink:href="#v"/><linearGradient id="aj" x1="0.5" y1="0" x2="0.5" y2="1" xlink:href="#v"/><linearGradient id="ap" y1="0.5" x2="1" y2="0.5" gradientUnits="objectBoundingBox"><stop offset="0" stop-color="#c7c9cb"/><stop offset="0.527" stop-color="#aeb0b3"/><stop offset="1" stop-color="#c3c5c7"/></linearGradient><linearGradient id="aq" y1="0.5" x2="1" y2="0.5" gradientUnits="objectBoundingBox"><stop offset="0.255" stop-color="#e40019"/><stop offset="0.281" stop-color="#e10019"/><stop offset="0.502" stop-color="#cf051b"/><stop offset="0.736" stop-color="#c4081d"/><stop offset="1" stop-color="#c10a1e"/></linearGradient><linearGradient id="ar" x1="-9.63" y1="0.5" x2="1" y2="0.5" gradientUnits="objectBoundingBox"><stop offset="0.5" stop-color="#e40019"/><stop offset="1" stop-color="#c10a1e"/></linearGradient><linearGradient id="as" x1="-8.287" y1="0.5" x2="1.964" y2="0.5" xlink:href="#ar"/><linearGradient id="au" x1="249.72" y1="0.5" x2="-0.005" y2="0.5" xlink:href="#v"/><linearGradient id="av" x1="27.218" y1="0.5" x2="-44.882" y2="0.5" xlink:href="#v"/><linearGradient id="aw" x1="1.002" y1="0.5" x2="-45.069" y2="0.5" xlink:href="#v"/><linearGradient id="ax" x1="-4.219" y1="0.5" x2="1" y2="0.5" xlink:href="#ar"/><linearGradient id="ay" x1="1.606" y1="0.5" x2="0" y2="0.5" xlink:href="#v"/><linearGradient id="az" y1="0.5" x2="1" y2="0.5" gradientUnits="objectBoundingBox"><stop offset="0" stop-color="#ef664b"/><stop offset="0.124" stop-color="#e93231"/><stop offset="0.229" stop-color="#e50e1f"/><stop offset="0.285" stop-color="#e40019"/><stop offset="0.354" stop-color="#da021a"/><stop offset="0.513" stop-color="#cc061c"/><stop offset="0.702" stop-color="#c3091d"/><stop offset="1" stop-color="#c10a1e"/></linearGradient><linearGradient id="ba" x1="-9.63" y1="0.5" x2="1" y2="0.5" xlink:href="#v"/><linearGradient id="bb" x1="-8.405" y1="0.5" x2="1.977" y2="0.5" xlink:href="#v"/><linearGradient id="bd" x1="-667.852" y1="0.5" x2="158.294" y2="0.5" xlink:href="#v"/><linearGradient id="be" x1="161.821" y1="0.5" x2="-0.673" y2="0.5" xlink:href="#v"/><linearGradient id="bf" x1="-4.252" y1="0.5" x2="1" y2="0.5" xlink:href="#v"/><linearGradient id="bg" x1="1.597" y1="0.5" x2="0" y2="0.5" xlink:href="#v"/><linearGradient id="bh" x1="1.022" y1="0.5" x2="-0.011" y2="0.5" gradientUnits="objectBoundingBox"><stop offset="0.042" stop-color="#ef664b"/><stop offset="0.09" stop-color="#ec5341"/><stop offset="0.186" stop-color="#e7232a"/><stop offset="0.248" stop-color="#e40019"/><stop offset="0.326" stop-color="#d5041b"/><stop offset="0.432" stop-color="#c9071c"/><stop offset="0.583" stop-color="#c2091d"/><stop offset="1" stop-color="#c10a1e"/></linearGradient><linearGradient id="bi" x1="1.022" y1="0.5" x2="-0.004" y2="0.5" gradientUnits="objectBoundingBox"><stop offset="0.061" stop-color="#f06a4c"/><stop offset="0.081" stop-color="#eb5f47"/><stop offset="0.147" stop-color="#de453a"/><stop offset="0.223" stop-color="#d32f2f"/><stop offset="0.311" stop-color="#cb1e27"/><stop offset="0.421" stop-color="#c51222"/><stop offset="0.574" stop-color="#c10b1e"/><stop offset="1" stop-color="#c10a1e"/></linearGradient><filter id="bj" x="0" y="8.2" width="21.129" height="21.069" filterUnits="userSpaceOnUse"><feOffset input="SourceAlpha"/><feGaussianBlur stdDeviation="2.5" result="bk"/><feFlood flood-color="#1a1818" flood-opacity="0.271"/><feComposite operator="in" in2="bk"/><feComposite in="SourceGraphic"/></filter><filter id="bl" x="11.419" y="3.314" width="23.349" height="24.75" filterUnits="userSpaceOnUse"><feOffset input="SourceAlpha"/><feGaussianBlur stdDeviation="2.5" result="bm"/><feFlood flood-color="#1a1818" flood-opacity="0.271"/><feComposite operator="in" in2="bm"/><feComposite in="SourceGraphic"/></filter><filter id="bn" x="24.261" y="10.313" width="23.261" height="24.776" filterUnits="userSpaceOnUse"><feOffset input="SourceAlpha"/><feGaussianBlur stdDeviation="2.5" result="bo"/><feFlood flood-color="#1a1818" flood-opacity="0.271"/><feComposite operator="in" in2="bo"/><feComposite in="SourceGraphic"/></filter><filter id="bp" x="80.544" y="10.017" width="25.104" height="26.709" filterUnits="userSpaceOnUse"><feOffset input="SourceAlpha"/><feGaussianBlur stdDeviation="2.5" result="bq"/><feFlood flood-color="#1a1818" flood-opacity="0.271"/><feComposite operator="in" in2="bq"/><feComposite in="SourceGraphic"/></filter><filter id="br" x="104.488" y="10.105" width="27.23" height="28.289" filterUnits="userSpaceOnUse"><feOffset input="SourceAlpha"/><feGaussianBlur stdDeviation="2.5" result="bs"/><feFlood flood-color="#1a1818" flood-opacity="0.271"/><feComposite operator="in" in2="bs"/><feComposite in="SourceGraphic"/></filter><filter id="bt" x="55.633" y="5.335" width="22.38" height="23.047" filterUnits="userSpaceOnUse"><feOffset input="SourceAlpha"/><feGaussianBlur stdDeviation="2.5" result="bu"/><feFlood flood-color="#1a1818" flood-opacity="0.271"/><feComposite operator="in" in2="bu"/><feComposite in="SourceGraphic"/></filter><filter id="bv" x="66.35" y="13.74" width="23.471" height="24.655" filterUnits="userSpaceOnUse"><feOffset input="SourceAlpha"/><feGaussianBlur stdDeviation="2.5" result="bw"/><feFlood flood-color="#1a1818" flood-opacity="0.271"/><feComposite operator="in" in2="bw"/><feComposite in="SourceGraphic"/></filter><filter id="bx" x="38.547" y="3.536" width="25.028" height="26.749" filterUnits="userSpaceOnUse"><feOffset input="SourceAlpha"/><feGaussianBlur stdDeviation="2.5" result="by"/><feFlood flood-color="#1a1818" flood-opacity="0.271"/><feComposite operator="in" in2="by"/><feComposite in="SourceGraphic"/></filter><filter id="bz" x="92.946" y="0" width="25.29" height="25.921" filterUnits="userSpaceOnUse"><feOffset input="SourceAlpha"/><feGaussianBlur stdDeviation="2.5" result="ca"/><feFlood flood-color="#1a1818" flood-opacity="0.271"/><feComposite operator="in" in2="ca"/><feComposite in="SourceGraphic"/></filter></defs><g transform="translate(-338.076 -166.449)"><path d="M496.2,240.918a18.749,18.749,0,0,0-4.1-5.928,19.338,19.338,0,0,0-13.558-5.443,18.988,18.988,0,0,0-4.9.634,16.463,16.463,0,0,0-3.945,1.753L468.2,204.851h-8.527l-1.494,22.629-.5,33.643h11.4l.119-2.666c0-1.242.242-12.693.728-13.81a9.031,9.031,0,0,1,1.993-2.908A9.3,9.3,0,0,1,474.9,239.8a9.691,9.691,0,0,1,7.276,0,9.3,9.3,0,0,1,2.987,1.939,9.029,9.029,0,0,1,1.992,2.908,8.829,8.829,0,0,1,.727,3.542v29.7l.006,0c0-.038-.006-.076-.006-.115a4.9,4.9,0,1,0,9.8,0V248.189A17.854,17.854,0,0,0,496.2,240.918Z" transform="translate(-7.333 -1.931)" fill="url(#a)"/><path d="M362.646,276.809c-.409-.068-.491-.3-.491-.491V273.2a1.394,1.394,0,0,0-1.065-1.388l-.282-.037H360.6a1.385,1.385,0,0,0-1.342,1.336V276.3c-.073.422-.3.507-.484.507-.431-.068-.514-.292-.514-.467V273.7c0-.88-.149-1.2-.274-1.317a1.366,1.366,0,0,0-1.151-.6h-.064a1.388,1.388,0,0,0-1.365,1.043,2.939,2.939,0,0,0-.059.662v2.857c0,.175-.082.4-.477.466h0c-.21,0-.439-.087-.516-.491l0-4.986c.045-.474.3-.573.508-.573.41.1.491.3.491.443v.052a2.458,2.458,0,0,1,1.47-.5,2.522,2.522,0,0,1,1.944.972,2.466,2.466,0,0,1,1.405-.9l.506-.067a2.442,2.442,0,0,1,2.479,2.4v3.209c0,.158-.082.364-.475.442l-.008,0Z" transform="translate(-0.875 -6.051)" fill="url(#b)"/><path d="M365.526,276.8c-.183,0-.417-.087-.494-.5l0-5.1c.051-.489.31-.591.519-.591.34.082.5.235.5.456v.31a3.09,3.09,0,0,1,1.987-.766,3.307,3.307,0,0,1,1.29.292.609.609,0,0,1,.225.427c-.068.436-.308.519-.5.519a3.779,3.779,0,0,0-.931-.194H368a1.9,1.9,0,0,0-1.822,1.294,2.341,2.341,0,0,0-.122.78v2.6c0,.181-.084.411-.489.478h-.037Z" transform="translate(-1.542 -6.041)" fill="url(#c)"/><g transform="translate(368.523 264.595)"><path d="M373.461,276.8a3.045,3.045,0,0,1-2.655-1.547,3.158,3.158,0,0,1-.4-1.538,3.066,3.066,0,0,1,1.6-2.692,3.32,3.32,0,0,1,1.464-.387,3.068,3.068,0,0,1,2.764,1.686,3.135,3.135,0,0,1,.339,1.44v.112c-.074.431-.31.518-.5.518h-4.508a2.112,2.112,0,0,0,1.04,1.184,2.562,2.562,0,0,0,.9.183,2.6,2.6,0,0,0,1.13-.319l.165-.008c.394.074.473.3.473.478v.066c0,.411-.538.681-1.645.824h-.163Zm2.042-3.423a2.359,2.359,0,0,0-.507-1.036,2.035,2.035,0,0,0-1.358-.647h-.24a1.929,1.929,0,0,0-1.666.995,2.205,2.205,0,0,0-.26.688Z" transform="translate(-370.401 -270.638)" fill="url(#c)"/></g><path d="M378.2,276.806c-.188,0-.427-.091-.49-.525,0-.077,0-.211.9-1.253l2.622-3.3H378.5l-.34.023c-.382-.128-.455-.349-.455-.514.058-.347.229-.458.387-.484v-.016l.09-.014.216.024h3.733l.188-.023c.328.092.477.242.477.449v.129c0,.082-.062.233-.518.728l-3.008,3.776h3.059c.388.073.467.294.467.467v.07c0,.175-.083.4-.477.466H378.2Z" transform="translate(-2.334 -6.048)" fill="url(#e)"/><g transform="translate(381.358 264.606)"><path d="M389.723,276.8a.519.519,0,0,1-.49-.378l-.006-.058.016-.374a2.994,2.994,0,0,1-1.991.81h-.17a3.078,3.078,0,0,1-2.608-1.563,3.4,3.4,0,0,1-.382-1.533,3.059,3.059,0,0,1,1.679-2.716,3.262,3.262,0,0,1,1.4-.34,3.1,3.1,0,0,1,2.757,1.7,3.435,3.435,0,0,1,.316,1.44v2.536c0,.178-.083.4-.483.472h-.037Zm-2.576-5.136A2.039,2.039,0,0,0,385.228,273a2.493,2.493,0,0,0-.121.683v.066a2.039,2.039,0,0,0,1.267,1.894,2.109,2.109,0,0,0,.708.144h.17a2.023,2.023,0,0,0,1.73-1.054,2.114,2.114,0,0,0,.246-.938v-.087a2,2,0,0,0-1.2-1.854,2.079,2.079,0,0,0-.859-.186Z" transform="translate(-384.091 -270.65)" fill="url(#f)"/></g><path d="M403.185,276.809c-.409-.068-.491-.3-.491-.491V273.2a1.393,1.393,0,0,0-1.065-1.388l-.282-.037h-.2a1.38,1.38,0,0,0-1.343,1.336V276.3c-.074.422-.3.507-.485.507-.431-.068-.514-.292-.514-.467V273.7c0-.881-.148-1.2-.272-1.317a1.369,1.369,0,0,0-1.152-.6h-.065a1.388,1.388,0,0,0-1.364,1.043,2.912,2.912,0,0,0-.059.663v2.857c0,.175-.082.4-.477.466h0c-.21,0-.438-.087-.516-.491l0-4.986c.045-.474.3-.573.508-.573.41.1.491.3.491.443v.052a2.458,2.458,0,0,1,1.47-.5,2.528,2.528,0,0,1,1.945.972,2.462,2.462,0,0,1,1.4-.9l.506-.067a2.439,2.439,0,0,1,2.479,2.4v3.209c0,.158-.082.364-.475.442l-.007,0Z" transform="translate(-3.408 -6.051)" fill="url(#c)"/><path d="M405.86,276.644c-.187,0-.425-.087-.5-.505v-7.45c.051-.466.276-.562.456-.562h.087c.323.067.479.211.479.432v7.063h.382c.16,0,.369.083.455.486-.067.452-.309.536-.5.536Z" transform="translate(-4.063 -5.886)" fill="url(#h)"/><path d="M381.448,268.935l-.011-.013c-.221-.184-.406-.217-.556-.1l-.362.453-.2.3-.2-.3-.366-.449c-.151-.117-.337-.084-.554.1l-.012.013a.419.419,0,0,0,.076.592l.675.525a.656.656,0,0,0,.779,0l.668-.533A.418.418,0,0,0,381.448,268.935Z" transform="translate(-2.421 -5.925)" fill="url(#i)"/><g transform="translate(403.929 264.606)"><path d="M413.8,276.8a.519.519,0,0,1-.49-.378l-.006-.058.016-.374a2.994,2.994,0,0,1-1.991.81h-.17a3.078,3.078,0,0,1-2.608-1.563,3.4,3.4,0,0,1-.383-1.533,3.06,3.06,0,0,1,1.679-2.716,3.266,3.266,0,0,1,1.4-.34,3.1,3.1,0,0,1,2.756,1.7,3.435,3.435,0,0,1,.316,1.44v2.536c0,.178-.083.4-.483.472H413.8Zm-2.576-5.136A2.039,2.039,0,0,0,409.3,273a2.5,2.5,0,0,0-.121.683v.066a2.016,2.016,0,0,0,1.268,1.894,2.091,2.091,0,0,0,.706.144h.17a2.026,2.026,0,0,0,1.731-1.054,2.121,2.121,0,0,0,.245-.938v-.087a2,2,0,0,0-1.2-1.854,2.078,2.078,0,0,0-.858-.186Z" transform="translate(-408.167 -270.65)" fill="url(#f)"/></g><g transform="translate(410.903 262.213)"><path d="M418.608,276.642a3.167,3.167,0,0,1-2.337-1.174,3.323,3.323,0,0,1-.665-1.94,3.116,3.116,0,0,1,1.336-2.541,3.188,3.188,0,0,1,1.777-.568,3.224,3.224,0,0,1,2.085.813V268.91l-.023-.347c.1-.32.25-.466.456-.466h.088c.4.08.478.282.478.438v4.379l.024.747a3.161,3.161,0,0,1-.725,1.866,3.1,3.1,0,0,1-2.318,1.116Zm.066-5.2a2.047,2.047,0,0,0-1.919,1.347,2.14,2.14,0,0,0-.127.673v.111A2.051,2.051,0,0,0,418,275.517a2.4,2.4,0,0,0,.65.1h.136a2.048,2.048,0,0,0,1.916-1.371,2.756,2.756,0,0,0,.1-.627v-.136a2.056,2.056,0,0,0-1.394-1.94,3,3,0,0,0-.65-.1Z" transform="translate(-415.606 -268.097)" fill="url(#f)"/></g><g transform="translate(418.326 263.068)"><path d="M424.021,276.7c-.183,0-.417-.087-.5-.5v-5.1c.051-.485.311-.584.521-.584.339.083.5.235.5.455v5.258c0,.181-.085.411-.488.478h-.038ZM424,270.048c-.166,0-.383-.087-.477-.5.084-.45.329-.537.519-.537.339.082.5.233.5.455v.129c0,.173-.093.393-.533.454H424Z" transform="translate(-423.524 -269.009)" fill="url(#e)"/></g><path d="M431.046,276.643c-.172,0-.4-.08-.5-.458l0-2.983a1.7,1.7,0,0,0-1.185-1.646,1.994,1.994,0,0,0-.567-.082,1.676,1.676,0,0,0-1.651,1.253,3.393,3.393,0,0,0-.083.9v2.541c0,.181-.084.412-.488.478h0c-.2,0-.427-.081-.526-.458l0-7.58c.084-.413.294-.5.457-.5h.087c.4.082.478.279.478.432v2.527a2.734,2.734,0,0,1,4.163.788,2.61,2.61,0,0,1,.348,1.217v3.09c0,.181-.085.411-.49.478h-.031Z" transform="translate(-5.355 -5.885)" fill="url(#c)"/><path d="M441.245,276.643c-.173,0-.4-.08-.5-.458l0-2.984a1.694,1.694,0,0,0-1.185-1.646,1.992,1.992,0,0,0-.566-.082,1.674,1.674,0,0,0-1.651,1.253,3.324,3.324,0,0,0-.083.9v2.541c0,.181-.084.412-.488.478h0a.514.514,0,0,1-.526-.458l0-7.58c.069-.335.222-.5.456-.5h.087c.4.082.479.279.479.432v2.527a2.734,2.734,0,0,1,4.163.788,2.593,2.593,0,0,1,.346,1.217v3.09c0,.181-.084.411-.487.478h-.032Z" transform="translate(-5.992 -5.885)" fill="url(#c)"/><path d="M443.919,276.8c-.183,0-.416-.087-.494-.505v-5.1c.049-.489.308-.591.518-.591.339.082.5.235.5.456v.31a3.092,3.092,0,0,1,1.987-.766,3.312,3.312,0,0,1,1.291.292.613.613,0,0,1,.224.427c-.068.436-.307.519-.5.519a3.8,3.8,0,0,0-.931-.194h-.129a1.905,1.905,0,0,0-1.824,1.294,2.329,2.329,0,0,0-.122.78v2.6c0,.181-.084.411-.488.478h-.037Z" transform="translate(-6.442 -6.041)" fill="url(#c)"/><path d="M451.747,276.8c-.293,0-.534-.292-.738-.892-1.428-2.919-2.163-4.454-2.242-4.683l0-.132c.075-.4.3-.479.479-.479.31,0,.532.255.714.78l1.808,3.71c1.98-4.2,2.084-4.315,2.119-4.353a.576.576,0,0,1,.347-.137c.431.08.519.314.519.5a11.111,11.111,0,0,1-.974,2.171l-1.628,3.338a.615.615,0,0,1-.382.179Z" transform="translate(-6.775 -6.042)" fill="url(#e)"/><g transform="translate(448.692 264.606)"><path d="M461.545,276.8a.518.518,0,0,1-.489-.378l-.007-.058.016-.374a3,3,0,0,1-1.99.81h-.17a3.082,3.082,0,0,1-2.61-1.563,3.422,3.422,0,0,1-.381-1.533,3.061,3.061,0,0,1,1.678-2.716,3.269,3.269,0,0,1,1.4-.34,3.1,3.1,0,0,1,2.757,1.7,3.456,3.456,0,0,1,.316,1.44v2.536c0,.177-.084.4-.484.472h-.037Zm-2.576-5.136A2.04,2.04,0,0,0,457.05,273a2.491,2.491,0,0,0-.12.683v.066a2.014,2.014,0,0,0,1.267,1.894,2.1,2.1,0,0,0,.708.144h.17a2.018,2.018,0,0,0,1.729-1.054,2.1,2.1,0,0,0,.246-.938v-.087a2,2,0,0,0-1.2-1.854,2.075,2.075,0,0,0-.858-.186Z" transform="translate(-455.914 -270.65)" fill="url(#f)"/></g><path d="M466.048,276.659a1.7,1.7,0,0,1-1.6-1.166,2.254,2.254,0,0,1-.093-.677v-3.2h-.347l-.342.023c-.377-.127-.448-.346-.448-.508.059-.347.23-.459.386-.485v-.015l.089-.014.218.023h.444v-1.722c.051-.459.272-.554.449-.554h.082c.389.079.467.275.467.426v1.851h.8l.188-.022c.174,0,.391.087.488.495a.531.531,0,0,1-.414.521l-.354-.018h-.71v3.076c0,.517.158.821.484.935l.472.037h.234c.158,0,.363.082.443.475-.068.441-.3.523-.49.523Z" transform="translate(-7.679 -5.901)" fill="url(#r)"/><path d="M470.1,276.8a2.8,2.8,0,0,1-2.3-1.268.521.521,0,0,1-.1-.289v-.128c0-.177.1-.4.551-.449h0c.177,0,.383.184.659.578a1.841,1.841,0,0,0,1.276.5,1.7,1.7,0,0,0,1.449-.83l.029-.109c0-.1-.039-.211-.317-.24a14.841,14.841,0,0,1-3.126-.822,1.292,1.292,0,0,1-.566-1.056c0-.574.413-1.129,1.227-1.649a2.861,2.861,0,0,1,1.343-.36,2.757,2.757,0,0,1,2.435,1.4l.03.205c0,.221-.086.46-.5.522h0c-.235,0-.449-.176-.665-.537a1.823,1.823,0,0,0-1.3-.547,1.686,1.686,0,0,0-1.511.917l-.006.082c0,.163.313.229.576.252,1.694.408,2.589.635,2.751.7a1.3,1.3,0,0,1,.679,1.117c0,.647-.458,1.225-1.363,1.739A3.007,3.007,0,0,1,470.1,276.8Z" transform="translate(-7.957 -6.046)" fill="url(#c)"/><path d="M474.566,276.641c-.172,0-.4-.08-.5-.458l0-7.6c.069-.339.222-.5.456-.5h.086c.4.084.487.285.487.439v4.216c2-1.325,3.19-2.1,3.532-2.29l.151-.01c.192,0,.436.092.5.531,0,.229-.238.457-.751.728-1.175.795-1.578,1.054-1.727,1.139l2.438,3.083.04.171c-.074.45-.315.534-.5.534-.244,0-.513-.248-.884-.784l-1.957-2.432-.842.544v2.215c0,.181-.085.412-.489.478h-.036Z" transform="translate(-8.357 -5.883)" fill="url(#c)"/><g transform="translate(471.637 264.595)"><path d="M483.45,276.8a3.04,3.04,0,0,1-2.654-1.547,3.158,3.158,0,0,1-.407-1.538,3.066,3.066,0,0,1,1.6-2.692,3.32,3.32,0,0,1,1.464-.387,3.072,3.072,0,0,1,2.764,1.686,3.143,3.143,0,0,1,.338,1.44v.112c-.074.431-.31.518-.5.518h-4.509a2.085,2.085,0,0,0,1.041,1.184,2.562,2.562,0,0,0,.9.183,2.621,2.621,0,0,0,1.131-.319l.164-.008c.393.074.473.3.473.478v.066c0,.411-.538.681-1.644.824h-.164Zm2.041-3.423a2.37,2.37,0,0,0-.506-1.036,2.043,2.043,0,0,0-1.358-.647h-.241a1.95,1.95,0,0,0-1.665.995,2.194,2.194,0,0,0-.26.688Z" transform="translate(-480.389 -270.638)" fill="url(#c)"/></g><path d="M357.111,287.5a3.094,3.094,0,0,1-2.292-1.157,3.258,3.258,0,0,1-.654-1.9,3.065,3.065,0,0,1,1.313-2.5,3.024,3.024,0,0,1,3.887.329.536.536,0,0,1,.09.28c-.073.433-.307.516-.492.516-.109,0-.271-.049-.769-.427a2.021,2.021,0,0,0-.908-.229h-.128a1.97,1.97,0,0,0-1.842,1.283,2.478,2.478,0,0,0-.142.772,2.035,2.035,0,0,0,1.283,1.882,2.3,2.3,0,0,0,.81.143,2.216,2.216,0,0,0,1.422-.591l.207-.058.089,0c.176,0,.4.082.468.479,0,.37-.472.716-1.444,1.087a4.337,4.337,0,0,1-.725.092Z" transform="translate(-0.863 -6.715)" fill="url(#v)"/><path d="M361.471,287.5c-.181,0-.413-.086-.492-.5v-5.057c.05-.486.307-.586.516-.586.338.082.5.233.5.452v.306a3.062,3.062,0,0,1,1.968-.758,3.271,3.271,0,0,1,1.278.29.6.6,0,0,1,.223.424c-.068.433-.3.517-.492.517a3.674,3.674,0,0,0-.923-.193h-.128a1.882,1.882,0,0,0-1.806,1.282,2.293,2.293,0,0,0-.121.773v2.577c0,.179-.084.407-.485.473h-.037Z" transform="translate(-1.289 -6.713)" fill="url(#v)"/><path d="M369.248,287.5a3.084,3.084,0,0,1-2.275-1.145,3.244,3.244,0,0,1-.649-1.888,3.034,3.034,0,0,1,1.3-2.479,3.1,3.1,0,0,1,1.732-.556,3.062,3.062,0,0,1,3.034,3.035,3.036,3.036,0,0,1-2.97,3.033Zm.087-5.042a1.965,1.965,0,0,0-1.887,1.351,2.11,2.11,0,0,0-.1.593v.1a1.951,1.951,0,0,0,1.1,1.763,1.811,1.811,0,0,0,.843.2h.128a1.942,1.942,0,0,0,1.8-1.227,2.086,2.086,0,0,0,.143-.741v-.1a1.917,1.917,0,0,0-.873-1.595A2,2,0,0,0,369.335,282.463Z" transform="translate(-1.623 -6.718)" fill="url(#v)"/><path d="M379.171,287.5a.515.515,0,0,1-.487-.375l-.006-.057.015-.369a2.965,2.965,0,0,1-1.971.8h-.169a3.052,3.052,0,0,1-2.586-1.55,3.368,3.368,0,0,1-.379-1.518,3.032,3.032,0,0,1,1.664-2.693,3.272,3.272,0,0,1,1.388-.337,3.073,3.073,0,0,1,2.732,1.687,3.437,3.437,0,0,1,.314,1.429v2.512c0,.177-.083.4-.48.469h-.037Zm-2.553-5.088a2.021,2.021,0,0,0-1.9,1.318,2.507,2.507,0,0,0-.119.678v.065a2,2,0,0,0,1.255,1.876,2.091,2.091,0,0,0,.7.143h.169a2,2,0,0,0,1.713-1.042,2.114,2.114,0,0,0,.243-.932v-.086a1.989,1.989,0,0,0-1.189-1.839,2.084,2.084,0,0,0-.848-.181Z" transform="translate(-2.077 -6.716)" fill="url(#y)"/><path d="M383.633,287.361a1.681,1.681,0,0,1-1.582-1.156,2.17,2.17,0,0,1-.095-.671V282.36h-.342l-.337.023c-.307-.1-.445-.269-.445-.5.058-.344.226-.456.383-.482v-.015l.089-.013.215.023h.439v-1.706c.05-.456.27-.55.446-.55h.082c.386.081.464.275.464.423v1.834h.8l.184-.023c.173,0,.388.086.486.491a.522.522,0,0,1-.41.517l-.353-.018h-.7v3.047c0,.512.157.816.48.927l.467.035h.231c.158,0,.362.082.44.472-.067.439-.3.52-.486.52Z" transform="translate(-2.53 -6.574)" fill="url(#z)"/><path d="M386.231,287.4c-.182,0-.414-.086-.491-.5l0-5.056c.051-.482.308-.581.517-.581.337.083.5.234.5.454v5.21c0,.179-.084.407-.486.473h-.037Zm-.018-6.59c-.238,0-.4-.168-.473-.5.083-.447.325-.533.515-.533.415.1.5.3.5.452v.128c0,.173-.092.392-.529.452h-.011Z" transform="translate(-2.836 -6.614)" fill="url(#z)"/><path d="M393.615,287.5a.514.514,0,0,1-.487-.375l-.006-.057.016-.369a2.971,2.971,0,0,1-1.972.8H391a3.052,3.052,0,0,1-2.587-1.55,3.364,3.364,0,0,1-.379-1.518,3.035,3.035,0,0,1,1.664-2.693,3.269,3.269,0,0,1,1.388-.337,3.075,3.075,0,0,1,2.733,1.687,3.451,3.451,0,0,1,.313,1.429v2.512c0,.177-.083.4-.48.469h-.037Zm-2.553-5.088a2.021,2.021,0,0,0-1.9,1.318,2.493,2.493,0,0,0-.119.678v.065a2,2,0,0,0,1.255,1.876,2.087,2.087,0,0,0,.7.143h.168a2,2,0,0,0,1.713-1.042,2.117,2.117,0,0,0,.243-.932v-.086a1.99,1.99,0,0,0-1.188-1.839,2.1,2.1,0,0,0-.849-.181Z" transform="translate(-2.98 -6.716)" fill="url(#y)"/><path d="M401.084,287.5c-.41-.073-.492-.308-.492-.493v-2.424a1.977,1.977,0,0,0-1.352-2.071,2.384,2.384,0,0,0-.581-.082h-.064a1.9,1.9,0,0,0-1.75,1.175,3.057,3.057,0,0,0-.158,1.152v2.273c0,.177-.083.4-.48.469h0c-.216,0-.446-.088-.524-.5v-5.018c.05-.48.308-.579.516-.579.334.082.493.233.493.452v.3a3.048,3.048,0,0,1,1.972-.751,2.974,2.974,0,0,1,2.229,1.048,2.9,2.9,0,0,1,.713,1.847v2.755c0,.233-.161.382-.478.445h-.038Z" transform="translate(-3.457 -6.716)" fill="url(#ac)"/><path d="M407.256,289.508c-.389-.083-.471-.278-.471-.427v-.1a21.612,21.612,0,0,1,.917-2.3l-1.926-4.657,0-.064c.078-.383.307-.464.486-.464.27,0,.487.28.663.857.874,2.069,1.181,2.821,1.293,3.1,1.527-3.726,1.6-3.8,1.627-3.837a.529.529,0,0,1,.345-.148c.4.073.48.292.48.463-.006.08-.019.188-2.007,4.927a22.151,22.151,0,0,1-1.061,2.491.776.776,0,0,1-.3.15l-.019,0Z" transform="translate(-4.088 -6.72)" fill="url(#v)"/><path d="M414.555,287.5a3.087,3.087,0,0,1-2.276-1.145,3.24,3.24,0,0,1-.648-1.888,3.032,3.032,0,0,1,1.3-2.479,3.1,3.1,0,0,1,1.732-.556,3.06,3.06,0,0,1,3.034,3.035,3.035,3.035,0,0,1-2.97,3.033Zm.086-5.042a1.967,1.967,0,0,0-1.887,1.351,2.1,2.1,0,0,0-.1.593v.1a1.95,1.95,0,0,0,1.1,1.763,1.8,1.8,0,0,0,.842.2h.127a1.963,1.963,0,0,0,1.8-1.227,2.088,2.088,0,0,0,.143-.741v-.1a1.912,1.912,0,0,0-.873-1.595A1.993,1.993,0,0,0,414.641,282.463Z" transform="translate(-4.455 -6.718)" fill="url(#v)"/><path d="M424.5,287.5c-.411-.073-.493-.308-.493-.493v-.259a2.863,2.863,0,0,1-1.9.752h-.151a2.985,2.985,0,0,1-2.415-1.359,3.291,3.291,0,0,1-.473-1.807v-2.373c.05-.482.307-.581.516-.581.334.082.492.232.492.452v2.327a2.085,2.085,0,0,0,.808,1.933,1.856,1.856,0,0,0,1.16.4,1.958,1.958,0,0,0,1.837-1.26,2.793,2.793,0,0,0,.125-.812V281.9c.084-.43.327-.517.517-.517.41.091.491.319.491.493v5.175c0,.162-.082.372-.476.451H424.5Z" transform="translate(-4.92 -6.715)" fill="url(#y)"/><path d="M428.87,287.361a1.681,1.681,0,0,1-1.582-1.156,2.183,2.183,0,0,1-.095-.671V282.36h-.342l-.337.023c-.306-.1-.444-.27-.444-.5.056-.345.226-.456.382-.482v-.015l.089-.013.214.023h.439v-1.706c.051-.456.271-.55.447-.55h.081c.386.081.464.275.464.423v1.834h.795l.183-.023c.248,0,.408.165.488.491a.524.524,0,0,1-.412.517l-.352-.018h-.7v3.047c0,.512.157.816.478.927l.469.035h.231c.157,0,.361.082.439.471-.066.44-.3.521-.485.521Z" transform="translate(-5.357 -6.574)" fill="url(#ag)"/><path d="M435.763,287.345c-.172,0-.4-.078-.5-.454l0-2.957a1.681,1.681,0,0,0-1.174-1.631,2.006,2.006,0,0,0-.561-.08,1.659,1.659,0,0,0-1.636,1.241,3.325,3.325,0,0,0-.082.887v2.519c0,.179-.084.407-.484.473h0a.513.513,0,0,1-.524-.453l0-7.511c.087-.411.294-.493.455-.493h.085c.4.079.475.277.475.429v2.5a2.712,2.712,0,0,1,4.126.784,2.569,2.569,0,0,1,.341,1.2v3.064c0,.179-.084.407-.485.473h-.03Z" transform="translate(-5.652 -6.559)" fill="url(#ag)"/><path d="M446.34,287.5c-.41-.073-.492-.308-.492-.493v-2.424a1.977,1.977,0,0,0-1.352-2.071,2.378,2.378,0,0,0-.581-.082h-.064a1.9,1.9,0,0,0-1.749,1.175,3.044,3.044,0,0,0-.158,1.152v2.273c0,.177-.083.4-.481.469h0c-.216,0-.445-.088-.523-.5v-5.018c.049-.48.307-.579.515-.579.335.082.494.233.494.452v.3a3.05,3.05,0,0,1,1.972-.751,2.979,2.979,0,0,1,2.23,1.048,2.9,2.9,0,0,1,.713,1.847v2.755c0,.159-.083.367-.478.445h-.039Z" transform="translate(-6.286 -6.716)" fill="url(#y)"/><path d="M451.1,287.5a3.018,3.018,0,0,1-2.633-1.535,3.125,3.125,0,0,1-.4-1.522,3.039,3.039,0,0,1,1.581-2.668,3.281,3.281,0,0,1,1.454-.383,3.039,3.039,0,0,1,2.737,1.671,3.087,3.087,0,0,1,.337,1.428v.11c-.072.428-.307.516-.493.516h-4.466a2.1,2.1,0,0,0,1.029,1.171,2.553,2.553,0,0,0,.9.182,2.593,2.593,0,0,0,1.119-.316l.163-.008c.391.075.47.3.47.474v.065c0,.407-.533.674-1.631.817h-.16Zm2.019-3.392a2.333,2.333,0,0,0-.5-1.027,2.009,2.009,0,0,0-1.343-.639h-.238a1.932,1.932,0,0,0-1.651.984,2.233,2.233,0,0,0-.257.682Z" transform="translate(-6.732 -6.715)" fill="url(#aj)"/><path d="M457.955,287.361a1.682,1.682,0,0,1-1.582-1.156,2.22,2.22,0,0,1-.094-.671V282.36h-.343l-.337.023c-.307-.1-.445-.27-.445-.5.057-.345.226-.456.382-.482v-.015l.089-.013.216.023h.438v-1.706c.052-.457.271-.55.445-.55h.083c.387.081.464.275.464.423v1.834h.8l.183-.023c.247,0,.408.165.488.49a.523.523,0,0,1-.412.518l-.351-.018h-.7v3.047c0,.512.157.816.479.927l.466.035h.233c.157,0,.359.082.439.471-.068.44-.3.521-.486.521Z" transform="translate(-7.175 -6.574)" fill="url(#z)"/><path d="M464.978,287.508c-.31,0-.518-.294-.635-.9-.641-1.935-.883-2.694-.975-3l-1.179,3.654a.508.508,0,0,1-.42.247c-.182,0-.4-.075-.522-.438l-1.6-5.044c.082-.448.322-.533.507-.533.307,0,.519.311.631.925l.978,3c1.142-3.626,1.2-3.7,1.228-3.74a.713.713,0,0,1,.38-.181h0c.308,0,.505.26.6.773l1.018,3.146c.735-2.327,1.127-3.532,1.2-3.682a.584.584,0,0,1,.416-.238c.424.084.51.323.51.509l-1.691,5.282a.6.6,0,0,1-.42.224Z" transform="translate(-7.456 -6.722)" fill="url(#v)"/><path d="M471.353,287.5a3.084,3.084,0,0,1-2.275-1.145,3.244,3.244,0,0,1-.649-1.888,3.032,3.032,0,0,1,1.3-2.479,3.1,3.1,0,0,1,1.732-.556,3.059,3.059,0,0,1,3.033,3.035,3.034,3.034,0,0,1-2.97,3.033Zm.088-5.042a1.967,1.967,0,0,0-1.889,1.351,2.113,2.113,0,0,0-.1.593v.1a1.926,1.926,0,0,0,1.1,1.763,1.8,1.8,0,0,0,.841.2h.127a1.944,1.944,0,0,0,1.8-1.227,2.094,2.094,0,0,0,.142-.741v-.1a1.94,1.94,0,0,0-.873-1.595A1.993,1.993,0,0,0,471.441,282.463Z" transform="translate(-8.005 -6.718)" fill="url(#v)"/><path d="M476.538,287.5c-.18,0-.412-.086-.49-.5v-5.057c.05-.486.308-.586.516-.586.337.082.5.233.5.452v.3a3.062,3.062,0,0,1,1.968-.757,3.264,3.264,0,0,1,1.278.29.6.6,0,0,1,.223.424c-.068.433-.3.517-.491.517a3.7,3.7,0,0,0-.923-.193h-.128a1.885,1.885,0,0,0-1.807,1.282,2.309,2.309,0,0,0-.12.773v2.577c0,.179-.083.407-.486.473h-.038Z" transform="translate(-8.481 -6.713)" fill="url(#v)"/><path d="M482.134,287.343c-.171,0-.4-.078-.5-.454l0-7.534c.069-.338.221-.5.453-.5h.086c.4.085.482.284.482.436v4.177c1.974-1.306,3.152-2.069,3.5-2.269l.151-.01c.189,0,.43.091.5.526,0,.227-.234.453-.742.721-1.163.788-1.563,1.044-1.713,1.131l2.416,3.054.039.169c-.072.446-.31.531-.5.531-.246,0-.5-.24-.878-.778l-1.939-2.408-.832.538v2.2c0,.179-.084.407-.486.473h-.037Z" transform="translate(-8.83 -6.557)" fill="url(#ag)"/><path d="M470.469,204.569a2.293,2.293,0,0,1-2.456,2.083H459.14a2.293,2.293,0,0,1-2.457-2.083h0a2.293,2.293,0,0,1,2.457-2.083h8.873a2.293,2.293,0,0,1,2.456,2.083Z" transform="translate(-7.27 -1.784)" fill="url(#ap)"/><path d="M391.523,253.011v-2.26a13.662,13.662,0,0,0-1.225-5.74A14.98,14.98,0,0,0,387,240.35a15.734,15.734,0,0,0-4.825-3.132,15.52,15.52,0,0,0-11.566-.074,14.918,14.918,0,0,0-4.673,2.945,16.077,16.077,0,0,0-4.711-2.945,14.736,14.736,0,0,0-5.63-1.081,15.113,15.113,0,0,0-5.9,1.155,15.739,15.739,0,0,0-4.826,3.132,14.961,14.961,0,0,0-3.292,4.66,13.634,13.634,0,0,0-1.226,5.74v28.976a4.9,4.9,0,1,0,9.8,0V250.005A5.063,5.063,0,0,1,352,246.8a5.475,5.475,0,0,1,3.6-1.268,5.427,5.427,0,0,1,5.438,5.219v7.292a4.9,4.9,0,1,0,9.8,0v-7.589a5.064,5.064,0,0,1,1.724-3.505,5.608,5.608,0,0,1,7.277-.149,5.49,5.49,0,0,1,1.876,3.206v3.006h9.8Z" transform="translate(0 -3.882)" fill="url(#aq)"/><path d="M394.613,257.705v-3.564H389.8A5.033,5.033,0,0,1,394.613,257.705Z" transform="translate(-3.09 -5.012)" fill="url(#ar)"/><path d="M389.467,254.141h-4.991v4.419A5.03,5.03,0,0,1,389.467,254.141Z" transform="translate(-2.757 -5.012)" fill="url(#as)"/><path d="M389.8,264.637h4.813v-3.564A5.033,5.033,0,0,1,389.8,264.637Z" transform="translate(-3.09 -5.445)" fill="url(#ar)"/><path d="M384.433,259.467a5.059,5.059,0,0,0,.04.612v-1.224A5.058,5.058,0,0,0,384.433,259.467Z" transform="translate(-2.755 -5.307)" fill="url(#au)"/><path d="M395.152,259.41a5.029,5.029,0,0,0-.218-1.467v2.934A5.029,5.029,0,0,0,395.152,259.41Z" transform="translate(-3.411 -5.25)" fill="url(#av)"/><path d="M395.152,259.41a5.029,5.029,0,0,0-.218-1.467v2.934A5.029,5.029,0,0,0,395.152,259.41Z" transform="translate(-3.411 -5.25)" fill="url(#aw)"/><path d="M394.28,260.64v-2.934a5.03,5.03,0,0,0-9.8.855v1.224a5.03,5.03,0,0,0,9.8.855Z" transform="translate(-2.757 -5.012)" fill="url(#ax)"/><path d="M394.28,260.64v-2.934a5.03,5.03,0,0,0-9.8.855v1.224a5.03,5.03,0,0,0,9.8.855Z" transform="translate(-2.757 -5.012)" fill="url(#ay)"/><path d="M440.442,253.011h9.742v-2.26a13.662,13.662,0,0,0-1.225-5.74,14.964,14.964,0,0,0-3.293-4.66,15.734,15.734,0,0,0-4.825-3.132,15.52,15.52,0,0,0-11.566-.074,14.928,14.928,0,0,0-4.672,2.945,16.053,16.053,0,0,0-4.711-2.945,14.736,14.736,0,0,0-5.63-1.081,15.113,15.113,0,0,0-5.9,1.155,15.734,15.734,0,0,0-4.825,3.132,14.949,14.949,0,0,0-3.293,4.66,13.649,13.649,0,0,0-1.226,5.74v12.323h9.8V250.005a5.063,5.063,0,0,1,1.838-3.206,5.476,5.476,0,0,1,3.6-1.268,5.426,5.426,0,0,1,5.438,5.219v7.292a4.9,4.9,0,1,0,9.8,0v-7.589a5.063,5.063,0,0,1,1.723-3.505,5.608,5.608,0,0,1,7.277-.149,5.486,5.486,0,0,1,1.877,3.206v7.425c.015-.126.038-.248.062-.37Z" transform="translate(-3.666 -3.882)" fill="url(#az)"/><path d="M453.274,257.705v-3.564h-4.813A5.033,5.033,0,0,1,453.274,257.705Z" transform="translate(-6.757 -5.012)" fill="url(#ba)"/><path d="M443.2,258.19a5.027,5.027,0,0,1,4.928-4.049H443.2Z" transform="translate(-6.428 -5.012)" fill="url(#bb)"/><path d="M448.461,264.637h4.813v-3.564A5.033,5.033,0,0,1,448.461,264.637Z" transform="translate(-6.757 -5.445)" fill="url(#ba)"/><path d="M443.2,258.46c-.023.123-.047.245-.062.37v1.224c.015.126.038.248.062.37Z" transform="translate(-6.424 -5.282)" fill="url(#bd)"/><path d="M443.2,258.46c-.023.123-.047.245-.062.37v1.224c.015.126.038.248.062.37Z" transform="translate(-6.424 -5.282)" fill="url(#be)"/><path d="M452.946,260.64v-2.934a5.028,5.028,0,0,0-9.742.485v1.965a5.028,5.028,0,0,0,9.742.485Z" transform="translate(-6.428 -5.012)" fill="url(#bf)"/><path d="M452.946,260.64v-2.934a5.028,5.028,0,0,0-9.742.485v1.965a5.028,5.028,0,0,0,9.742.485Z" transform="translate(-6.428 -5.012)" fill="url(#bg)"/><path d="M452.046,254.141H443.2v6.014a4.7,4.7,0,0,0,4.473,4.049h9.644V254.141Z" transform="translate(-6.428 -5.012)" fill="url(#bh)"/><path d="M393.1,254.141h-8.62v5.644a4.669,4.669,0,0,0,4.388,4.419h9.459V254.141Z" transform="translate(-2.757 -5.012)" fill="url(#bi)"/><g transform="matrix(1, 0, 0, 1, 338.08, 166.45)" filter="url(#bj)"><path d="M352.049,185.553a3.1,3.1,0,0,0-6.12-.381,2.582,2.582,0,0,0,1.179,2.266l-.47,1.326,1.452-.868a3.517,3.517,0,0,0,.732.128A2.887,2.887,0,0,0,352.049,185.553Z" transform="translate(-338.42 -167)" fill="#d90b22" opacity="0.2"/></g><g transform="matrix(1, 0, 0, 1, 338.08, 166.45)" filter="url(#bl)"><path d="M358.134,182.031a3.979,3.979,0,0,1,3.651-4.538,4.487,4.487,0,0,1,4.639,3.994,4.092,4.092,0,0,1-1.375,3.618l.772,2.13-2.063-1.405a4.021,4.021,0,0,1-.984.195A4.487,4.487,0,0,1,358.134,182.031Z" transform="translate(-339.19 -166.67)" fill="#d90b22" opacity="0.4"/></g><g transform="matrix(1, 0, 0, 1, 338.08, 166.45)" filter="url(#bn)"><path d="M379.391,186.327a4.367,4.367,0,0,0-6.917,5.192,3.639,3.639,0,0,0,3.338,1.353l.71,1.854.766-2.262a5.046,5.046,0,0,0,.9-.533A4.072,4.072,0,0,0,379.391,186.327Z" transform="translate(-340.04 -167.14)" fill="#d90b22" opacity="0.6"/></g><g transform="matrix(1, 0, 0, 1, 338.08, 166.45)" filter="url(#bp)"><path d="M432.346,186.792c1.218-2.182,4.239-2.813,6.75-1.413s3.555,4.306,2.337,6.488a4.383,4.383,0,0,1-3.763,2.152l-.547,2.324-1.278-2.573a5.983,5.983,0,0,1-1.162-.489C432.174,191.878,431.127,188.974,432.346,186.792Z" transform="translate(-343.79 -167.12)" fill="#d90b22" opacity="0.8"/></g><g transform="matrix(1, 0, 0, 1, 338.08, 166.45)" filter="url(#br)"><path d="M469.484,188.721c-.673-2.875-3.9-4.581-7.209-3.806s-5.446,3.732-4.773,6.61a5.181,5.181,0,0,0,3.575,3.672l-.137,2.82,2.291-2.507a7.046,7.046,0,0,0,1.48-.179C468.02,194.557,470.158,191.6,469.484,188.721Z" transform="translate(-345.39 -167.12)" fill="#d90b22"/></g><g transform="matrix(1, 0, 0, 1, 338.08, 166.45)" filter="url(#bt)"><path d="M412.563,182.008a3.752,3.752,0,0,0-7.213,1.786,3.126,3.126,0,0,0,2.186,2.19l-.06,1.7,1.363-1.531a4.278,4.278,0,0,0,.892-.12A3.5,3.5,0,0,0,412.563,182.008Z" transform="translate(-342.13 -166.81)" fill="#d90b22" opacity="0.6"/></g><g transform="matrix(1, 0, 0, 1, 338.08, 166.45)" filter="url(#bv)"><path d="M416.991,190.688a4.368,4.368,0,0,1,7.883,3.561,3.645,3.645,0,0,1-2.964,2.048l-.288,1.964-1.24-2.041a4.933,4.933,0,0,1-1-.324A4.071,4.071,0,0,1,416.991,190.688Z" transform="translate(-342.85 -167.37)" fill="#d90b22" opacity="0.8"/></g><g transform="matrix(1, 0, 0, 1, 338.08, 166.45)" filter="url(#bx)"><path d="M396.423,179.631c-1.357-2.1-4.411-2.534-6.826-.973s-3.27,4.525-1.913,6.624a4.385,4.385,0,0,0,3.894,1.905l.7,2.284,1.109-2.65a5.973,5.973,0,0,0,1.127-.564C396.925,184.7,397.782,181.73,396.423,179.631Z" transform="translate(-340.99 -166.69)" fill="#d90b22" opacity="0.8"/></g><g transform="matrix(1, 0, 0, 1, 338.08, 166.45)" filter="url(#bz)"><path d="M445.359,176.938a5.457,5.457,0,0,1,6.561-2.754c2.679.78,4.087,3.278,3.142,5.58a4.971,4.971,0,0,1-3.487,2.813l-.255,2.293-1.6-2.139a5.829,5.829,0,0,1-1.221-.213C445.823,181.737,444.416,179.24,445.359,176.938Z" transform="translate(-344.62 -166.45)" fill="#d90b22" opacity="0.9"/></g></g></svg>