<svg xmlns="http://www.w3.org/2000/svg" width="150" height="41.5" viewBox="0 0 150 41.5"><g transform="translate(-21 -239)"><g transform="translate(21 239)"><path d="M27.8,256.475c-3.275,0-6.8-2.3-6.8-8.725S24.525,239,27.8,239s6.8,2.3,6.8,8.725S31.1,256.475,27.8,256.475Zm0-14.725c-2.125,0-3.275,2.15-3.275,6.025s1.15,6.025,3.275,6.025,3.275-2.15,3.275-6.025C31.075,243.925,29.925,241.75,27.8,241.75Z" transform="translate(-21 -239)" fill="#aeb0b3"/><path d="M90.9,257.075H87.5V240.1h4.95c3.425,0,5.4,1.9,5.4,5.25s-1.975,5.25-5.4,5.25H90.925v6.475Zm0-9.175h.975c1.75,0,2.575-.775,2.575-2.575,0-1.75-.775-2.525-2.575-2.525H90.9Z" transform="translate(-70.875 -239.825)" fill="#aeb0b3"/><path d="M150.625,257.075H141.3V240.1h9.1v2.775h-5.675v4.05h5.4V249.7h-5.4v4.525h5.9v2.85Z" transform="translate(-111.225 -239.825)" fill="#aeb0b3"/><path d="M205.425,257.075h-3.95l-5.25-12.35v12.35H193.1V240.1h3.95l5.25,12.425V240.1h3.125v16.975Z" transform="translate(-150.075 -239.825)" fill="#aeb0b3"/><path d="M287.675,256.475a7.562,7.562,0,0,1-3.875-.775l-.1-.075.175-3.125.25.175a6.694,6.694,0,0,0,3.425,1,2.148,2.148,0,0,0,2.35-2.225c0-1.05-.55-1.525-2.075-2.35l-1.55-.85a4.832,4.832,0,0,1-2.775-4.525c0-2.35,1.675-4.725,5.425-4.725a10.876,10.876,0,0,1,3.35.55l.3.075-.15,2.925-.4-.15a6.884,6.884,0,0,0-2.85-.625c-1.35,0-2.125.675-2.125,1.775,0,1.15.775,1.55,1.675,2.075l1.775,1c1.925,1.075,2.975,2.15,2.975,4.65C293.425,254.5,291.2,256.475,287.675,256.475Z" transform="translate(-217.875 -239)" fill="#aeb0b3"/><path d="M337.9,256.55c-3.275,0-6.8-2.3-6.8-8.725s3.525-8.725,6.8-8.725,6.8,2.3,6.8,8.725S341.25,256.55,337.9,256.55Zm0-14.725c-2.125,0-3.275,2.15-3.275,6.025s1.15,6.025,3.275,6.025,3.275-2.15,3.275-6.025C341.175,244,340.05,241.825,337.9,241.825Z" transform="translate(-253.575 -239.075)" fill="#aeb0b3"/><path d="M401.7,256.55c-4.825,0-7.8-3.35-7.8-8.725,0-5.325,3.05-8.725,7.725-8.725a11,11,0,0,1,3.75.7l.1.025-.175,3.15-.45-.225a6,6,0,0,0-2.85-.775c-1.35,0-4.5.55-4.5,5.825s3.15,5.825,4.5,5.825a4.7,4.7,0,0,0,3-.825l.25-.175.175,3.225-.1.025A7.519,7.519,0,0,1,401.7,256.55Z" transform="translate(-300.675 -239.075)" fill="#aeb0b3"/><path d="M456.225,257.075H452.8V240.1h3.425Z" transform="translate(-344.85 -239.825)" fill="#aeb0b3"/><path d="M489.125,257.075H479.8V240.1h9.1v2.775h-5.675v4.05h5.35V249.7h-5.4v4.525h5.9l.05,2.85Z" transform="translate(-365.1 -239.825)" fill="#aeb0b3"/><path d="M528.65,257.225h-3.425v-14.15H521.5V240.3h10.825v2.775H528.65v14.15Z" transform="translate(-396.375 -239.975)" fill="#aeb0b3"/><path d="M575.45,257.075h-3.425v-6.8L567,240.1h3.725l3.125,6.4,2.925-6.4H580.5l-5.025,10.25-.025,6.725Z" transform="translate(-430.5 -239.825)" fill="#aeb0b3"/><path d="M27.7,337.8h7.425v1.825h-5.3V344.9h5.05v1.825h-5.05v7.7H27.75C27.7,354.4,27.7,337.8,27.7,337.8Z" transform="translate(-26.025 -313.1)" fill="#aeb0b3"/><path d="M76.925,337.2c3.675,0,6.05,3.15,6.05,8.3,0,5.725-2.3,8.625-6.25,8.625-3.675,0-6.025-3.15-6.025-8.3C70.7,340.1,73,337.2,76.925,337.2Zm-.175,15.225c2.2,0,4.05-1.825,4.05-6.925,0-3.35-1.05-6.575-3.875-6.575-2.2,0-4.05,1.825-4.05,6.925C72.875,349.15,73.925,352.425,76.75,352.425Z" transform="translate(-58.275 -312.65)" fill="#aeb0b3"/><path d="M146.6,348.225a7.429,7.429,0,0,1-.675,3.725,4.8,4.8,0,0,1-4.525,2.575,4.744,4.744,0,0,1-4.525-2.575,7.652,7.652,0,0,1-.675-3.725V337.7h2.075v10.825c0,2.6,1.15,4.275,3.125,4.275s3.125-1.675,3.125-4.275V337.7H146.6v10.525Z" transform="translate(-107.4 -313.025)" fill="#aeb0b3"/><path d="M198.8,337.8h2.6l6.25,13.725h.025V337.8h2v16.625H207.1l-6.25-13.6h-.025v13.6h-2V337.8Z" transform="translate(-154.35 -313.1)" fill="#aeb0b3"/><path d="M263.225,337.8h3.6a7.151,7.151,0,0,1,4.425,1.2c1.475,1.05,3.05,3.125,3.05,6.85,0,4.8-2.275,8.55-8.5,8.55h-2.6l.025-16.6Zm2.125,14.775h1.275c3.675,0,5.575-2.5,5.575-6.775,0-3.45-1.475-6.25-5.575-6.25H265.35Z" transform="translate(-202.65 -313.1)" fill="#aeb0b3"/><path d="M324.275,337.8l5.425,16.625h-2.2l-1.35-4.3h-6.325l-1.35,4.3H316.4l5.575-16.625Zm1.3,10.475-2.575-8.3h-.025l-2.6,8.3Z" transform="translate(-242.55 -313.1)" fill="#aeb0b3"/><path d="M378,339.525h-3.8V337.7h9.7v1.825h-3.8v14.8h-2.125v-14.8Z" transform="translate(-285.9 -313.025)" fill="#aeb0b3"/><path d="M428.6,337.8h2.075v16.625H428.6Z" transform="translate(-326.7 -313.1)" fill="#aeb0b3"/><path d="M460.75,337.2c3.675,0,6.025,3.15,6.025,8.3,0,5.725-2.3,8.625-6.25,8.625-3.675,0-6.025-3.15-6.025-8.3C454.525,340.1,456.85,337.2,460.75,337.2Zm-.2,15.225c2.2,0,4.05-1.825,4.05-6.925,0-3.35-1.05-6.575-3.875-6.575-2.2,0-4.05,1.825-4.05,6.925C456.725,349.15,457.775,352.425,460.55,352.425Z" transform="translate(-346.125 -312.65)" fill="#aeb0b3"/><path d="M520.2,337.8h2.6l6.25,13.725h.025V337.8h2v16.625h-2.6l-6.25-13.6H522.2v13.6h-2Z" transform="translate(-395.4 -313.1)" fill="#aeb0b3"/><path d="M589.175,339.9a5.62,5.62,0,0,0-2.825-.775,2.457,2.457,0,0,0-2.6,2.5c0,1.075.4,1.75,2.775,3.125,2.575,1.475,3.425,2.925,3.425,4.825a4.448,4.448,0,0,1-4.825,4.725,8.436,8.436,0,0,1-3.45-.7v-2.15a7.288,7.288,0,0,0,3.15,1.075,2.672,2.672,0,0,0,2.925-2.6c0-1.3-.325-2-2.575-3.375-3-1.825-3.675-2.825-3.675-4.975,0-2.75,2.075-4.175,4.6-4.175a8.133,8.133,0,0,1,3,.55l.075,1.95Z" transform="translate(-441.375 -312.8)" fill="#aeb0b3"/></g></g></svg>