<?xml version="1.0" encoding="UTF-8" standalone="no"?><!DOCTYPE svg PUBLIC "-//W3C//DTD SVG 1.1//EN" "http://www.w3.org/Graphics/SVG/1.1/DTD/svg11.dtd"><svg width="100%" height="100%" viewBox="0 0 31 31" version="1.1" xmlns="http://www.w3.org/2000/svg" xmlns:xlink="http://www.w3.org/1999/xlink" xml:space="preserve" xmlns:serif="http://www.serif.com/" style="fill-rule:evenodd;clip-rule:evenodd;stroke-miterlimit:10;"><g><g><g><path d="M29.63,15.332c0,7.908 -6.411,14.318 -14.319,14.318c-7.907,0 -14.318,-6.41 -14.318,-14.318c0,-7.908 6.411,-14.318 14.318,-14.318c7.908,0 14.319,6.41 14.319,14.318Z" style="fill:none;fill-rule:nonzero;stroke:#231f20;stroke-width:2px;"/></g><g><g><path d="M15.309,8.834c1.062,0 1.922,-0.861 1.922,-1.922c0,-1.062 -0.86,-1.922 -1.922,-1.922c-1.061,0 -1.922,0.86 -1.922,1.922c0,1.061 0.861,1.922 1.922,1.922Z" style="fill:none;fill-rule:nonzero;stroke:#231f20;stroke-width:1px;"/></g><g><path d="M23.799,8.846c-0.265,-0.421 -0.822,-0.554 -1.28,-0.36l-4.253,1.803c-0.212,0.09 -0.439,0.136 -0.67,0.136l-4.58,0c-0.23,0 -0.458,-0.046 -0.67,-0.136l-4.253,-1.803c-0.458,-0.194 -1.015,-0.061 -1.28,0.36c-0.338,0.536 -0.106,1.221 0.452,1.458l4.223,1.791c0.634,0.269 1.047,0.891 1.047,1.58l0,4.259c0,0.407 -0.072,0.81 -0.214,1.192l-1.922,5.198c-0.214,0.568 0.124,1.207 0.745,1.332c0.488,0.097 0.968,-0.215 1.143,-0.681l2.199,-5.858c0.129,-0.342 0.455,-0.568 0.82,-0.568l0,0c0.365,0 0.692,0.226 0.82,0.568l2.2,5.858c0.175,0.466 0.655,0.778 1.143,0.68c0.62,-0.124 0.958,-0.763 0.745,-1.331l-1.924,-5.198c-0.14,-0.382 -0.212,-0.785 -0.212,-1.192l0,-4.259c0,-0.689 0.412,-1.311 1.046,-1.58l4.224,-1.791c0.558,-0.237 0.789,-0.922 0.451,-1.458Z" style="fill:none;fill-rule:nonzero;stroke:#231f20;stroke-width:1px;"/></g></g></g></g></svg>