<svg xmlns="http://www.w3.org/2000/svg" width="119.3" height="143.367" viewBox="0 0 119.3 143.367"><g transform="translate(-740 -3460)"><g transform="translate(755.895 3460)"><path d="M411.24,470.586,400.5,475.075l-7.74-8.7L382.5,472.284l-8.81-7.364-9.081,7.364-10.121-6.53-7.239,9.07-10.989-5.331-6.325,11.525,8.458,19.126.229-.084A98.926,98.926,0,0,1,372.23,494a97.48,97.48,0,0,1,36.272,7.135l.229.091,8.825-19Zm-2.776,29.97a98.1,98.1,0,0,0-36.234-7.074,99.439,99.439,0,0,0-33.553,6l-8.152-18.43,5.953-10.867,10.92,5.3,7.2-9.024,10.038,6.47,9.047-7.327,8.756,7.327,10.21-5.888,7.7,8.664,10.653-4.451,5.961,10.989Z" transform="translate(-329.936 -464.92)" fill="#aeb0b3"/></g><g transform="translate(773.274 3462.111)"><path d="M370.156,497.613l-4.072-19.271,7.444-9.032.088.053,9.965,6.164,1.362,20-.123.008a82.342,82.342,0,0,0-14.542,2.057Zm-3.816-19.2,4,18.92a82.2,82.2,0,0,1,14.343-2.034l-1.335-19.631-9.77-6.041Z" transform="translate(-366.084 -469.31)" fill="#aeb0b3"/></g><g transform="translate(821.529 3466.936)"><path d="M478.941,507.7l-.111-.038a74.968,74.968,0,0,0-12.262-4.083l-.115-.023,4.558-19.975.058-.023,10.633-4.206.05.092,5.445,10.285-.027.054Zm-12.2-4.328a75.4,75.4,0,0,1,12.076,4.023l8.114-17.658-5.342-10.087-10.374,4.107Z" transform="translate(-466.453 -479.347)" fill="#aeb0b3"/></g><g transform="translate(775.385 3478.011)"><path d="M386.674,507.68c-4.875-.237-7.64-.351-15.13,2.294l-1.071-5.055c4.994-2.164,9-2.876,15.865-2.393Z" transform="translate(-370.473 -502.382)" fill="#aeb0b3"/></g><g transform="translate(829.712 3471.318)"><path d="M490.164,494.9l-2.046-.405-1.87,1.468-.581-2.233-2.2-.933,1.805-1.636-.318-2.08,2.137.627,1.633-1.247.547,1.988,2.1,1.033-1.457,1.369Z" transform="translate(-483.473 -488.461)" fill="#aeb0b3"/></g><g transform="translate(829.689 3471.303)"><path d="M486.212,495.969l-.008-.023-.574-2.225-2.206-.941.015-.015,1.8-1.629-.325-2.088h.019l2.129.627,1.652-1.247.008.015.539,1.981,2.118,1.04-.015.015-1.457,1.361.245,2.057-.019-.008-2.042-.4Zm-2.741-3.2,2.179.932h.008l.57,2.218,1.862-1.461h0l2.03.4-.241-2.026.008-.008,1.442-1.353-2.092-1.032h0l-.539-1.973-1.629,1.239h-.008l-2.114-.627.318,2.073h-.008Z" transform="translate(-483.425 -488.429)" fill="#9fa1a4"/></g><g transform="translate(773.404 3468.535)"><path d="M383.959,487.712a33.225,33.225,0,0,0-16.591,2.4l-1.013-4.8a30.574,30.574,0,0,1,17.283-2.271Z" transform="translate(-366.354 -482.672)" fill="#aeb0b3"/></g><g transform="translate(790.526 3461.269)"><path d="M418.368,494.869l-.123-.015c-2.933-.29-5.762-.428-8.649-.428-1.988,0-4,.061-6.145.2l-.122.008-1.362-20.006.054-.038,9.07-7.028,8.771,7.28-.007.061Zm-8.772-.688c2.856,0,5.652.138,8.55.421l1.468-19.654-8.527-7.074-8.867,6.867,1.334,19.631C405.662,494.242,407.643,494.181,409.6,494.181Z" transform="translate(-401.968 -467.56)" fill="#aeb0b3"/></g><g transform="translate(792.064 3468.167)"><path d="M406.428,482.206c-.359.306,1.086,1.331.662,1.568l-.784-.237.123,1.078-.723-.237.061,1.139-.6.6.6.176v.665l.421.123v.542l.841-.183.118.9.486-.3.3.359.486.543.477-.543.3-.359.482.3.119-.9.845.183v-.542l.421-.123V486.3l.6-.176-.6-.6.062-1.139-.727.237.123-1.078-.78.237c-.421-.237,1.025-1.262.657-1.568l-1.139.788-.841-1.086-.784.963Z" transform="translate(-405.166 -481.908)" fill="#aeb0b3"/></g><g transform="translate(793.374 3470.332)"><path d="M409.846,489.422a1.083,1.083,0,0,1-.7-.275l.046-.054a1,1,0,0,0,1.339,0l.046.054A1.219,1.219,0,0,1,409.846,489.422Zm.076-.3h-.065v-.466c-.019.008-.026,0-.042,0-.249-.03-.375-.352-.383-.367l.065-.023s.118.3.325.321h.034v-.008h.065a.722.722,0,0,0,.36-.321l.057.038a.77.77,0,0,1-.417.352Zm1.308-.4-.035-.053c.371-.222.474-.4.5-.513a.225.225,0,0,0-.023-.161l.05-.046a.263.263,0,0,1,.042.214C411.727,488.359,411.551,488.543,411.23,488.726Zm-2.8-.115c-.317-.191-.5-.375-.532-.558a.326.326,0,0,1,.038-.222l.053.046a.226.226,0,0,0-.023.161c.019.114.123.29.5.512Zm2.1-.841a.321.321,0,0,1-.333-.306.3.3,0,0,1,.153-.26h0a.771.771,0,0,1-.444-.513c-.057.375-.234.5-.386.551a.484.484,0,0,1-.1.015.3.3,0,0,1,.088.207.336.336,0,0,1-.669,0,.306.306,0,0,1,.211-.283,1.055,1.055,0,0,1-.44-.329c-.035-.061-.015-.092,0-.107l.049.054,0-.008c0,.023.061.114.234.222a.994.994,0,0,0,.3.145l.111.023a.454.454,0,0,0,.283-.038c.18-.1.275-.344.275-.734h.065a.8.8,0,0,0,.444.726.669.669,0,0,0,.119.031.165.165,0,0,1,.061-.008,1.061,1.061,0,0,0,.638-.466l.053.038a1.3,1.3,0,0,1-.547.466.309.309,0,0,1,.176.268A.322.322,0,0,1,410.53,487.771Zm-.042-.536a.242.242,0,0,0-.222.23.267.267,0,1,0,.283-.237A.159.159,0,0,1,410.488,487.235Zm-1.323-.008a.238.238,0,1,0,0,.474.256.256,0,0,0,.268-.237.237.237,0,0,0-.153-.214l-.1-.023Z" transform="translate(-407.891 -486.409)" fill="#1a1a1a"/></g><g transform="translate(800.128 3468.243)"><path d="M423.2,482.365c-.36.306,1.082,1.331.665,1.568l-.784-.237.119,1.078-.722-.237.061,1.139-.6.6.6.176v.665l.42.122v.543l.845-.184.119.9.481-.3.3.359.482.543.482-.543.3-.359.478.3.122-.9.841.184v-.543l.42-.122v-.665l.6-.176-.6-.6.065-1.139-.726.237.122-1.078-.784.237c-.421-.237,1.021-1.262.662-1.568l-1.143.788-.841-1.086-.784.964Z" transform="translate(-421.939 -482.066)" fill="#aeb0b3"/></g><g transform="translate(801.438 3470.408)"><path d="M426.616,489.582a1.065,1.065,0,0,1-.7-.275l.042-.054a1.022,1.022,0,0,0,1.342,0l.046.054A1.228,1.228,0,0,1,426.616,489.582Zm.08-.3h-.069v-.466c-.015.007-.027,0-.035,0-.249-.031-.375-.351-.383-.367l.065-.023s.114.3.325.321h.027v-.008h.069a.727.727,0,0,0,.36-.322l.057.038a.76.76,0,0,1-.417.352Zm1.308-.4-.034-.053c.375-.222.477-.4.5-.513a.213.213,0,0,0-.026-.161l.053-.046a.287.287,0,0,1,.042.214C428.5,488.519,428.321,488.7,428,488.886Zm-2.8-.114c-.321-.192-.5-.375-.535-.559a.293.293,0,0,1,.042-.222l.054.046a.191.191,0,0,0-.027.16c.023.115.126.291.5.513Zm2.1-.842a.321.321,0,0,1-.336-.306.3.3,0,0,1,.156-.26h-.007a.79.79,0,0,1-.444-.513c-.053.375-.229.5-.383.551a.506.506,0,0,1-.107.015.3.3,0,0,1,.088.206.336.336,0,0,1-.669,0,.305.305,0,0,1,.213-.283,1.074,1.074,0,0,1-.443-.329c-.031-.062-.015-.092,0-.107l.046.054v-.008c0,.023.065.115.233.222a1.1,1.1,0,0,0,.31.145l.108.023a.472.472,0,0,0,.287-.038c.179-.1.268-.344.268-.734h.069a.792.792,0,0,0,.447.726.339.339,0,0,0,.119.031.158.158,0,0,1,.058-.008,1.045,1.045,0,0,0,.642-.466l.054.038a1.3,1.3,0,0,1-.551.466.309.309,0,0,1,.176.268A.32.32,0,0,1,427.307,487.93Zm-.038-.535a.241.241,0,0,0-.229.229.267.267,0,1,0,.283-.237A.137.137,0,0,1,427.269,487.395Zm-1.327-.007a.238.238,0,1,0,.264.237.239.239,0,0,0-.153-.214l-.1-.023Z" transform="translate(-424.664 -486.569)" fill="#1a1a1a"/></g><g transform="translate(796.216 3475.662)"><path d="M415.064,497.794c-.359.306,1.086,1.331.662,1.568l-.78-.237.119,1.078-.723-.237.062,1.139-.6.6.6.184v.658l.42.122v.543l.841-.184.123.9.481-.3.3.359.482.543.478-.543.3-.359.482.3.118-.9.845.184v-.543l.421-.122v-.658l.6-.184-.6-.6.061-1.139-.723.237.119-1.078-.78.237c-.421-.237,1.025-1.262.661-1.568l-1.143.788-.841-1.086-.784.964Z" transform="translate(-413.802 -497.496)" fill="#aeb0b3"/></g><g transform="translate(797.529 3477.826)"><path d="M418.485,505.01a1.086,1.086,0,0,1-.7-.275l.05-.053a1.007,1.007,0,0,0,1.338,0l.042.053A1.208,1.208,0,0,1,418.485,505.01Zm.076-.3H418.5v-.467c-.015.008-.026,0-.042,0-.249-.031-.375-.351-.383-.367l.065-.023s.118.3.325.321h.034v-.008h.065a.727.727,0,0,0,.36-.321l.058.038a.768.768,0,0,1-.417.352Zm1.308-.39-.034-.061c.371-.222.474-.4.5-.513a.222.222,0,0,0-.023-.161l.054-.046a.29.29,0,0,1,.038.214C420.367,503.948,420.191,504.131,419.869,504.323Zm-2.8-.122c-.317-.191-.5-.375-.528-.559a.272.272,0,0,1,.035-.214l.058.038a.219.219,0,0,0-.027.168c.024.107.126.29.5.5Zm2.1-.841a.32.32,0,0,1-.332-.306.284.284,0,0,1,.152-.252l0-.008a.779.779,0,0,1-.443-.513c-.058.375-.233.513-.387.55a.415.415,0,0,1-.1.015.3.3,0,0,1,.088.206.336.336,0,0,1-.669,0,.307.307,0,0,1,.21-.283,1.057,1.057,0,0,1-.439-.329c-.035-.061-.015-.091,0-.1l.05.046s0-.008,0-.008c0,.023.062.115.233.229a1.266,1.266,0,0,0,.306.138l.108.023a.4.4,0,0,0,.283-.038c.179-.1.275-.344.275-.734h.065a.816.816,0,0,0,.444.734.787.787,0,0,0,.123.023.139.139,0,0,1,.057-.008,1,1,0,0,0,.638-.466l.058.038a1.262,1.262,0,0,1-.551.467.312.312,0,0,1,.18.267A.325.325,0,0,1,419.17,503.359Zm-.035-.536a.244.244,0,0,0-.229.229.253.253,0,0,0,.264.237.238.238,0,1,0,.015-.474A.121.121,0,0,1,419.135,502.823Zm-1.33-.007a.238.238,0,1,0,0,.474.256.256,0,0,0,.267-.237.237.237,0,0,0-.152-.213.562.562,0,0,1-.1-.023Z" transform="translate(-416.532 -501.998)" fill="#1a1a1a"/></g><g transform="translate(757.016 3466.088)"><path d="M340.04,505.579,332.266,487.6l.031-.054,5.594-9.964.1.046,10.771,4.955.008.061,4.064,19.21-.114.031a101.375,101.375,0,0,0-12.568,3.648Zm-7.506-17.964,7.636,17.657a101.308,101.308,0,0,1,12.377-3.594l-4-18.928L337.99,477.9Z" transform="translate(-332.266 -477.582)" fill="#aeb0b3"/></g><path d="M347.606,497.266l-1.747-1.147-2.287.665.3-2.286-1.686-1.69,2.29-.841.482-2.042,1.748,1.384,1.984-.543-.241,2.042,1.564,1.751-1.866.719Z" transform="translate(419.6 2982.097)" fill="#aeb0b3"/><g transform="translate(762.686 3480.082)"><path d="M354.9,506.69c-.18,1.866-3.732,6.745-10.836,3.915,6.925,5.957,12.163-.123,10.836-3.915" transform="translate(-344.061 -506.69)" fill="#aeb0b3" fill-rule="evenodd"/></g><g transform="translate(762.679 3480.082)"><path d="M349.727,513.122h0a6.914,6.914,0,0,1-2.677-.582,11.666,11.666,0,0,1-3.005-1.927l.015-.023a11.112,11.112,0,0,0,4.1.864h0a7.211,7.211,0,0,0,4.94-1.836,5.187,5.187,0,0,0,1.774-2.929h.027a4.687,4.687,0,0,1-.765,4.145A5.346,5.346,0,0,1,349.727,513.122Zm-5.6-2.478a8.857,8.857,0,0,0,5.6,2.447,5.317,5.317,0,0,0,4.389-2.271,4.663,4.663,0,0,0,.78-4.061,5.352,5.352,0,0,1-1.774,2.883,7.259,7.259,0,0,1-4.959,1.843h0A10.987,10.987,0,0,1,344.129,510.643Z" transform="translate(-344.045 -506.69)" fill="#9fa1a4"/></g><g transform="translate(822.497 3485.52)"><path d="M481.351,524.5l.875-1.813C478.7,521.113,472.755,518.3,468.9,518l-.44,1.919c4.512.6,11.88,3.9,12.886,4.581" transform="translate(-468.465 -518)" fill="#aeb0b3"/></g><g transform="translate(824.198 3477.742)"><path d="M486.37,509.278l.887-2.034c-2.305-1.392-11.669-5.116-14.744-5.422-.18.842-.509,2.241-.509,2.241,2.944.161,11.426,3.656,14.366,5.215" transform="translate(-472.004 -501.822)" fill="#aeb0b3"/></g><g transform="translate(824.107 3482.193)"><path d="M474.077,511.5c.1.092.47-.382.6-.3.409.245.681,1.009,1.147,1.2,1.113.466,1.931.015,3.067.421a6.891,6.891,0,0,1,2.891,1.8,7.538,7.538,0,0,1,2.768.237l-.061.727a5.1,5.1,0,0,0-2.406-.184l.421.665.18,1.446-.963.061-.062-.841-1.025-.788a9.582,9.582,0,0,0-2.646.061l.118-.719a7,7,0,0,0,1.507-.543,3.534,3.534,0,0,0-4.512-.245c-2.891.421-2.168-.482-2.168-.482l.9-.535c-2.466.421-1.985-.727-1.985-.727h1.924l-1.266-.9s1.086-.176,1.388-.78c.141.161.042.3.18.421" transform="translate(-471.814 -511.08)" fill="#aeb0b3"/></g><g transform="translate(829.379 3484.906)"><path d="M485.308,517.68a3.754,3.754,0,0,0-2.527-.956c0,1.254,2.527.956,2.527.956" transform="translate(-482.781 -516.723)" fill="#aeb0b3" fill-rule="evenodd"/></g><g transform="translate(806.8 3462.73)"><path d="M450.7,498.932h-.015a95.6,95.6,0,0,0-14.855-2.608h-.015v-.016l1.484-19.845,0-.008,10.141-5.858.007.008,7.77,8.512,0,.008ZM435.848,496.3a95.364,95.364,0,0,1,14.832,2.6l4.512-19.776-7.751-8.489-10.118,5.842Z" transform="translate(-435.817 -470.598)" fill="#9fa1a4"/></g><g transform="translate(806.686 3462.593)"><path d="M450.656,498.913l-.118-.03a96.306,96.306,0,0,0-14.84-2.6l-.118-.015,1.495-20.021.054-.03,10.216-5.9,7.869,8.626L455.2,479Zm-14.817-2.86a96.551,96.551,0,0,1,14.637,2.562l4.477-19.608-7.659-8.39-9.991,5.774Z" transform="translate(-435.579 -470.312)" fill="#aeb0b3"/></g><g transform="translate(811.381 3472.371)"><path d="M445.345,491.923a4.339,4.339,0,0,1,2.589-1.262c2.168-.123.78.964,5,.482,0,1.262-2.948.9-2.948.9,2.825,1.927,2.283,1.2,3.789,1.139a3.36,3.36,0,0,1-2.046.963c-1.143.123-2.409-1.919-3.854-1.262l-.6-.6-.784-.053-.3-.367Z" transform="translate(-445.345 -490.652)" fill="#aeb0b3"/></g><g transform="translate(811.381 3472.371)"><path d="M445.345,491.923a4.339,4.339,0,0,1,2.589-1.262c2.168-.123.78.964,5,.482,0,1.262-2.948.9-2.948.9,2.825,1.927,2.283,1.2,3.789,1.139a3.36,3.36,0,0,1-2.046.963c-1.143.123-2.409-1.919-3.854-1.262l-.6-.6-.784-.053-.3-.367Z" transform="translate(-445.345 -490.652)" fill="none"/></g><g transform="translate(812.364 3472.45)"><path d="M452.654,494.127l-.069-.015a3.344,3.344,0,0,0,.023-.834l.069-.008A3.555,3.555,0,0,1,452.654,494.127Zm-1.159-.6-.069-.015a3.366,3.366,0,0,0,.026-.834l.069-.008A3.55,3.55,0,0,1,451.5,493.523Zm-1.09-.665a4.334,4.334,0,0,0-.746-2l.054-.038a4.285,4.285,0,0,1,.761,2.034Zm-1.441-.053c-.295-.818-1.564-1.331-1.576-1.331l.023-.068c.053.023,1.315.527,1.617,1.376Zm.478-.13a2.373,2.373,0,0,0-1.063-1.721l.031-.054a2.372,2.372,0,0,1,1.1,1.767Zm2.776-.658-.069-.008a.449.449,0,0,0-.111-.359.6.6,0,0,1-.126-.3l.069-.008a.5.5,0,0,0,.119.268A.513.513,0,0,1,452.218,492.016Zm-.895-.061a3.624,3.624,0,0,0-.191-.528l.061-.031a2.964,2.964,0,0,1,.2.543Z" transform="translate(-447.389 -490.816)" fill="#1a1a1a"/></g><g transform="translate(809.458 3473.521)"><path d="M443.268,493.164l-.482.482-1.082-.6c-.662,1.331.482,1.568.482,1.568l-.841,1.744.539.543.9-.114s-.841.9.123,1.323c0,0-1.927.719-.723,1.621,0,0,.845.78-.723,3.434l.841.42s.482-1.568,1.265-1.866l.723-.061s-.062,1.323-.6,1.743c0,0,.245,1.262-.482,1.805l1.2.42.061-1.262.662-.6V503.1l.784-.781,2.287.054a1.11,1.11,0,0,1-.661,1.147l-.149.78.692.306c.841-.665.723-1.147.723-1.147a2.12,2.12,0,0,0,.9-1.086l.841.543a3.693,3.693,0,0,1-.6,2.348l.838.359.367-.237v-.421l1.2-1.8.6-.184-.723-.421v-.36l.6-1.086-.543.3.062-1.139c1.147-.963.6-1.384.6-1.384l.543-1.086-.6.245.241-1.147-.9.6a2.915,2.915,0,0,0-2.47-.245,18.105,18.105,0,0,0-2.409.061c-1.981-.061-1.683-.841-1.683-.841l.3-.543-.665-.3c1.388-.481.788-.78.788-.78l.417-.245h-.6l-.122-.482-.6-.6-.784-.053-.3-.367Z" transform="translate(-441.345 -493.042)" fill="#aeb0b3" fill-rule="evenodd"/></g><g transform="translate(809.458 3473.521)"><path d="M443.268,493.164l-.482.482-1.082-.6c-.662,1.331.482,1.568.482,1.568l-.841,1.744.539.543.9-.114s-.841.9.123,1.323c0,0-1.927.719-.723,1.621,0,0,.845.78-.723,3.434l.841.42s.482-1.568,1.265-1.866l.723-.061s-.062,1.323-.6,1.743c0,0,.245,1.262-.482,1.805l1.2.42.061-1.262.662-.6V503.1l.784-.781,2.287.054a1.11,1.11,0,0,1-.661,1.147l-.149.78.692.306c.841-.665.723-1.147.723-1.147a2.12,2.12,0,0,0,.9-1.086l.841.543a3.693,3.693,0,0,1-.6,2.348l.838.359.367-.237v-.421l1.2-1.8.6-.184-.723-.421v-.36l.6-1.086-.543.3.062-1.139c1.147-.963.6-1.384.6-1.384l.543-1.086-.6.245.241-1.147-.9.6a2.915,2.915,0,0,0-2.47-.245,18.105,18.105,0,0,0-2.409.061c-1.981-.061-1.683-.841-1.683-.841l.3-.543-.665-.3c1.388-.481.788-.78.788-.78l.417-.245h-.6l-.122-.482-.6-.6-.784-.053-.3-.367Z" transform="translate(-441.345 -493.042)" fill="none"/></g><g transform="translate(809.037 3483.638)"><path d="M442.03,515.05a1.193,1.193,0,0,1-1.56.061l.539-1.025.841.42s-.723.36.18.543" transform="translate(-440.47 -514.087)" fill="#aeb0b3"/></g><g transform="translate(810.749 3485.68)"><path d="M445.687,519.3s-1.025.482-1.629,0c-.18-.36.543-.963.543-.963l1.2.42s-.6.123-.118.543" transform="translate(-444.029 -518.334)" fill="#aeb0b3"/></g><g transform="translate(814.758 3484.778)"><path d="M453.748,517.42a1.917,1.917,0,0,1-1.323-.061c-.3-.6.692-.9.692-.9l.692.306s-.482.3-.061.658" transform="translate(-452.368 -516.457)" fill="#aeb0b3"/></g><g transform="translate(817.342 3485.741)"><path d="M458.949,519.547a1.234,1.234,0,0,1-1.148-.061c-.3-.6.665-1.025.665-1.025l.838.359a.793.793,0,0,0-.355.726" transform="translate(-457.744 -518.461)" fill="#aeb0b3"/></g><g transform="translate(810.955 3475.647)"><path d="M450.506,504.776a.942.942,0,0,1-.462-.138l.038-.053a.7.7,0,0,0,.918-.115l.054.046A.714.714,0,0,1,450.506,504.776Zm-2.447-.313a.942.942,0,0,1-.493-1.254l.061.031a.866.866,0,0,0,.466,1.163Zm-3.445-.322a1.717,1.717,0,0,1-.061-1.285l.065.023a1.682,1.682,0,0,0,.061,1.239Zm6.145-.053a1.038,1.038,0,0,1-.061-1.3l.053.038a.966.966,0,0,0,.062,1.224Zm1.877-.168a1.388,1.388,0,0,1-.738-1.116h.069a1.322,1.322,0,0,0,.7,1.055Zm-3.621-.122a1.206,1.206,0,0,1-.489-.994l.068.008a1.166,1.166,0,0,0,.471.933Zm.719-.076a1.43,1.43,0,0,1,.061-1.293l.054.038a1.4,1.4,0,0,0-.054,1.231Zm-4.157-.237a.692.692,0,0,1-.019-.612.637.637,0,0,1,.405-.283l.012.068a.6.6,0,0,0-.36.253.622.622,0,0,0,.027.543Zm-.359-1.086c-.249-.5.4-1.094.425-1.125l.049.054c-.008.007-.638.589-.413,1.04Zm3.575-.252h-.069a.822.822,0,0,0-.478-.872l.019-.061A.869.869,0,0,1,448.793,502.145Zm3.862-.023a.357.357,0,0,1-.126-.015.713.713,0,0,1-.451-.367l.061-.03a.686.686,0,0,0,.405.336.9.9,0,0,0,.746-.29l.046.053A1.068,1.068,0,0,1,452.655,502.122Zm-5.751-.084a1.7,1.7,0,0,1-.061-1.292l.061.031a1.644,1.644,0,0,0,.058,1.231Zm3.613-.138h-.065a.715.715,0,0,0-.635-.75l.008-.062A.777.777,0,0,1,450.517,501.9Zm1.2-.818-.057-.038a.994.994,0,0,1,1.063-.26l-.027.069A.9.9,0,0,0,451.718,501.082Zm-5.716-.55-.061-.023a.929.929,0,0,0-.29-1.163l.034-.061A1,1,0,0,1,446,500.531Zm-.845-2.463a.708.708,0,0,1-.046-.076.684.684,0,0,1-.363-.092l.034-.061a.6.6,0,0,0,.29.084.486.486,0,0,1-.061-.329c0-.008,0-.015.008-.023a3.168,3.168,0,0,0-.425.03l-.015-.069a2.543,2.543,0,0,1,.478-.023.1.1,0,0,1,.057-.046l.023.046-.012-.015.012.015a.834.834,0,0,1,.432.152l-.042.054a.752.752,0,0,0-.44-.138.1.1,0,0,0-.007.031.419.419,0,0,0,.073.313.812.812,0,0,0,.439-.146l.035.062a.964.964,0,0,1-.436.153.105.105,0,0,0,.027.038Z" transform="translate(-444.459 -497.465)" fill="#1a1a1a"/></g><g transform="translate(765.095 3498.138)"><g transform="translate(27.45)"><rect width="13.601" height="14.331" fill="#aeb0b3"/></g><g transform="translate(4.806 59.352)"><path d="M367.867,676.841V667.7h-8.8A32.012,32.012,0,0,0,367.867,676.841Z" transform="translate(-359.068 -667.695)" fill="#aeb0b3"/></g><g transform="translate(27.447 29.733)"><rect width="13.605" height="14.331" fill="#aeb0b3"/></g><g transform="translate(0 29.734)"><path d="M349.071,618.853c0,.528.015,1.048.042,1.568h13.563V606.09h-13.6Z" transform="translate(-349.071 -606.09)" fill="#aeb0b3"/></g><g transform="translate(13.724 14.928)"><rect width="13.601" height="14.331" fill="#aeb0b3"/></g><g transform="translate(13.605 44.546)"><rect width="13.601" height="14.324" fill="#aeb0b3"/></g><g transform="translate(0)"><rect width="13.605" height="14.331" fill="#aeb0b3"/></g><g transform="translate(55.134 29.734)"><path d="M477.35,619.213V606.09h-13.6v14.331h13.574C477.338,620.023,477.35,619.618,477.35,619.213Z" transform="translate(-463.748 -606.09)" fill="#aeb0b3"/></g><g transform="translate(55.134)"><rect width="13.601" height="14.331" fill="#aeb0b3"/></g><g transform="translate(54.889 59.352)"><path d="M463.239,667.7v9.857A29.342,29.342,0,0,0,472.8,667.7Z" transform="translate(-463.239 -667.695)" fill="#aeb0b3"/></g><g transform="translate(41.17 44.546)"><rect width="13.605" height="14.324" fill="#aeb0b3"/></g><g transform="translate(27.45 59.352)"><path d="M419.768,682.6V667.7h-13.6v14.8a38.735,38.735,0,0,0,6.86.612A44.666,44.666,0,0,0,419.768,682.6Z" transform="translate(-406.167 -667.695)" fill="#aeb0b3"/></g><g transform="translate(41.17 14.928)"><rect width="13.605" height="14.331" fill="#aeb0b3"/></g></g><g transform="translate(763.894 3496.83)"><path d="M346.574,541.525v43.988c0,19.057,15.574,33.388,35.507,33.388,21.306,0,35.633-13.581,35.633-33.014V541.525Z" transform="translate(-346.574 -541.525)" fill="none"/></g><g transform="translate(763.562 3496.509)"><path d="M381.722,618.884a37.027,37.027,0,0,1-25.455-9.636,32.593,32.593,0,0,1-10.385-24.082V540.857h71.8v44.676c0,9.667-3.434,17.979-9.934,24.044C401.223,615.664,392.222,618.884,381.722,618.884Zm-35.178-77.377v43.659c0,18.843,15.123,33.06,35.178,33.06,21.119,0,35.3-13.139,35.3-32.693V541.507Z" transform="translate(-345.882 -540.857)" fill="#aeb0b3"/></g><g transform="translate(740 3585.188)"><path d="M300.8,726.835a2.819,2.819,0,0,0,.1-.329,1.345,1.345,0,0,0,.039-.328.439.439,0,0,0-.111-.322.5.5,0,0,0-.333-.13v-.276h1.828v.276a.7.7,0,0,0-.272.107.75.75,0,0,0-.2.222,2.771,2.771,0,0,0-.214.482l-1.778,4.734h-.979l-1.4-4.757a3.836,3.836,0,0,0-.153-.451.664.664,0,0,0-.168-.214.767.767,0,0,0-.283-.123v-.276h2.348v.276a.644.644,0,0,0-.329.123.36.36,0,0,0-.107.275,1.316,1.316,0,0,0,.026.275c.019.091.05.237.108.428l.837,3.043Z" transform="translate(-296.874 -725.382)" fill="#aeb0b3"/><path d="M311.224,725.451v.276a1.338,1.338,0,0,0-.245.092.344.344,0,0,0-.138.137.457.457,0,0,0-.062.214,2.829,2.829,0,0,0-.015.337v4.229h.822a.835.835,0,0,0,.394-.076.752.752,0,0,0,.256-.238,1.465,1.465,0,0,0,.187-.413c.05-.176.1-.337.122-.482h.585l-.1,1.713h-4.041v-.283a1.094,1.094,0,0,0,.249-.092.328.328,0,0,0,.134-.137.516.516,0,0,0,.058-.222,2.854,2.854,0,0,0,.015-.336v-3.656c0-.13,0-.237-.011-.329a.549.549,0,0,0-.058-.222.271.271,0,0,0-.134-.137,1,1,0,0,0-.252-.1v-.276Z" transform="translate(-303.168 -725.382)" fill="#aeb0b3"/><path d="M321.487,729.41h-1.809l-.145.406c-.035.114-.069.222-.092.328a1.393,1.393,0,0,0-.042.337.405.405,0,0,0,.44.444v.283H318.03v-.283a.5.5,0,0,0,.276-.107.782.782,0,0,0,.214-.26,2.46,2.46,0,0,0,.211-.459l1.766-4.711h1.132l1.4,4.749a3.4,3.4,0,0,0,.153.451.6.6,0,0,0,.168.214.671.671,0,0,0,.283.123v.283H321.3v-.283a.607.607,0,0,0,.329-.123.36.36,0,0,0,.1-.275,1.388,1.388,0,0,0-.031-.291c-.019-.107-.053-.245-.1-.4Zm-1.652-.5h1.529l-.681-2.386Z" transform="translate(-307.859 -725.35)" fill="#aeb0b3"/><path d="M332.93,725.451a5.709,5.709,0,0,1,1.186.107,2.673,2.673,0,0,1,.841.352,2.014,2.014,0,0,1,.6.565,2.416,2.416,0,0,1,.336.765,3.991,3.991,0,0,1,.111.979,4.058,4.058,0,0,1-.157,1.186,2.524,2.524,0,0,1-.463.9,2.275,2.275,0,0,1-.676.551,3,3,0,0,1-.922.306,7.551,7.551,0,0,1-1.132.076h-1.926v-.283a1.089,1.089,0,0,0,.248-.092.29.29,0,0,0,.134-.137.546.546,0,0,0,.058-.214,2.837,2.837,0,0,0,.015-.337v-3.663c0-.13,0-.237-.012-.329a.5.5,0,0,0-.057-.222.274.274,0,0,0-.134-.137.991.991,0,0,0-.252-.1v-.276Zm-.436,5.277c.046.007.179.007.386.007a1.862,1.862,0,0,0,.784-.137,1.143,1.143,0,0,0,.4-.276,1.9,1.9,0,0,0,.416-.757,4.365,4.365,0,0,0,.153-1.247,3.582,3.582,0,0,0-.218-1.339,1.615,1.615,0,0,0-.608-.78,1.7,1.7,0,0,0-.94-.252c-.176,0-.3,0-.375.008Z" transform="translate(-314.45 -725.382)" fill="#aeb0b3"/><path d="M345.322,729.41h-1.809l-.141.406a3.1,3.1,0,0,0-.1.328,1.369,1.369,0,0,0-.038.337.4.4,0,0,0,.439.444v.283h-1.812v-.283a.5.5,0,0,0,.275-.107.832.832,0,0,0,.218-.26,2.465,2.465,0,0,0,.206-.459l1.771-4.711h1.128l1.4,4.749a3.281,3.281,0,0,0,.157.451.558.558,0,0,0,.168.214.625.625,0,0,0,.283.123v.283h-2.34v-.283a.594.594,0,0,0,.325-.123.362.362,0,0,0,.107-.275,1.382,1.382,0,0,0-.035-.291,3.783,3.783,0,0,0-.091-.4Zm-1.651-.5H345.2l-.681-2.386Z" transform="translate(-320.235 -725.35)" fill="#aeb0b3"/><path d="M360.769,731.24h-2.225v-.283a1.055,1.055,0,0,0,.245-.092.285.285,0,0,0,.137-.137.555.555,0,0,0,.057-.214c.008-.092.012-.207.012-.337v-3.663a2.786,2.786,0,0,0-.012-.329.567.567,0,0,0-.049-.222.315.315,0,0,0-.138-.137.991.991,0,0,0-.252-.1v-.276h2.474a4.492,4.492,0,0,1,.849.069,2.038,2.038,0,0,1,.612.214,1.207,1.207,0,0,1,.375.3,1.322,1.322,0,0,1,.233.421,1.641,1.641,0,0,1,.084.558,1.581,1.581,0,0,1-.149.712,1.431,1.431,0,0,1-.394.5,2.837,2.837,0,0,1-.661.367v.046a1.358,1.358,0,0,1,.516.359,2.437,2.437,0,0,1,.375.574l.263.581a2.316,2.316,0,0,0,.356.574.7.7,0,0,0,.421.237v.283H362.26a6.589,6.589,0,0,1-.55-1.009l-.333-.726a2.984,2.984,0,0,0-.256-.459.556.556,0,0,0-.218-.184.813.813,0,0,0-.344-.053h-.249v1.369a2.287,2.287,0,0,0,.031.444.362.362,0,0,0,.115.2.7.7,0,0,0,.313.138Zm-.459-5.284v2.355h.421a1.434,1.434,0,0,0,.558-.092.846.846,0,0,0,.352-.252.88.88,0,0,0,.175-.383,2.174,2.174,0,0,0,.05-.482,1.256,1.256,0,0,0-.267-.872,1.069,1.069,0,0,0-.811-.283C360.547,725.948,360.387,725.948,360.31,725.956Z" transform="translate(-328.895 -725.382)" fill="#aeb0b3"/><path d="M374.7,725.451V726.8h-.585a2.452,2.452,0,0,0-.237-.543.616.616,0,0,0-.233-.222.873.873,0,0,0-.459-.084h-.929v2.034h.562a.732.732,0,0,0,.29-.053.405.405,0,0,0,.176-.176,1.747,1.747,0,0,0,.138-.383h.474v1.721h-.474a1.775,1.775,0,0,0-.134-.375.447.447,0,0,0-.172-.184.612.612,0,0,0-.3-.053h-.562v2.264h.922a1.148,1.148,0,0,0,.249-.023.482.482,0,0,0,.183-.061.6.6,0,0,0,.153-.13.893.893,0,0,0,.134-.176,2.373,2.373,0,0,0,.122-.245,3.4,3.4,0,0,0,.138-.421h.585l-.084,1.552H370.49v-.283a.975.975,0,0,0,.249-.092.285.285,0,0,0,.138-.137.554.554,0,0,0,.057-.214c.008-.092.012-.207.012-.337v-3.663c0-.13,0-.237-.012-.329a.5.5,0,0,0-.053-.222.306.306,0,0,0-.134-.137.968.968,0,0,0-.256-.1v-.276Z" transform="translate(-335.097 -725.382)" fill="#aeb0b3"/><path d="M382.7,730.177a2.88,2.88,0,0,0,.023.4.455.455,0,0,0,.073.184.363.363,0,0,0,.137.123,1.134,1.134,0,0,0,.283.076v.283h-2.283v-.283a1.085,1.085,0,0,0,.249-.092.3.3,0,0,0,.134-.137.628.628,0,0,0,.061-.214c0-.092.007-.207.007-.337v-3.663c0-.13,0-.237-.007-.329a.647.647,0,0,0-.054-.222.316.316,0,0,0-.138-.137,1,1,0,0,0-.252-.1v-.276h2.463a2.789,2.789,0,0,1,1.61.383,1.369,1.369,0,0,1,.532,1.177,1.911,1.911,0,0,1-.249.987,1.608,1.608,0,0,1-.726.627,2.849,2.849,0,0,1-1.186.214c-.275,0-.5-.007-.676-.015Zm0-1.835h.367a1.5,1.5,0,0,0,.673-.123.76.76,0,0,0,.375-.382,1.743,1.743,0,0,0,.119-.712,1.664,1.664,0,0,0-.119-.7.774.774,0,0,0-.355-.375,1.386,1.386,0,0,0-.6-.107c-.2,0-.348,0-.459.008Z" transform="translate(-340.519 -725.382)" fill="#aeb0b3"/><path d="M395.667,726.514a2.233,2.233,0,0,0-.031-.443.358.358,0,0,0-.107-.2.777.777,0,0,0-.313-.145v-.276h1.865v.276a1.408,1.408,0,0,0-.24.092.276.276,0,0,0-.134.137.52.52,0,0,0-.061.222c-.007.091-.015.2-.015.336v2.646a3.858,3.858,0,0,1-.084.887,1.639,1.639,0,0,1-.264.6,1.36,1.36,0,0,1-.443.39,2.029,2.029,0,0,1-.6.206,3.667,3.667,0,0,1-.741.069,3.555,3.555,0,0,1-1.017-.13,1.633,1.633,0,0,1-.677-.375,1.591,1.591,0,0,1-.386-.612,3.013,3.013,0,0,1-.122-.933v-2.746c0-.13,0-.237-.012-.329a.488.488,0,0,0-.057-.222.273.273,0,0,0-.134-.137.985.985,0,0,0-.253-.1v-.276h2.226v.276a1.089,1.089,0,0,0-.256.1.5.5,0,0,0-.126.13.677.677,0,0,0-.057.2,2.922,2.922,0,0,0-.015.359v2.8a3.759,3.759,0,0,0,.042.612,1.328,1.328,0,0,0,.153.474.77.77,0,0,0,.31.306,1.125,1.125,0,0,0,.516.107,1,1,0,0,0,.643-.175.909.909,0,0,0,.3-.49,3.649,3.649,0,0,0,.092-.926Z" transform="translate(-346.184 -725.382)" fill="#aeb0b3"/><path d="M407.895,728.2a1.926,1.926,0,0,1,.9.543,1.233,1.233,0,0,1,.314.849,1.8,1.8,0,0,1-.142.742,1.245,1.245,0,0,1-.432.512,2.06,2.06,0,0,1-.684.3,4.49,4.49,0,0,1-1,.091h-2.612v-.283a1.159,1.159,0,0,0,.249-.092.313.313,0,0,0,.134-.137.61.61,0,0,0,.057-.214c.008-.092.012-.207.012-.337v-3.663c0-.13,0-.237-.007-.329a.557.557,0,0,0-.058-.222.289.289,0,0,0-.134-.137,1.12,1.12,0,0,0-.252-.1v-.276h2.776a5.388,5.388,0,0,1,.776.046,2.02,2.02,0,0,1,.692.222.985.985,0,0,1,.413.4,1.226,1.226,0,0,1,.145.612,1.545,1.545,0,0,1-1.151,1.438Zm-1.319-.214a1.467,1.467,0,0,0,.665-.13.814.814,0,0,0,.367-.351,1.25,1.25,0,0,0,.122-.619.99.99,0,0,0-.134-.559.78.78,0,0,0-.387-.3,2.076,2.076,0,0,0-.626-.084c-.2,0-.387.008-.574.015v2.026Zm-.565,2.738c.168.007.359.015.574.015a1.819,1.819,0,0,0,.665-.1.762.762,0,0,0,.405-.352,1.343,1.343,0,0,0,.145-.681,1.522,1.522,0,0,0-.076-.52.805.805,0,0,0-.229-.352.944.944,0,0,0-.367-.2,1.981,1.981,0,0,0-.527-.062h-.588Z" transform="translate(-352.623 -725.382)" fill="#aeb0b3"/><path d="M418.231,725.451v.276a1.546,1.546,0,0,0-.24.092.318.318,0,0,0-.138.137.566.566,0,0,0-.065.214c-.008.092-.015.207-.015.337v4.229h.826a.843.843,0,0,0,.394-.076.763.763,0,0,0,.26-.238,1.761,1.761,0,0,0,.184-.413q.08-.265.126-.482h.581l-.1,1.713h-4.042v-.283a.955.955,0,0,0,.249-.092.364.364,0,0,0,.138-.137.793.793,0,0,0,.057-.222c0-.091.012-.2.012-.336v-3.656c0-.13,0-.237-.012-.329a.553.553,0,0,0-.053-.222.3.3,0,0,0-.137-.137.992.992,0,0,0-.253-.1v-.276Z" transform="translate(-358.73 -725.382)" fill="#aeb0b3"/><path d="M427.73,730.177c0,.1,0,.184.011.276a.911.911,0,0,0,.031.207.4.4,0,0,0,.073.137.507.507,0,0,0,.134.092.732.732,0,0,0,.211.069v.283h-2.225v-.283a1.16,1.16,0,0,0,.249-.092.317.317,0,0,0,.134-.137.643.643,0,0,0,.057-.214c.008-.092.011-.207.011-.337v-3.663c0-.137,0-.245-.007-.336a.63.63,0,0,0-.058-.214.305.305,0,0,0-.134-.137,1.128,1.128,0,0,0-.252-.1v-.276h2.225v.276a1.3,1.3,0,0,0-.26.1.482.482,0,0,0-.122.13.576.576,0,0,0-.062.2,2.94,2.94,0,0,0-.015.359Z" transform="translate(-363.9 -725.382)" fill="#aeb0b3"/><path d="M436.988,730.109c.111.168.207.306.279.4a2.089,2.089,0,0,0,.2.237.932.932,0,0,0,.168.13,1.5,1.5,0,0,0,.218.084v.275h-2.3v-.283a.444.444,0,0,0,.2-.069.184.184,0,0,0,.049-.13.462.462,0,0,0-.019-.13,1.321,1.321,0,0,0-.092-.2c-.053-.084-.145-.237-.294-.466l-.65-.994a2.934,2.934,0,0,0-.2-.291.473.473,0,0,0-.413-.191h-.088v1.69c0,.1,0,.184.007.276a.712.712,0,0,0,.038.207.335.335,0,0,0,.073.137.364.364,0,0,0,.134.092.747.747,0,0,0,.206.069v.283H432.27v-.283a1.065,1.065,0,0,0,.252-.092.292.292,0,0,0,.134-.137.621.621,0,0,0,.058-.214c.007-.092.015-.207.015-.337v-3.663a2.805,2.805,0,0,0-.015-.329.5.5,0,0,0-.054-.222.279.279,0,0,0-.137-.137.889.889,0,0,0-.252-.1v-.276H434.5v.276a.8.8,0,0,0-.26.107.333.333,0,0,0-.123.13.638.638,0,0,0-.057.191,2.174,2.174,0,0,0-.019.359v1.515h.091a1.056,1.056,0,0,0,.306-.038.837.837,0,0,0,.238-.153c.08-.076.237-.252.466-.52s.4-.482.5-.62a1.761,1.761,0,0,0,.211-.367.722.722,0,0,0,.057-.283.28.28,0,0,0-.1-.229.473.473,0,0,0-.279-.092v-.276H437.7v.29a.924.924,0,0,0-.275.085,1.628,1.628,0,0,0-.263.191,5.252,5.252,0,0,0-.375.4l-1.273,1.422Z" transform="translate(-367.175 -725.382)" fill="#aeb0b3"/><path d="M448.8,725.451V726.8h-.581a2.859,2.859,0,0,0-.237-.543.654.654,0,0,0-.237-.222.863.863,0,0,0-.459-.084h-.925v2.034h.558a.719.719,0,0,0,.291-.053.4.4,0,0,0,.18-.176,1.575,1.575,0,0,0,.133-.383H448v1.721h-.478a1.606,1.606,0,0,0-.133-.375.448.448,0,0,0-.173-.184.613.613,0,0,0-.3-.053h-.558v2.264h.917a1.217,1.217,0,0,0,.253-.023.44.44,0,0,0,.179-.061.683.683,0,0,0,.157-.13.859.859,0,0,0,.13-.176,1.215,1.215,0,0,0,.123-.245,4.226,4.226,0,0,0,.141-.421h.581l-.08,1.552h-4.172v-.283a1.089,1.089,0,0,0,.249-.092.277.277,0,0,0,.134-.137.539.539,0,0,0,.057-.214,2.838,2.838,0,0,0,.015-.337v-3.663c0-.13,0-.237-.012-.329a.562.562,0,0,0-.053-.222.3.3,0,0,0-.138-.137.937.937,0,0,0-.253-.1v-.276Z" transform="translate(-373.571 -725.382)" fill="#aeb0b3"/><path d="M464.01,730.177a2,2,0,0,0,.026.444.322.322,0,0,0,.111.2.649.649,0,0,0,.31.138v.283h-2.214v-.283a.751.751,0,0,0,.317-.13.336.336,0,0,0,.1-.177,2.123,2.123,0,0,0,.03-.474v-1.705h-1.919v1.705c0,.1,0,.184.012.276a.945.945,0,0,0,.03.207.331.331,0,0,0,.211.229.7.7,0,0,0,.207.069v.283h-2.225v-.283a1.085,1.085,0,0,0,.249-.092.311.311,0,0,0,.134-.137.611.611,0,0,0,.057-.214c.008-.092.012-.207.012-.337v-3.663c0-.13,0-.237-.008-.329a.549.549,0,0,0-.057-.222.289.289,0,0,0-.134-.137,1.119,1.119,0,0,0-.252-.1v-.276h2.225v.276a.78.78,0,0,0-.306.145.368.368,0,0,0-.118.2,1.938,1.938,0,0,0-.035.451v1.415h1.919v-1.415a2.057,2.057,0,0,0-.03-.451.4.4,0,0,0-.107-.2.834.834,0,0,0-.314-.145v-.276h2.214v.276a1.491,1.491,0,0,0-.272.107.425.425,0,0,0-.122.152.6.6,0,0,0-.042.2,2.637,2.637,0,0,0-.011.336Z" transform="translate(-381.058 -725.382)" fill="#aeb0b3"/><path d="M474.27,731.24h-2.226v-.283a1.027,1.027,0,0,0,.249-.092.3.3,0,0,0,.138-.137.623.623,0,0,0,.054-.214c.008-.092.015-.207.015-.337v-3.663c0-.13-.007-.237-.011-.329a.493.493,0,0,0-.058-.222.287.287,0,0,0-.134-.137,1,1,0,0,0-.252-.1v-.276h2.474a4.463,4.463,0,0,1,.849.069,2,2,0,0,1,.612.214,1.154,1.154,0,0,1,.375.3,1.253,1.253,0,0,1,.234.421,1.654,1.654,0,0,1,.084.558,1.574,1.574,0,0,1-.145.712,1.474,1.474,0,0,1-.394.5,3.022,3.022,0,0,1-.661.367v.046a1.413,1.413,0,0,1,.516.359,2.45,2.45,0,0,1,.372.574l.267.581a2.426,2.426,0,0,0,.352.574.7.7,0,0,0,.421.237v.283h-1.633a6.543,6.543,0,0,1-.555-1.009l-.333-.726a2.772,2.772,0,0,0-.252-.459.589.589,0,0,0-.218-.184.833.833,0,0,0-.348-.053h-.248v1.369a1.96,1.96,0,0,0,.034.444.338.338,0,0,0,.111.2.73.73,0,0,0,.313.138Zm-.459-5.284v2.355h.424a1.457,1.457,0,0,0,.558-.092.832.832,0,0,0,.348-.252.893.893,0,0,0,.18-.383,2.474,2.474,0,0,0,.046-.482,1.235,1.235,0,0,0-.267-.872,1.066,1.066,0,0,0-.807-.283C474.047,725.948,473.891,725.948,473.811,725.956Z" transform="translate(-387.826 -725.382)" fill="#aeb0b3"/><path d="M486.417,726.835a2.174,2.174,0,0,0,.1-.329,1.324,1.324,0,0,0,.035-.328.452.452,0,0,0-.1-.322.529.529,0,0,0-.332-.13v-.276h1.824v.276a.656.656,0,0,0-.474.329,3.147,3.147,0,0,0-.214.482l-1.782,4.734h-.975l-1.4-4.757a3.7,3.7,0,0,0-.157-.451.617.617,0,0,0-.168-.214.713.713,0,0,0-.283-.123v-.276h2.348v.276a.656.656,0,0,0-.329.123.373.373,0,0,0-.107.275,1.318,1.318,0,0,0,.026.275c.016.091.054.237.108.428l.837,3.043Z" transform="translate(-393.248 -725.382)" fill="#aeb0b3"/><path d="M495.464,729.41h-1.809l-.142.406c-.038.114-.069.222-.1.328a1.416,1.416,0,0,0-.038.337.407.407,0,0,0,.44.444v.283h-1.813v-.283a.512.512,0,0,0,.279-.107.88.88,0,0,0,.214-.26,2.433,2.433,0,0,0,.211-.459l1.766-4.711h1.136l1.4,4.749a3.828,3.828,0,0,0,.161.451.553.553,0,0,0,.164.214.647.647,0,0,0,.283.123v.283h-2.344v-.283a.583.583,0,0,0,.328-.123.347.347,0,0,0,.107-.275,1.7,1.7,0,0,0-.03-.291c-.019-.107-.053-.245-.1-.4Zm-1.644-.5h1.521l-.676-2.386Z" transform="translate(-398.192 -725.35)" fill="#aeb0b3"/><path d="M504.324,731.24v-.283a.969.969,0,0,0,.279-.076.33.33,0,0,0,.157-.137.576.576,0,0,0,.065-.23c.007-.092.011-.207.011-.337v-4.229h-.344a1.061,1.061,0,0,0-.389.053.739.739,0,0,0-.237.191,1.142,1.142,0,0,0-.169.337c-.05.145-.088.283-.122.405H503v-1.484h4.99v1.484h-.581c-.053-.191-.1-.329-.126-.421a1.082,1.082,0,0,0-.1-.229.8.8,0,0,0-.123-.161.41.41,0,0,0-.134-.1.6.6,0,0,0-.18-.061,2.655,2.655,0,0,0-.283-.015h-.306v4.229c0,.145,0,.26.012.337a.581.581,0,0,0,.046.191.535.535,0,0,0,.084.114.421.421,0,0,0,.137.085,1.145,1.145,0,0,0,.233.053v.283Z" transform="translate(-403.898 -725.382)" fill="#aeb0b3"/><path d="M515.063,729.736a1.463,1.463,0,0,0,.356.75.981.981,0,0,0,.726.252,1.172,1.172,0,0,0,.448-.084.743.743,0,0,0,.325-.276.893.893,0,0,0,.118-.474,1.014,1.014,0,0,0-.1-.459,1.307,1.307,0,0,0-.314-.367,3.681,3.681,0,0,0-.6-.367,4.516,4.516,0,0,1-.6-.344,2.2,2.2,0,0,1-.458-.39,1.667,1.667,0,0,1-.291-.467,1.535,1.535,0,0,1-.1-.574,1.494,1.494,0,0,1,.256-.887,1.556,1.556,0,0,1,.75-.55,3.064,3.064,0,0,1,1.136-.191,7.116,7.116,0,0,1,.719.039,7.6,7.6,0,0,1,.784.145v1.231h-.577a1.705,1.705,0,0,0-.207-.536.78.78,0,0,0-.313-.29,1.047,1.047,0,0,0-.466-.092.981.981,0,0,0-.436.084.621.621,0,0,0-.3.252.7.7,0,0,0-.111.405.909.909,0,0,0,.1.428,1.154,1.154,0,0,0,.317.352,5.29,5.29,0,0,0,.65.39,4.3,4.3,0,0,1,.826.527,1.742,1.742,0,0,1,.44.574,1.846,1.846,0,0,1-.1,1.621,1.581,1.581,0,0,1-.7.589,2.614,2.614,0,0,1-1.071.206c-.287,0-.589-.023-.9-.053a7.449,7.449,0,0,1-.883-.138v-1.308Z" transform="translate(-409.861 -725.308)" fill="#aeb0b3"/><path d="M528.582,730.109c.107.168.2.306.279.4a1.745,1.745,0,0,0,.2.237.949.949,0,0,0,.168.13,1.368,1.368,0,0,0,.218.084v.275h-2.3v-.283a.408.408,0,0,0,.2-.069.169.169,0,0,0,.049-.13.669.669,0,0,0-.015-.13,1.469,1.469,0,0,0-.1-.2c-.046-.084-.146-.237-.291-.466l-.65-.994a3.425,3.425,0,0,0-.207-.291.58.58,0,0,0-.172-.145.663.663,0,0,0-.237-.046h-.084v1.69c0,.1,0,.184,0,.276a.725.725,0,0,0,.038.207.334.334,0,0,0,.073.137.381.381,0,0,0,.13.092.82.82,0,0,0,.211.069v.283h-2.226v-.283a1.046,1.046,0,0,0,.245-.092.3.3,0,0,0,.138-.137.538.538,0,0,0,.058-.214,2.913,2.913,0,0,0,.012-.337v-3.663a2.772,2.772,0,0,0-.012-.329.553.553,0,0,0-.054-.222.277.277,0,0,0-.138-.137.9.9,0,0,0-.249-.1v-.276h2.226v.276a.807.807,0,0,0-.26.107.328.328,0,0,0-.122.13.468.468,0,0,0-.058.191,2.854,2.854,0,0,0-.015.359v1.515h.084a1.072,1.072,0,0,0,.31-.038.836.836,0,0,0,.237-.153c.08-.076.237-.252.466-.52s.4-.482.5-.62a1.729,1.729,0,0,0,.21-.367.715.715,0,0,0,.058-.283.28.28,0,0,0-.1-.229.482.482,0,0,0-.279-.092v-.276h2.164v.29a.894.894,0,0,0-.275.085,1.475,1.475,0,0,0-.263.191c-.1.092-.222.222-.375.4l-1.273,1.422Z" transform="translate(-414.734 -725.382)" fill="#aeb0b3"/><path d="M540.385,725.451V726.8h-.577a2.919,2.919,0,0,0-.238-.543.653.653,0,0,0-.237-.222.87.87,0,0,0-.463-.084h-.922v2.034h.558a.714.714,0,0,0,.29-.053.434.434,0,0,0,.18-.176,1.6,1.6,0,0,0,.13-.383h.482v1.721h-.482a1.577,1.577,0,0,0-.13-.375.5.5,0,0,0-.172-.184.615.615,0,0,0-.3-.053h-.558v2.264h.918a1.209,1.209,0,0,0,.252-.023.489.489,0,0,0,.18-.061.7.7,0,0,0,.157-.13.876.876,0,0,0,.13-.176,1.231,1.231,0,0,0,.119-.245,4.054,4.054,0,0,0,.145-.421h.577l-.077,1.552h-4.171v-.283a1.086,1.086,0,0,0,.249-.092.277.277,0,0,0,.134-.137.538.538,0,0,0,.057-.214,2.838,2.838,0,0,0,.015-.337v-3.663c0-.13,0-.237-.007-.329a.561.561,0,0,0-.062-.222.266.266,0,0,0-.138-.137.913.913,0,0,0-.249-.1v-.276Z" transform="translate(-421.127 -725.382)" fill="#aeb0b3"/></g><g transform="translate(771.817 3595.398)"><path d="M367.443,750.917a3.406,3.406,0,0,1-.085.8,1.986,1.986,0,0,1-.245.566,1.422,1.422,0,0,1-.367.375,1.774,1.774,0,0,1-.536.245,2.667,2.667,0,0,1-.738.092,2.945,2.945,0,0,1-.88-.115,1.335,1.335,0,0,1-.608-.382,1.5,1.5,0,0,1-.344-.612,3.13,3.13,0,0,1-.107-.9v-2.791a2.779,2.779,0,0,0-.023-.443.559.559,0,0,0-.058-.184.443.443,0,0,0-.118-.122,1.386,1.386,0,0,0-.283-.1v-.207h1.778v.207a.957.957,0,0,0-.329.13.417.417,0,0,0-.13.229,2.361,2.361,0,0,0-.035.489v3.006a2.308,2.308,0,0,0,.092.688.917.917,0,0,0,.615.665,1.8,1.8,0,0,0,.539.069,1.239,1.239,0,0,0,.52-.107,1,1,0,0,0,.378-.313,1.33,1.33,0,0,0,.207-.52,5.363,5.363,0,0,0,.05-.834v-2.654a2.056,2.056,0,0,0-.035-.5.389.389,0,0,0-.118-.214,1,1,0,0,0-.34-.137v-.207h1.694v.207a1.126,1.126,0,0,0-.34.137.4.4,0,0,0-.126.222,2.838,2.838,0,0,0-.03.489Z" transform="translate(-363.053 -746.849)" fill="#aeb0b3"/><path d="M375.9,751.363l.061.008a2.994,2.994,0,0,1,.432-.444,1.353,1.353,0,0,1,.432-.252,1.4,1.4,0,0,1,.524-.092,2.625,2.625,0,0,1,.444.031v.971h-.478a1.189,1.189,0,0,0-.214-.337.467.467,0,0,0-.318-.1.588.588,0,0,0-.3.091,1.16,1.16,0,0,0-.291.252,1.138,1.138,0,0,0-.195.321,1.061,1.061,0,0,0-.053.352v1.483a2.032,2.032,0,0,0,.05.536.411.411,0,0,0,.153.214,1.07,1.07,0,0,0,.325.107v.207h-1.709v-.207c.107-.038.187-.069.233-.091a.347.347,0,0,0,.118-.107.477.477,0,0,0,.077-.207,2.818,2.818,0,0,0,.026-.436v-1.851q0-.275-.011-.436a.636.636,0,0,0-.058-.268.3.3,0,0,0-.153-.145,1.333,1.333,0,0,0-.294-.084v-.222l.99-.038h.26Z" transform="translate(-369.099 -748.641)" fill="#aeb0b3"/><path d="M385.458,753.986a3.581,3.581,0,0,1-.5.451,1.935,1.935,0,0,1-.5.252,1.844,1.844,0,0,1-.6.092,1.634,1.634,0,0,1-1.32-.528,2.348,2.348,0,0,1-.443-1.545,2.628,2.628,0,0,1,.226-1.116,1.662,1.662,0,0,1,.646-.742,1.713,1.713,0,0,1,.968-.268,1.754,1.754,0,0,1,.73.138,1.27,1.27,0,0,1,.482.367,1.789,1.789,0,0,1,.279.6,3.945,3.945,0,0,1,.111.933h-2.669v.076a2.644,2.644,0,0,0,.111.842,1.058,1.058,0,0,0,.367.542,1.138,1.138,0,0,0,.673.192,1.462,1.462,0,0,0,.619-.131,1.981,1.981,0,0,0,.554-.42Zm-.712-1.721a2.8,2.8,0,0,0-.118-.741.935.935,0,0,0-.263-.452.7.7,0,0,0-.467-.153.827.827,0,0,0-.7.352,1.917,1.917,0,0,0-.306.994Z" transform="translate(-372.943 -748.641)" fill="#aeb0b3"/><path d="M393.746,748c0-.275,0-.459-.007-.574a1.331,1.331,0,0,0-.035-.267.426.426,0,0,0-.076-.176.3.3,0,0,0-.13-.1,1.082,1.082,0,0,0-.3-.076v-.222l1.025-.046h.252v4.909c0,.222,0,.382.012.475a.671.671,0,0,0,.053.229.391.391,0,0,0,.134.138,1.058,1.058,0,0,0,.322.1v.222l-1,.046h-.253l.046-.7-.062-.015a3.363,3.363,0,0,1-.466.428,2.187,2.187,0,0,1-.413.229,1.45,1.45,0,0,1-.481.084,1.248,1.248,0,0,1-1.071-.528,2.629,2.629,0,0,1-.382-1.529,2.557,2.557,0,0,1,.249-1.178,1.708,1.708,0,0,1,.665-.726,1.85,1.85,0,0,1,.94-.237,2.6,2.6,0,0,1,.5.046,2.4,2.4,0,0,1,.474.145Zm0,2.1a3.754,3.754,0,0,0-.03-.528,1,1,0,0,0-.1-.336.646.646,0,0,0-.191-.23.815.815,0,0,0-.256-.138,1.167,1.167,0,0,0-.344-.038.931.931,0,0,0-.83.436,2.279,2.279,0,0,0-.279,1.246,2.566,2.566,0,0,0,.233,1.232.746.746,0,0,0,.708.428,1.2,1.2,0,0,0,.31-.031.935.935,0,0,0,.237-.1,1.1,1.1,0,0,0,.245-.2.849.849,0,0,0,.268-.451,1.707,1.707,0,0,0,.03-.344Z" transform="translate(-377.519 -746.544)" fill="#aeb0b3"/><path d="M407.974,753.556v1.231h-3.262v-.207l2.321-3.5h-1.151a.605.605,0,0,0-.333.076.625.625,0,0,0-.229.253,1.907,1.907,0,0,0-.214.481h-.371v-1.162h3.216v.214l-2.321,3.5h1.117a1.16,1.16,0,0,0,.328-.038.369.369,0,0,0,.191-.107.659.659,0,0,0,.157-.237,4.6,4.6,0,0,0,.188-.5Z" transform="translate(-384.683 -748.715)" fill="#aeb0b3"/><path d="M415.436,754.109l-.061-.023a2.651,2.651,0,0,1-.7.535,1.523,1.523,0,0,1-.688.161,1.213,1.213,0,0,1-.566-.13.9.9,0,0,1-.382-.352,1.028,1.028,0,0,1-.13-.52,1.049,1.049,0,0,1,.612-.956,4.325,4.325,0,0,1,1.843-.4v-.275a2.286,2.286,0,0,0-.088-.7.66.66,0,0,0-.268-.367.837.837,0,0,0-.486-.123.783.783,0,0,0-.532.176,1.058,1.058,0,0,0-.306.52h-.554v-.55a5.749,5.749,0,0,1,.681-.314,2.85,2.85,0,0,1,.539-.152,2.275,2.275,0,0,1,.554-.062,1.41,1.41,0,0,1,.673.138.841.841,0,0,1,.383.405,2.124,2.124,0,0,1,.126.833v1.476c0,.206,0,.359,0,.443a1.537,1.537,0,0,0,.027.237.422.422,0,0,0,.061.176.3.3,0,0,0,.13.114,1.322,1.322,0,0,0,.268.1v.207h-1.163Zm-.069-1.33a2.825,2.825,0,0,0-1.293.229.7.7,0,0,0-.428.665.66.66,0,0,0,.1.383.507.507,0,0,0,.245.191,1.1,1.1,0,0,0,.872-.085,1.071,1.071,0,0,0,.371-.359.814.814,0,0,0,.134-.428Z" transform="translate(-388.941 -748.641)" fill="#aeb0b3"/><path d="M425.653,750.726h1.208v2.164a5.408,5.408,0,0,0,.038.757,1.154,1.154,0,0,0,.114.39.587.587,0,0,0,.218.214.691.691,0,0,0,.382.092.858.858,0,0,0,.313-.062,1.469,1.469,0,0,0,.329-.222,1.01,1.01,0,0,0,.26-.321.759.759,0,0,0,.08-.36v-1.591a2.987,2.987,0,0,0-.015-.367.788.788,0,0,0-.042-.2.631.631,0,0,0-.069-.123.447.447,0,0,0-.118-.084,1.012,1.012,0,0,0-.237-.076v-.214h1.208v2.9c0,.222.008.382.015.475a.733.733,0,0,0,.053.229.353.353,0,0,0,.134.138.991.991,0,0,0,.317.1v.222l-.971.046h-.26l.026-.7-.065-.015a2.784,2.784,0,0,1-.673.558,1.27,1.27,0,0,1-.642.184,1.227,1.227,0,0,1-.635-.153.967.967,0,0,1-.374-.458,2.382,2.382,0,0,1-.123-.857v-1.6a3.3,3.3,0,0,0-.026-.489.439.439,0,0,0-.1-.214.82.82,0,0,0-.344-.145Z" transform="translate(-395.556 -748.715)" fill="#aeb0b3"/><path d="M438.742,748c0-.275,0-.459-.008-.574a1.364,1.364,0,0,0-.034-.267.42.42,0,0,0-.073-.176.317.317,0,0,0-.134-.1,1.042,1.042,0,0,0-.3-.076v-.222l1.032-.046h.245v4.909c0,.222.008.382.015.475a.649.649,0,0,0,.054.229.392.392,0,0,0,.137.138,1,1,0,0,0,.318.1v.222l-1,.046h-.256l.054-.7-.062-.015a3.627,3.627,0,0,1-.466.428,2.1,2.1,0,0,1-.421.229,1.394,1.394,0,0,1-.474.084,1.266,1.266,0,0,1-1.078-.528,2.657,2.657,0,0,1-.374-1.529,2.558,2.558,0,0,1,.245-1.178,1.684,1.684,0,0,1,.665-.726,1.837,1.837,0,0,1,.937-.237,2.655,2.655,0,0,1,.513.046,2.455,2.455,0,0,1,.47.145Zm0,2.1a3.742,3.742,0,0,0-.031-.528.991.991,0,0,0-.1-.336.636.636,0,0,0-.187-.23.853.853,0,0,0-.264-.138,1.122,1.122,0,0,0-.34-.038.929.929,0,0,0-.826.436,2.248,2.248,0,0,0-.283,1.246,2.612,2.612,0,0,0,.229,1.232.749.749,0,0,0,.707.428,1.213,1.213,0,0,0,.314-.031,1.023,1.023,0,0,0,.241-.1,1.191,1.191,0,0,0,.245-.2,1.084,1.084,0,0,0,.18-.222,1.019,1.019,0,0,0,.084-.229,1.7,1.7,0,0,0,.031-.344Z" transform="translate(-400.884 -746.544)" fill="#aeb0b3"/><path d="M446.943,751.363l.057.008a2.662,2.662,0,0,1,.436-.444,1.273,1.273,0,0,1,.425-.252,1.445,1.445,0,0,1,.528-.092,2.58,2.58,0,0,1,.443.031v.971h-.477a1.043,1.043,0,0,0-.218-.337.437.437,0,0,0-.31-.1.581.581,0,0,0-.306.091,1.151,1.151,0,0,0-.29.252,1.05,1.05,0,0,0-.192.321.982.982,0,0,0-.053.352v1.483a2.081,2.081,0,0,0,.046.536.4.4,0,0,0,.157.214,1,1,0,0,0,.321.107v.207H445.8v-.207a2.489,2.489,0,0,0,.233-.091.357.357,0,0,0,.119-.107.477.477,0,0,0,.076-.207,2.393,2.393,0,0,0,.026-.436v-1.851c0-.184,0-.329-.007-.436a.706.706,0,0,0-.061-.268.311.311,0,0,0-.153-.145,1.366,1.366,0,0,0-.3-.084v-.222l.994-.038h.257Z" transform="translate(-405.983 -748.641)" fill="#aeb0b3"/><path d="M453.124,750.726h1.208v2.164a6.2,6.2,0,0,0,.038.757,1.249,1.249,0,0,0,.115.39.613.613,0,0,0,.218.214.7.7,0,0,0,.382.092.858.858,0,0,0,.313-.062,1.469,1.469,0,0,0,.329-.222,1.011,1.011,0,0,0,.26-.321.754.754,0,0,0,.08-.36v-1.591c0-.16,0-.283-.011-.367a1.4,1.4,0,0,0-.042-.2.648.648,0,0,0-.073-.123.492.492,0,0,0-.115-.084,1.109,1.109,0,0,0-.241-.076v-.214h1.209v2.9c0,.222.007.382.015.475a.861.861,0,0,0,.053.229.386.386,0,0,0,.134.138.991.991,0,0,0,.317.1v.222l-.971.046h-.26l.027-.7-.065-.015a2.868,2.868,0,0,1-.669.558,1.282,1.282,0,0,1-.642.184,1.235,1.235,0,0,1-.639-.153.97.97,0,0,1-.375-.458,2.4,2.4,0,0,1-.122-.857v-1.6a3.266,3.266,0,0,0-.027-.489.438.438,0,0,0-.1-.214.814.814,0,0,0-.344-.145Z" transform="translate(-409.82 -748.715)" fill="#aeb0b3"/><path d="M466.959,751.088l-.784-.031-.038.046a.909.909,0,0,1,.211.36,1.566,1.566,0,0,1,.072.49,1.345,1.345,0,0,1-.424,1.063,1.76,1.76,0,0,1-1.212.375,2.033,2.033,0,0,1-.608-.084.649.649,0,0,0-.322.482.374.374,0,0,0,.065.238.326.326,0,0,0,.2.114,2.046,2.046,0,0,0,.432.031h1.021a1.557,1.557,0,0,1,.73.145.825.825,0,0,1,.406.375,1.17,1.17,0,0,1,.122.55,1.155,1.155,0,0,1-.229.7,1.444,1.444,0,0,1-.661.489,2.732,2.732,0,0,1-1.01.176,4.915,4.915,0,0,1-.784-.054,2.172,2.172,0,0,1-.608-.168,1.03,1.03,0,0,1-.39-.322.872.872,0,0,1-.138-.5.748.748,0,0,1,.18-.482,1.488,1.488,0,0,1,.5-.382.738.738,0,0,1-.313-.237.621.621,0,0,1-.115-.375.783.783,0,0,1,.138-.444,2.2,2.2,0,0,1,.478-.458,1.106,1.106,0,0,1-.463-.482,1.64,1.64,0,0,1-.038-1.33,1.211,1.211,0,0,1,.332-.444,1.393,1.393,0,0,1,.5-.268,2.411,2.411,0,0,1,.635-.084,2.761,2.761,0,0,1,.608.069h1.5Zm-2.833,3.693a1.237,1.237,0,0,0-.329.336.791.791,0,0,0-.107.413.6.6,0,0,0,.3.558,2.265,2.265,0,0,0,1.583.076.82.82,0,0,0,.416-.29.688.688,0,0,0,.146-.444.753.753,0,0,0-.031-.229A.419.419,0,0,0,466,755a.519.519,0,0,0-.237-.146,1.157,1.157,0,0,0-.4-.053h-.631C464.5,754.8,464.3,754.8,464.126,754.782Zm-.111-2.837a1.337,1.337,0,0,0,.218.818.738.738,0,0,0,.624.29.788.788,0,0,0,.371-.084.728.728,0,0,0,.249-.222,1.115,1.115,0,0,0,.138-.337,1.684,1.684,0,0,0,.046-.4,1.608,1.608,0,0,0-.107-.619.793.793,0,0,0-.287-.367.729.729,0,0,0-.425-.122.741.741,0,0,0-.612.267A1.217,1.217,0,0,0,464.015,751.945Z" transform="translate(-414.953 -748.641)" fill="#aeb0b3"/><path d="M475.663,753.986a3.528,3.528,0,0,1-.5.451,1.939,1.939,0,0,1-.5.252,1.848,1.848,0,0,1-.6.092,1.627,1.627,0,0,1-1.319-.528,2.348,2.348,0,0,1-.444-1.545,2.643,2.643,0,0,1,.225-1.116,1.664,1.664,0,0,1,.647-.742,1.707,1.707,0,0,1,.963-.268,1.76,1.76,0,0,1,.734.138,1.266,1.266,0,0,1,.482.367,1.869,1.869,0,0,1,.279.6,3.922,3.922,0,0,1,.111.933h-2.669v.076a2.643,2.643,0,0,0,.111.842,1.061,1.061,0,0,0,.367.542,1.135,1.135,0,0,0,.669.192,1.477,1.477,0,0,0,.623-.131,1.968,1.968,0,0,0,.554-.42Zm-.711-1.721a3.231,3.231,0,0,0-.115-.741.97.97,0,0,0-.267-.452.72.72,0,0,0-.471-.153.824.824,0,0,0-.7.352,1.913,1.913,0,0,0-.306.994Z" transform="translate(-419.78 -748.641)" fill="#aeb0b3"/></g></g></svg>