<svg xmlns="http://www.w3.org/2000/svg" width="169.859" height="86.881" viewBox="0 0 169.859 86.881"><g transform="translate(-137.514 -212.888)"><path d="M158.534,232.875l.051.023,1.518,4.3,1.67-4.126,4.341.6-2.544-3.355,2.837-3.467-4.455.612-1.622-4.285-1.666,4.158-4.164-.492,2.558,3.125-3.1,3.729Z" transform="translate(-13.169 -8.235)" fill="#aeb0b3"/><path d="M439.14,231.562a4.3,4.3,0,0,1-1.2,3.22,4.819,4.819,0,0,1-.446.4,5.619,5.619,0,0,1-.476.341,7.042,7.042,0,0,1-.734.409c-.893.433-1.727.64-2.042.822a.329.329,0,0,0-.117.1.092.092,0,0,0-.015.05.1.1,0,0,0,.018.051,1.8,1.8,0,0,0,.823.342l.129.03q.133.03.279.057a8.883,8.883,0,0,0,1.729.14,8.029,8.029,0,0,0,1.4-.143,6.554,6.554,0,0,0,1.01-.28q.2-.073.394-.162c.065-.029.13-.06.194-.093q.192-.1.378-.21.093-.057.184-.118a4.773,4.773,0,0,0,1.292-1.287q.068-.1.133-.208a7.241,7.241,0,0,0,.917-3.818,5.191,5.191,0,0,0-.053-.755,4.877,4.877,0,0,0-.149-.68,4.98,4.98,0,0,0-.225-.611q-.064-.145-.135-.281a6.237,6.237,0,0,0-.465-.757,14.5,14.5,0,0,0-.982-1.186c-2.359-2.686-6.858-1.228-7.15-.768S439.053,226.865,439.14,231.562Z" transform="translate(-237.305 -9.988)" fill="#aeb0b3"/><path d="M614.066,345.466a7.177,7.177,0,0,0,3.587.863,8.782,8.782,0,0,0,3.2-.613,7.183,7.183,0,0,0,2.411-1.418v-5.224h-5.707v2.21h3.033v1.664a5.716,5.716,0,0,1-1.436.792,4.557,4.557,0,0,1-1.668.327,3.465,3.465,0,0,1-2.72-1.168,5.134,5.134,0,0,1-1.037-3.5,4.634,4.634,0,0,1,1.024-3.265,3.588,3.588,0,0,1,2.76-1.1,3.151,3.151,0,0,1,1.91.559,2.778,2.778,0,0,1,1.042,1.525l2.63-.492a4.627,4.627,0,0,0-1.767-2.831,6.265,6.265,0,0,0-3.815-1.024,6.785,6.785,0,0,0-3.14.653,5.785,5.785,0,0,0-2.514,2.442A7.549,7.549,0,0,0,611,339.5a7.973,7.973,0,0,0,.77,3.493A5.487,5.487,0,0,0,614.066,345.466Z" transform="translate(-379.197 -96.008)" fill="#aeb0b3"/><path d="M687.543,341.531h.537a4.367,4.367,0,0,1,1.333.148,2.032,2.032,0,0,1,.8.546,18.512,18.512,0,0,1,1.4,1.928l1.914,2.854h3.167l-1.6-2.558a14.956,14.956,0,0,0-1.507-2.129,6.189,6.189,0,0,0-1.418-1.1,4.167,4.167,0,0,0,2.594-1.212,3.5,3.5,0,0,0,.868-2.438,3.78,3.78,0,0,0-.573-2.066,3.015,3.015,0,0,0-1.525-1.257,9.537,9.537,0,0,0-3.055-.354H684.9v13.114h2.648Zm0-5.421h2.066q1.61,0,1.932.045a1.624,1.624,0,0,1,1,.514,1.574,1.574,0,0,1,.353,1.069,1.706,1.706,0,0,1-.268.984,1.425,1.425,0,0,1-.742.555,10.115,10.115,0,0,1-2.379.161h-1.959Z" transform="translate(-438.379 -96.907)" fill="#aeb0b3"/><path d="M752.5,333.891h-2.8L744.6,347.005H747.4l1.083-2.979h5.242l1.145,2.979h2.88Zm-3.2,7.926,1.771-4.866,1.807,4.866Z" transform="translate(-486.191 -96.907)" fill="#aeb0b3"/><path d="M827,335.349a4.39,4.39,0,0,0-1.977-1.208,9.453,9.453,0,0,0-2.5-.251h-4.84v13.114h4.983a8.009,8.009,0,0,0,2.344-.277,4.657,4.657,0,0,0,1.861-1.047,5.783,5.783,0,0,0,1.4-2.317,8.613,8.613,0,0,0,.4-2.791,9.681,9.681,0,0,0-.429-3.1A5.736,5.736,0,0,0,827,335.349Zm-1.324,7.51a2.775,2.775,0,0,1-.693,1.266,2.444,2.444,0,0,1-1.069.546,7.209,7.209,0,0,1-1.6.125h-1.977V336.11h1.19a12.008,12.008,0,0,1,2.174.125,2.52,2.52,0,0,1,1.226.617,3,3,0,0,1,.751,1.27,7.832,7.832,0,0,1,.268,2.335A8.549,8.549,0,0,1,825.672,342.859Z" transform="translate(-544.725 -96.907)" fill="#aeb0b3"/><path d="M617.961,446.349v-2.057h-9.6v2.219h6.11l-6.888,8.507v2.388h10.654V455.2h-7.461Z" transform="translate(-376.463 -185.323)" fill="#aeb0b3"/><path d="M667.9,444.291l-5.108,13.114H665.6l1.082-2.979h5.242l1.145,2.979h2.88L670.7,444.291Zm-.4,7.926,1.771-4.866,1.807,4.866Z" transform="translate(-420.678 -185.323)" fill="#aeb0b3"/><path d="M740.192,451.684h3.032v1.664a5.715,5.715,0,0,1-1.436.792,4.555,4.555,0,0,1-1.668.326A3.465,3.465,0,0,1,737.4,453.3a5.134,5.134,0,0,1-1.038-3.5,4.634,4.634,0,0,1,1.024-3.265,3.588,3.588,0,0,1,2.76-1.1,3.152,3.152,0,0,1,1.91.559,2.777,2.777,0,0,1,1.042,1.525l2.63-.492a4.625,4.625,0,0,0-1.767-2.831,6.264,6.264,0,0,0-3.815-1.024,6.785,6.785,0,0,0-3.14.653,5.785,5.785,0,0,0-2.514,2.442,7.549,7.549,0,0,0-.859,3.641,7.975,7.975,0,0,0,.769,3.493,5.489,5.489,0,0,0,2.3,2.469,7.178,7.178,0,0,0,3.587.863,8.778,8.778,0,0,0,3.2-.613A7.179,7.179,0,0,0,745.9,454.7v-5.224h-5.707Z" transform="translate(-477.413 -184.423)" fill="#aeb0b3"/><path d="M816.214,452.718a6.187,6.187,0,0,0-1.418-1.1,4.166,4.166,0,0,0,2.594-1.212,3.5,3.5,0,0,0,.868-2.438,3.779,3.779,0,0,0-.573-2.066,3.015,3.015,0,0,0-1.525-1.257,9.539,9.539,0,0,0-3.055-.353h-5.573v13.114h2.648V451.93h.537a4.358,4.358,0,0,1,1.333.148,2.034,2.034,0,0,1,.8.546,18.494,18.494,0,0,1,1.4,1.928l1.914,2.854h3.167l-1.6-2.559A14.956,14.956,0,0,0,816.214,452.718Zm-4.075-2.88H810.18V446.51h2.066q1.61,0,1.932.045a1.622,1.622,0,0,1,1,.514,1.573,1.573,0,0,1,.353,1.069,1.706,1.706,0,0,1-.268.984,1.426,1.426,0,0,1-.742.555A10.118,10.118,0,0,1,812.139,449.837Z" transform="translate(-536.594 -185.323)" fill="#aeb0b3"/><path d="M876.574,451.626h6.584v-2.21h-6.584V446.51h7.076v-2.219h-9.724v13.114H883.9V455.2h-7.326Z" transform="translate(-589.767 -185.323)" fill="#aeb0b3"/><path d="M945.675,451.626a3.452,3.452,0,0,0-1.843-1.19,3.108,3.108,0,0,0,1.843-2.845,2.97,2.97,0,0,0-.4-1.534,3.367,3.367,0,0,0-1.006-1.1,3.416,3.416,0,0,0-1.369-.541,15.182,15.182,0,0,0-2.321-.13h-5.242v13.114H939.8q2.531-.018,3.193-.09a3.748,3.748,0,0,0,1.776-.622,3.5,3.5,0,0,0,1.136-1.351,3.9,3.9,0,0,0,.416-1.74A3.158,3.158,0,0,0,945.675,451.626Zm-7.693-5.153H939.5q1.87,0,2.263.045a1.519,1.519,0,0,1,1,.461,1.439,1.439,0,0,1,.335.989,1.385,1.385,0,0,1-.389,1.024,1.751,1.751,0,0,1-1.069.47q-.376.045-1.923.045h-1.735Zm5.229,8.118a1.642,1.642,0,0,1-.962.523,12,12,0,0,1-1.816.08h-2.451v-3.507h2.138a8.994,8.994,0,0,1,2.348.188,1.62,1.62,0,0,1,.828.6,1.711,1.711,0,0,1,.286,1A1.612,1.612,0,0,1,943.211,454.592Z" transform="translate(-638.947 -185.323)" fill="#aeb0b3"/><path d="M296.093,434.781H295.3v-2.809a.212.212,0,0,0-.212-.212h-2.054v-2a.212.212,0,0,0-.423,0v2h-2.144v-2.355a.212.212,0,1,0-.423,0v2.355h-2.194v-2a.212.212,0,0,0-.423,0v2h-2.179a.214.214,0,0,0-.237.21v2.809h-.593a.212.212,0,1,0,0,.423h.593v1.046a.212.212,0,0,0,.423,0V435.2h1.993v1.2a.212.212,0,0,0,.423,0v-1.2h2.194v1.148a.212.212,0,0,0,.423,0V435.2h2.144v1.1a.212.212,0,0,0,.423,0v-1.1h1.842v1.1a.212.212,0,0,0,.423,0v-1.1h.795a.212.212,0,0,0,0-.423Zm-8.668,0h-1.993v-2.6h1.993Zm2.618,0h-2.194v-2.6h2.194Zm2.567,0h-2.144v-2.6h2.144Zm2.265,0h-1.842v-2.6h1.842Z" transform="translate(-117.479 -173.232)" fill="#aeb0b3"/><path d="M390.192,489.73h-4.713l.007,3.125h4.69Z" transform="translate(-198.586 -221.713)" fill="#aeb0b3"/><path d="M330.57,407v-3.215H325l-.341,1.649A7.774,7.774,0,0,1,328.105,407Z" transform="translate(-149.88 -152.885)" fill="#aeb0b3"/><path d="M363.1,407v-3.215l-7.271,0V407Z" transform="translate(-174.844 -152.885)" fill="#aeb0b3"/><path d="M387.083,506.921h-1.567l.007,3.318h1.542Z" transform="translate(-198.616 -235.481)" fill="#aeb0b3"/><path d="M236.981,475.659h.883v-3.126h-.9Z" transform="translate(-79.645 -207.941)" fill="#aeb0b3"/><path d="M305.52,405.448a8.381,8.381,0,0,1,1.629.075l.324-1.569h-4.309l.36,1.588A8.238,8.238,0,0,1,305.52,405.448Z" transform="translate(-132.663 -153.018)" fill="#aeb0b3"/><path d="M212.465,424.558h1.79a11.738,11.738,0,0,1,1.878-2.522c.2-.208.424-.41.653-.6H199.978l-.163,3.125h8.3v-1.224a.26.26,0,0,1,.166-.244l1.011-.394a.263.263,0,0,1,.213.01l.261.132A10.48,10.48,0,0,1,212.465,424.558Z" transform="translate(-49.895 -167.017)" fill="#aeb0b3"/><path d="M197.143,474.961h7.648l-.017-3.126h-7.458v-.173Z" transform="translate(-47.755 -207.243)" fill="#aeb0b3"/><path d="M237.342,441.945h.812v-3.317h-.83Z" transform="translate(-79.935 -180.787)" fill="#aeb0b3"/><path d="M206.225,438.628h-7.186l-.173,3.317h7.378Z" transform="translate(-49.134 -180.787)" fill="#aeb0b3"/><path d="M198.191,456.783l-.148,2.838h4.474l-.017-2.838Z" transform="translate(-48.475 -195.327)" fill="#aeb0b3"/><path d="M285.3,415.406a7.655,7.655,0,0,0-6.174-2.546H279.1a8.006,8.006,0,0,0-6.389,2.5,10.573,10.573,0,0,0-2.514,4.022,16.373,16.373,0,0,1,.8,1.456c.324-1.435,2.911-6.427,8.019-6.041.136-.007.27-.011.4-.011a6.91,6.91,0,0,1,5.409,2.628,8.7,8.7,0,0,1,1.774,3.426,15.89,15.89,0,0,1,.9-1.6A9.969,9.969,0,0,0,285.3,415.406Z" transform="translate(-106.264 -160.132)" fill="#aeb0b3"/><path d="M266.164,438.628H264.83a8.645,8.645,0,0,1,.86,1.089A8.323,8.323,0,0,1,266.164,438.628Z" transform="translate(-101.963 -180.787)" fill="#aeb0b3"/><path d="M386.975,472.533h-1.533l.007,3.126h1.509Z" transform="translate(-198.557 -207.941)" fill="#aeb0b3"/><path d="M367.208,510.424a.15.15,0,0,0,.1.142.159.159,0,0,0,.061.012.155.155,0,0,0,.141-.214.15.15,0,0,0-.142-.095A.155.155,0,0,0,367.208,510.424Z" transform="translate(-183.954 -238.162)" fill="#aeb0b3"/><path d="M221.943,459.621h3.879v-2.838h-3.9Z" transform="translate(-67.603 -195.327)" fill="#aeb0b3"/><path d="M394.554,475.659h7.268l-.1-3.126h-7.151Z" transform="translate(-205.854 -207.941)" fill="#aeb0b3"/><path d="M360.7,421.433h-6.982v.116h-.3v-.116h-9.68a8.969,8.969,0,0,1,.673.655,10.742,10.742,0,0,1,1.689,2.471h1.574a10.486,10.486,0,0,1,2.7-1.721l.26-.131a.265.265,0,0,1,.213-.01l1.01.395a.259.259,0,0,1,.166.243l0,1.224H360.8Z" transform="translate(-165.158 -167.017)" fill="#aeb0b3"/><path d="M386.844,438.628h-1.475l.007,3.317h1.451Z" transform="translate(-198.498 -180.787)" fill="#aeb0b3"/><path d="M397.273,442.243l-.017,2.838h4.163l-.207-6.453h-7.007l-.017,3.317h7.08v.3Z" transform="translate(-205.562 -180.787)" fill="#aeb0b3"/><path d="M414.654,489.73h-4.073l-.016,3.125h4.19Z" transform="translate(-218.677 -221.713)" fill="#aeb0b3"/><path d="M393.849,403.788V407h6.972l-.088-2.729.525-.486Z" transform="translate(-205.29 -152.885)" fill="#aeb0b3"/><path d="M358.272,431.145l-.286.147-.014.007c-.342.177-.608.327-.846.474a6.647,6.647,0,0,0-1.17.9l-.018.017q-.075.074-.151.152l-.016.017a7.329,7.329,0,0,0-.5.582l-.052-.014h0l.039.03c-.049.065-.1.131-.148.2l-.026.037c-.047.066-.093.132-.14.2l-.024.036c-.053.079-.106.161-.159.245-.127.2-.257.421-.388.656l-.02.036c-.072.13-.14.256-.208.387s-.13.255-.195.386l-.046.094c-.065.133-.13.269-.2.411v2.593l2,.012.685-.826a.263.263,0,0,1,.328-.062l.712.4a.262.262,0,0,1,.1.352l-.185.344.957.734a.262.262,0,0,1,.006.411l-.868.7.2.289a.261.261,0,0,1-.09.375l-.8.447a.268.268,0,0,1-.313-.045l-.714-.725h-2.008v4.65l2,.012.685-.826a.263.263,0,0,1,.328-.062l.712.4a.263.263,0,0,1,.1.352l-.185.344.957.734a.262.262,0,0,1,.006.411l-.868.705.2.289a.26.26,0,0,1,.038.207.263.263,0,0,1-.127.168l-.8.448a.266.266,0,0,1-.314-.045l-.713-.725h-2.008v2.713a47.407,47.407,0,0,1,4.845,1.2l-.031-21.1Z" transform="translate(-173.146 -174.692)" fill="#aeb0b3"/><path d="M367.208,474.989a.15.15,0,0,0,.1.142.16.16,0,0,0,.061.012.156.156,0,0,0,.141-.214.15.15,0,0,0-.142-.1A.155.155,0,0,0,367.208,474.989Z" transform="translate(-183.954 -209.784)" fill="#aeb0b3"/><path d="M380.512,431.015l.031,21.265.456.146-.046-21.239Z" transform="translate(-194.609 -174.69)" fill="#aeb0b3"/><path d="M389.943,456.783h-4.534l.006,2.838h4.512Z" transform="translate(-198.53 -195.327)" fill="#aeb0b3"/><path d="M357.447,438.628h-1.136a8.995,8.995,0,0,1,.374.947A8.454,8.454,0,0,1,357.447,438.628Z" transform="translate(-175.227 -180.787)" fill="#aeb0b3"/><path d="M356.784,468.7h0l.168-.313-.3-.165-.626.755a.261.261,0,0,1-.2.094l-2.117-.013v1.361h2.117a.264.264,0,0,1,.186.078l.651.661.381-.212-.169-.252a.26.26,0,0,1,.052-.349l.8-.647-.871-.668a.261.261,0,0,1-.1-.2.323.323,0,0,1,0-.06A.257.257,0,0,1,356.784,468.7Zm.3.771a.578.578,0,1,1-.533-.356A.576.576,0,0,1,357.088,469.476Z" transform="translate(-173.146 -204.492)" fill="#aeb0b3"/><path d="M356.953,503.824l-.3-.165-.625.755a.247.247,0,0,1-.209.094l-2.11-.012v1.361h2.117a.26.26,0,0,1,.186.078l.651.661.381-.212-.169-.251a.26.26,0,0,1,.052-.349l.8-.648-.871-.668a.249.249,0,0,1-.072-.09l-.005-.014a.266.266,0,0,1-.022-.106.256.256,0,0,1,.028-.122Zm.135,1.085a.578.578,0,0,1-.533.8.583.583,0,0,1-.222-.044.578.578,0,1,1,.755-.755Z" transform="translate(-173.146 -232.868)" fill="#aeb0b3"/><rect width="7.79" height="3.963" transform="translate(169.094 239.716)" fill="#aeb0b3"/><path d="M294.289,369.015h-2.9l0,2.351h2.907Z" transform="translate(-123.228 -125.037)" fill="#aeb0b3"/><path d="M409.361,309.768v2.489h1.867l-.112-2.246.194-.238Z" transform="translate(-217.713 -77.588)" fill="#aeb0b3"/><path d="M328.712,369.015h-2.9l0,2.351h2.907Z" transform="translate(-150.797 -125.037)" fill="#aeb0b3"/><path d="M275.516,247.251h15.842v.076l.254-.382-.01-4.2-1.919-.021-.011,2.736-2.3-.02-.007-2.7-2.256-.01v2.734l-2.845-.032-.023-2.654-2.3-.014,0,2.657-2.335-.008-.012-2.673-2.191-.01-.015,4.439.131.13Z" transform="translate(-110.415 -23.895)" fill="#aeb0b3"/><path d="M397.61,326.127a.982.982,0,0,1,.367.241h3.985l-.13-2.6H397.61Z" transform="translate(-208.302 -88.798)" fill="#aeb0b3"/><path d="M323.446,310.14h-3.1v3.151h3.28v.3h-7.352V317.3H324Z" transform="translate(-143.16 -77.886)" fill="#aeb0b3"/><path d="M284.645,278.72h2.231v-2.838H284.9v-.167Z" transform="translate(-117.832 -50.316)" fill="#aeb0b3"/><path d="M297.349,279.392h3.346v-1.08h.692v1.08h3.255v-2.838h-7.293Z" transform="translate(-128.006 -50.988)" fill="#aeb0b3"/><path d="M279.02,268.645v-.076h12.649v.3h-2.781V271.7h3.054l-.245-3.165,1.052-1.584H277.306Z" transform="translate(-111.955 -43.301)" fill="#aeb0b3"/><path d="M303.889,310.14h-2.948a.989.989,0,0,1-.726.55.923.923,0,0,1-.834-.3,1.058,1.058,0,0,1-.173-.252H296.1v3.151h7.79Z" transform="translate(-127.005 -77.886)" fill="#aeb0b3"/><path d="M340.4,347.612H336.72v3.963h3.987Z" transform="translate(-159.537 -107.896)" fill="#aeb0b3"/><path d="M281.686,313.291h2.571V310.14h-2.306Z" transform="translate(-115.462 -77.886)" fill="#aeb0b3"/><path d="M324.508,295.557l-.254-3.253h-6.628v2.079a1.033,1.033,0,0,1,.665.987,1.059,1.059,0,0,1-.017.188Z" transform="translate(-144.245 -63.602)" fill="#aeb0b3"/><path d="M283.144,295.557h5.59a1.078,1.078,0,0,1,.584-1.152v-2.1h-5.9Z" transform="translate(-116.63 -63.602)" fill="#aeb0b3"/><path d="M208.4,283.707v3.317l.145.127h11.106v.078l.051-.033-.007-3.562c-.484-.005-.769,0-1.071.006-.274.005-.556.011-1.006.008l-.006,2.523h-2.4v-2.465h-2.183l-.1,2.511-2.4-.083,0-2.431-1.158,0Z" transform="translate(-56.77 -56.657)" fill="#aeb0b3"/><path d="M210.846,302.8l.6.528v.023c-.062,2.482-.142,4.95-.219,7.336l-.065,2.008h2.115v-2.82h-2v-.3h4a1.013,1.013,0,0,1,.513-.546v-2.057h-4.357v-.3h1.833V304.2h-1.789v-.3h8.879l-.022-.494.928-.6Z" transform="translate(-58.729 -72.011)" fill="#aeb0b3"/><path d="M251.087,309.792v2.484h1.622c-.033-.781-.069-1.6-.107-2.484Z" transform="translate(-90.957 -77.607)" fill="#aeb0b3"/><path d="M224.521,312.275h2.225v-1.124h.692v1.124h2.074v-2.484h-4.992Z" transform="translate(-69.681 -77.607)" fill="#aeb0b3"/><path d="M239.173,325.8a1,1,0,0,1,.58.568h3.534v.3h-1.64v2.82h1.775l-.084-1.988c-.051-1.205-.1-2.414-.158-3.733h-4.007Z" transform="translate(-81.415 -88.798)" fill="#aeb0b3"/><path d="M224.575,338.335v2.82h5.082v-2.82h-1.516a1.172,1.172,0,0,1,.007.12,1.037,1.037,0,0,1-.642.983.921.921,0,0,1-1.028-.244,1.067,1.067,0,0,1-.277-.858Z" transform="translate(-69.724 -100.466)" fill="#aeb0b3"/><path d="M207.323,407l0-3.215h-7.186l.269.257L200.254,407Z" transform="translate(-50.154 -152.885)" fill="#aeb0b3"/><path d="M200.806,370.851l0-.047c-.033-.76-.064-1.473-.093-2.153h-3.046l.01,2.6H193.7l.01-2.6h-2.81c-.023.8-.045,1.626-.066,2.476v.047l-2.682.069-.01-2.653-2.475-.123.023,4.307.291.277h50.956l.064-4.344-2.251-.005.026,2.552-2.1,0-.13-2.6h-3.361l.011,2.6-3.965-.016,0-2.58h-2.788l-.134,2.4L219.941,371l-.188-2.427h-2.979v2.649h-3.5l0-2.649h-3.353v2.649h-3.5l0-2.649h-2.355l-.192,2.285h-.044c-.989.029-1.479.019-2.219,0l-.753-.015Z" transform="translate(-38.559 -124.599)" fill="#aeb0b3"/><path d="M275.062,403.788l0,3.215h2.36a8.221,8.221,0,0,1,3.3-1.539l-.38-1.676Z" transform="translate(-110.156 -152.885)" fill="#aeb0b3"/><path d="M244.854,407l0-3.215-7.138,0,0,3.211Z" transform="translate(-80.248 -152.885)" fill="#aeb0b3"/><path d="M239.375,392.991H188.814l2.216,2.113v-.261h46.346Z" transform="translate(-41.084 -144.238)" fill="#aeb0b3"/><path d="M230.882,369.39h-3.361l-.009,2.3h3.379Z" transform="translate(-72.076 -125.337)" fill="#aeb0b3"/><path d="M279.991,331.177h6.926v-3.713H280.3Z" transform="translate(-114.105 -91.76)" fill="#aeb0b3"/><path d="M389.2,371.686l-.01-2.3h-3.361l0,2.283Z" transform="translate(-198.866 -125.337)" fill="#aeb0b3"/><path d="M211.986,356.762h4.847v-2.767H212.07C212.043,354.842,212.014,355.773,211.986,356.762Z" transform="translate(-59.642 -113.008)" fill="#aeb0b3"/><path d="M242.358,353.995h-4.53v2.767h4.648Z" transform="translate(-80.338 -113.008)" fill="#aeb0b3"/><path d="M281.457,346.724h-2.916V346.5l-.352,4.184h3.268Z" transform="translate(-112.662 -107.008)" fill="#aeb0b3"/><path d="M367.591,302.8l.933,1.071h.023l9.495.022v.072l.948-1.165Z" transform="translate(-184.261 -72.01)" fill="#aeb0b3"/><path d="M378.707,287.3v.244l.036-.044.008-3.542-2.07-.026-.1,2.133-2.354-.049-.269-2.166-2.182.015-.034,2.347-2.3.09-.139-2.392-2.126-.091.016,3.482Z" transform="translate(-183.933 -56.806)" fill="#aeb0b3"/><path d="M253.479,435.677c-.041-.083-.081-.164-.121-.244l-.058-.114q-.062-.12-.123-.234l-.048-.09a11.1,11.1,0,0,0-1.1-1.69,6.953,6.953,0,0,0-.545-.6l-.016-.015a6.653,6.653,0,0,0-1.18-.912c-.24-.148-.506-.3-.84-.471l-.022-.012-.287-.147-.254-.128-.017,21.33a48.206,48.206,0,0,1,4.83-1.281V448.2H251.7l-.713.725a.266.266,0,0,1-.314.045l-.8-.448a.261.261,0,0,1-.089-.375l.2-.289-.868-.705a.261.261,0,0,1,.005-.41l.957-.734-.185-.344a.263.263,0,0,1,.1-.352l.711-.4a.261.261,0,0,1,.328.062l.685.827,2-.012v-4.65H251.7l-.713.725a.267.267,0,0,1-.313.045l-.8-.447a.261.261,0,0,1-.09-.375l.2-.289-.868-.7a.261.261,0,0,1,.005-.41l.957-.734-.185-.344a.262.262,0,0,1,.1-.352l.711-.4a.262.262,0,0,1,.328.062l.685.826,2-.012v-2.593c-.057-.124-.114-.243-.171-.36Z" transform="translate(-89.184 -174.691)" fill="#aeb0b3"/><path d="M189.259,524.6h-9.207v-.12l-.005.058-3.773,9.808a54.65,54.65,0,0,1,12.984-6.65Z" transform="translate(-31.042 -249.543)" fill="#aeb0b3"/><path d="M203.243,493.153H195.53v-.3h4.592l-.017-3.125h-4.458l-.353,6.741h7.968Z" transform="translate(-46.273 -221.713)" fill="#aeb0b3"/><path d="M236.735,510.239h.93v-3.318h-.949Z" transform="translate(-79.448 -235.481)" fill="#aeb0b3"/><path d="M244.1,452.662l.427-.144.017-21.5-.441.172Z" transform="translate(-85.363 -174.692)" fill="#aeb0b3"/><path d="M258.239,474.834a.155.155,0,0,0,0,.31.158.158,0,0,0,.061-.013.15.15,0,0,0,.095-.142A.155.155,0,0,0,258.239,474.834Z" transform="translate(-96.561 -209.784)" fill="#aeb0b3"/><path d="M220.97,492.854h4.071V489.73h-4.089Z" transform="translate(-66.823 -221.713)" fill="#aeb0b3"/><path d="M394.8,510.239h7.446l-.107-3.318h-7.321Z" transform="translate(-206.048 -235.481)" fill="#aeb0b3"/><path d="M394.851,525.081h-9.3l.006,2.852a55.1,55.1,0,0,1,13.619,6.846l-4.317-9.323Z" transform="translate(-198.647 -250.025)" fill="#aeb0b3"/><path d="M382.849,338.335v2.685h5.082v-2.685h-1.574a1.087,1.087,0,0,1,.1.447,1.037,1.037,0,0,1-.642.983.922.922,0,0,1-1.028-.244,1.088,1.088,0,0,1-.189-1.186Z" transform="translate(-196.48 -100.466)" fill="#aeb0b3"/><path d="M400.77,338.335h-1.926v2.685H400.8v.3h-4.7v2.9h4.961Z" transform="translate(-207.095 -100.466)" fill="#aeb0b3"/><path d="M382.8,312.207h2.257v-.8h.692v.8h2.041v-2.489l-4.991-.011Z" transform="translate(-196.44 -77.539)" fill="#aeb0b3"/><path d="M370.409,355.436h4.818v-2.9h-2.341l-.05.011h-.249v-.011h-2.005v-.2Z" transform="translate(-186.518 -111.682)" fill="#aeb0b3"/><path d="M372.96,312.191h1.66v-2.5l-1.535,0,.014.016v.02Z" transform="translate(-188.561 -77.522)" fill="#aeb0b3"/><path d="M371.308,329.352h2v-2.685h-1.826v-.3h4.068a.944.944,0,0,1,.3-.219v-2.384H371.62Z" transform="translate(-187.238 -88.798)" fill="#aeb0b3"/><path d="M258.239,510.269a.155.155,0,0,0,0,.309.158.158,0,0,0,.061-.012.15.15,0,0,0,.095-.142A.154.154,0,0,0,258.239,510.269Z" transform="translate(-96.561 -238.162)" fill="#aeb0b3"/><path d="M254.67,504.415l-.625-.755-.3.164.167.313a.256.256,0,0,1,.028.122.271.271,0,0,1-.022.105l-.007.016a.242.242,0,0,1-.071.088l-.87.668.8.648a.261.261,0,0,1,.052.35l-.17.251.38.212.651-.661a.263.263,0,0,1,.186-.078h2.118V504.5l-2.116.013A.262.262,0,0,1,254.67,504.415Zm-.3,1.25a.578.578,0,1,1,.356-.534A.577.577,0,0,1,254.368,505.664Z" transform="translate(-92.469 -232.869)" fill="#aeb0b3"/><path d="M254.67,468.982l-.625-.755-.3.165.167.313a.253.253,0,0,1,.023.071.339.339,0,0,1,0,.061.259.259,0,0,1-.1.2l-.87.668.8.647a.26.26,0,0,1,.052.349l-.17.251.38.212.651-.661a.263.263,0,0,1,.186-.078h2.118v-1.361l-2.116.013A.263.263,0,0,1,254.67,468.982Zm-.3,1.249a.578.578,0,1,1,.356-.533A.575.575,0,0,1,254.368,470.231Z" transform="translate(-92.469 -204.492)" fill="#aeb0b3"/><path d="M137.514,264.368a35.4,35.4,0,1,0,70.8,0v-51.48h-70.8Zm.847-50.633H207.47v50.633a34.555,34.555,0,1,1-69.109,0Z" transform="translate(0 0)" fill="#aeb0b3"/></g></svg>