<svg xmlns="http://www.w3.org/2000/svg" width="101.001" height="101.002" viewBox="0 0 101.001 101.002"><g transform="translate(-246.866 -371.245)"><path d="M2334.365,2688.747a49.844,49.844,0,1,1,19.463-3.929A49.683,49.683,0,0,1,2334.365,2688.747Zm18.24-9.947h0a2.4,2.4,0,0,0,.3.393.419.419,0,0,0,.285.13.463.463,0,0,0,.309-.113.343.343,0,0,0,.137-.265,1.894,1.894,0,0,0-.088-.369,1.785,1.785,0,0,1-.088-.549q0-.126,0-.242v-.06c0-.073,0-.143,0-.211v-.561a2.011,2.011,0,0,0-.141-.83.931.931,0,0,0-.5-.465,2.557,2.557,0,0,0-.971-.145,2.51,2.51,0,0,0-.923.15,1.312,1.312,0,0,0-.545.382.788.788,0,0,0-.176.479.332.332,0,0,0,.117.264.414.414,0,0,0,.271.1.3.3,0,0,0,.229-.065c.039-.047.1-.139.182-.264a.878.878,0,0,1,.311-.3,1.148,1.148,0,0,1,.535-.1.661.661,0,0,1,.548.177.981.981,0,0,1,.149.544l-.1.028-.014,0c-.153.042-.3.081-.435.113s-.285.065-.483.106l-.121.026c-.222.044-.379.076-.443.091a1.233,1.233,0,0,0-.668.365.928.928,0,0,0-.245.654,1.02,1.02,0,0,0,.57.913,1.339,1.339,0,0,0,.63.14,1.954,1.954,0,0,0,.715-.123,2.983,2.983,0,0,0,.652-.4Zm-5.932-3.279a.466.466,0,0,0-.223.056.518.518,0,0,0-.159.158.337.337,0,0,0-.059.189.567.567,0,0,0,.024.148.961.961,0,0,0,.054.171c.021.053.041.106.064.162l.891,2.2c.1.237.155.361.189.427a.616.616,0,0,0,.176.2.508.508,0,0,0,.317.086.534.534,0,0,0,.264-.055.475.475,0,0,0,.178-.166,1.106,1.106,0,0,0,.131-.232l.008-.016c.025-.066.049-.126.069-.178l.027-.068.9-2.226.024-.057c.016-.037.032-.076.043-.11a1.446,1.446,0,0,0,.056-.154.659.659,0,0,0,.018-.146.37.37,0,0,0-.12-.275.424.424,0,0,0-.305-.12.352.352,0,0,0-.283.109,1.284,1.284,0,0,0-.188.382l-.817,2.217-.759-2.121a1.863,1.863,0,0,0-.194-.452A.351.351,0,0,0,2346.674,2675.521Zm-2.581.083a.484.484,0,0,0-.325.093.294.294,0,0,0-.114.242.309.309,0,0,0,.109.242.445.445,0,0,0,.308.1h.123v1.8a3.1,3.1,0,0,0,.068.7.691.691,0,0,0,.3.4,1.171,1.171,0,0,0,.662.146,1.769,1.769,0,0,0,.714-.113.383.383,0,0,0,.247-.349.327.327,0,0,0-.09-.224.285.285,0,0,0-.208-.093,1.172,1.172,0,0,0-.218.029,1.128,1.128,0,0,1-.224.029.3.3,0,0,1-.22-.074.337.337,0,0,1-.076-.192,2.006,2.006,0,0,1-.02-.336v-1.725h.176a.96.96,0,0,0,.428-.075.272.272,0,0,0,.146-.263.307.307,0,0,0-.1-.242.443.443,0,0,0-.306-.093h-.344v-.641a1.851,1.851,0,0,0-.023-.362.413.413,0,0,0-.123-.224.462.462,0,0,0-.321-.129.414.414,0,0,0-.229.06.446.446,0,0,0-.158.155.548.548,0,0,0-.068.22,3.423,3.423,0,0,0-.012.36v.561Zm-3.669,2.344a.374.374,0,0,0-.386.375.8.8,0,0,0,.173.463,1.267,1.267,0,0,0,.532.385,2.177,2.177,0,0,0,.863.152,2.5,2.5,0,0,0,.9-.14,1.146,1.146,0,0,0,.556-.418,1.128,1.128,0,0,0,.185-.662.784.784,0,0,0-.138-.458,1.185,1.185,0,0,0-.417-.349,3.024,3.024,0,0,0-.714-.249c-.184-.046-.338-.089-.462-.123l-.025-.007-.091-.025a1.041,1.041,0,0,1-.331-.154.294.294,0,0,1-.124-.245.316.316,0,0,1,.171-.269.737.737,0,0,1,.417-.106.8.8,0,0,1,.394.082.9.9,0,0,1,.25.218,1.709,1.709,0,0,0,.23.247.352.352,0,0,0,.242.083.443.443,0,0,0,.309-.1.351.351,0,0,0,.106-.264.533.533,0,0,0-.1-.3,1.081,1.081,0,0,0-.294-.282,1.592,1.592,0,0,0-.485-.2,2.476,2.476,0,0,0-.654-.075,1.884,1.884,0,0,0-.791.148,1.2,1.2,0,0,0-.5.4.914.914,0,0,0-.17.529.821.821,0,0,0,.181.535,1.326,1.326,0,0,0,.49.345,4.868,4.868,0,0,0,.786.251,2.19,2.19,0,0,1,.614.217.393.393,0,0,1,.19.36.362.362,0,0,1-.179.287.782.782,0,0,1-.463.129.9.9,0,0,1-.892-.5.786.786,0,0,0-.151-.2A.317.317,0,0,0,2340.423,2677.947Zm-2,.733v.12a.566.566,0,0,0,.127.386.4.4,0,0,0,.318.138.4.4,0,0,0,.314-.13.6.6,0,0,0,.122-.4v-2.712a.6.6,0,0,0-.128-.422.427.427,0,0,0-.335-.137.443.443,0,0,0-.34.138.6.6,0,0,0-.131.421v1.138a3.131,3.131,0,0,1-.076.873.873.873,0,0,1-.306.365.791.791,0,0,1-.445.141.573.573,0,0,1-.389-.127.634.634,0,0,1-.2-.347,2.508,2.508,0,0,1-.056-.548v-1.5a.616.616,0,0,0-.127-.421.457.457,0,0,0-.344-.138.432.432,0,0,0-.338.137.607.607,0,0,0-.128.422v1.856a1.688,1.688,0,0,0,.179.856,1,1,0,0,0,.417.386,1.286,1.286,0,0,0,.607.144,1.621,1.621,0,0,0,.5-.072,1.35,1.35,0,0,0,.4-.213,2.076,2.076,0,0,0,.35-.354Zm-4.883-3.159c-.3,0-.455.212-.455.631v2.6a.62.62,0,0,0,.127.424.441.441,0,0,0,.337.143.434.434,0,0,0,.337-.14.6.6,0,0,0,.135-.427v-.782c0-.253.009-.5.027-.713a2.069,2.069,0,0,1,.1-.506.725.725,0,0,1,.205-.322.507.507,0,0,1,.335-.106,1.211,1.211,0,0,1,.348.06,1.156,1.156,0,0,0,.251.065.371.371,0,0,0,.255-.112.364.364,0,0,0,.12-.282.445.445,0,0,0-.282-.393,1.18,1.18,0,0,0-.572-.145.71.71,0,0,0-.471.145,1.562,1.562,0,0,0-.341.441.882.882,0,0,0-.117-.441A.377.377,0,0,0,2333.538,2675.521Zm-2.273,3.178v.093a.579.579,0,0,0,.123.394.448.448,0,0,0,.638.008.569.569,0,0,0,.122-.4v-4.127a.6.6,0,0,0-.112-.4.416.416,0,0,0-.329-.134.383.383,0,0,0-.327.144.687.687,0,0,0-.117.437v1.383a1.9,1.9,0,0,0-.54-.429,1.517,1.517,0,0,0-.682-.134,1.42,1.42,0,0,0-1.128.49,2.01,2.01,0,0,0-.431,1.371,2.607,2.607,0,0,0,.109.767,1.915,1.915,0,0,0,.314.623,1.443,1.443,0,0,0,.5.4,1.375,1.375,0,0,0,.62.14,1.361,1.361,0,0,0,.469-.072,1.155,1.155,0,0,0,.4-.2,2.151,2.151,0,0,0,.374-.349Zm9.243-4.564a.745.745,0,0,0-.121,0c-.016,0-.024.014-.024.041a.444.444,0,0,0,.1.167l.392.462.054.063.007.008c.066.076.109.125.13.146a.29.29,0,0,0,.125.072.827.827,0,0,0,.242.027h.192a1.226,1.226,0,0,0,.191-.013.353.353,0,0,0,.141-.057.372.372,0,0,0,.1-.092l.042-.049.02-.023.07-.081.375-.459a.428.428,0,0,0,.106-.17c0-.03-.046-.045-.138-.045h-.271a.364.364,0,0,0-.2.04,1.558,1.558,0,0,0-.2.2l-.335.407-.344-.407a1.188,1.188,0,0,0-.186-.2.339.339,0,0,0-.2-.045Zm10.677-3.426a.4.4,0,0,0-.282.109.362.362,0,0,0-.117.279.626.626,0,0,0,.208.44,1.461,1.461,0,0,0,.585.349,2.542,2.542,0,0,0,.865.137,3.12,3.12,0,0,0,.885-.106,1.347,1.347,0,0,0,.572-.325,1.325,1.325,0,0,0,.32-.554,2.85,2.85,0,0,0,.1-.805v-2.72a1.168,1.168,0,0,0-.084-.508.368.368,0,0,0-.362-.176.392.392,0,0,0-.311.132.534.534,0,0,0-.119.379v.122a1.9,1.9,0,0,0-.543-.479,1.5,1.5,0,0,0-.686-.149,1.573,1.573,0,0,0-.613.118,1.427,1.427,0,0,0-.49.351,1.62,1.62,0,0,0-.329.575,2.266,2.266,0,0,0-.115.76,2.452,2.452,0,0,0,.19,1,1.521,1.521,0,0,0,.539.67,1.423,1.423,0,0,0,.823.24,1.368,1.368,0,0,0,.676-.156,1.532,1.532,0,0,0,.495-.458c0,.335-.011.54-.019.666a1.094,1.094,0,0,1-.1.391.556.556,0,0,1-.275.283,1.517,1.517,0,0,1-.885.066.619.619,0,0,1-.23-.1.846.846,0,0,1-.179-.162l0,0c-.051-.059-.1-.12-.15-.18A.467.467,0,0,0,2351.184,2670.709Zm6.27-.6h0a2.194,2.194,0,0,0,.3.39.418.418,0,0,0,.288.133.465.465,0,0,0,.306-.114.348.348,0,0,0,.136-.266,1.807,1.807,0,0,0-.087-.365,1.849,1.849,0,0,1-.086-.553c0-.1,0-.19,0-.279v-.013c0-.076,0-.149,0-.218v-.561a2.026,2.026,0,0,0-.147-.834.9.9,0,0,0-.5-.464,2.673,2.673,0,0,0-.969-.141,2.5,2.5,0,0,0-.924.146,1.248,1.248,0,0,0-.543.386.774.774,0,0,0-.176.48.325.325,0,0,0,.112.258.4.4,0,0,0,.272.1.319.319,0,0,0,.231-.063c.038-.047.1-.14.181-.264a.867.867,0,0,1,.313-.3,1.111,1.111,0,0,1,.534-.1.649.649,0,0,1,.545.176.96.96,0,0,1,.151.537c-.173.055-.352.1-.547.148-.14.034-.3.069-.489.109l-.019,0-.1.021c-.124.024-.223.044-.3.06l-.024.005-.122.025a1.23,1.23,0,0,0-.668.365.941.941,0,0,0-.245.657,1.008,1.008,0,0,0,.146.527,1.115,1.115,0,0,0,.421.386,1.385,1.385,0,0,0,.635.138,1.852,1.852,0,0,0,.711-.13,2.9,2.9,0,0,0,.653-.393Zm-9.184-3.279a2.1,2.1,0,0,0-.766.132,1.727,1.727,0,0,0-.591.386,1.613,1.613,0,0,0-.37.606,2.142,2.142,0,0,0-.133.777,2.225,2.225,0,0,0,.127.77,1.726,1.726,0,0,0,.378.6,1.7,1.7,0,0,0,.589.391,2.063,2.063,0,0,0,.766.135,2.129,2.129,0,0,0,.769-.133,1.639,1.639,0,0,0,.593-.391,1.677,1.677,0,0,0,.374-.6,2.129,2.129,0,0,0,.129-.772,2.2,2.2,0,0,0-.124-.771,1.69,1.69,0,0,0-.375-.6,1.741,1.741,0,0,0-.6-.392A2.045,2.045,0,0,0,2348.271,2666.83Zm-4.145.721a.514.514,0,0,1,.511.245,1.574,1.574,0,0,1,.131.707v1.56a.621.621,0,0,0,.13.421.423.423,0,0,0,.335.148.413.413,0,0,0,.335-.143.615.615,0,0,0,.131-.427v-1.741a3.469,3.469,0,0,0-.029-.508,1.065,1.065,0,0,0-.117-.37,1.048,1.048,0,0,0-.437-.456,1.337,1.337,0,0,0-.661-.157,1.407,1.407,0,0,0-.674.151,1.606,1.606,0,0,0-.54.479v-.115a.635.635,0,0,0-.061-.283.423.423,0,0,0-.156-.177.43.43,0,0,0-.224-.055.41.41,0,0,0-.322.131.61.61,0,0,0-.111.4v2.7a.6.6,0,0,0,.13.421.415.415,0,0,0,.33.148.457.457,0,0,0,.344-.138.637.637,0,0,0,.133-.432V2668.9a2.991,2.991,0,0,1,.066-.783.845.845,0,0,1,.3-.41A.767.767,0,0,1,2344.126,2667.551Zm-3.175-2.116a.428.428,0,0,0-.338.143.638.638,0,0,0-.127.426v4.059a.62.62,0,0,0,.129.421.426.426,0,0,0,.335.148.449.449,0,0,0,.341-.138.616.616,0,0,0,.13-.432V2666a.6.6,0,0,0-.13-.427A.446.446,0,0,0,2340.951,2665.435Zm-1.9,1.4a.439.439,0,0,0-.335.138.613.613,0,0,0-.13.418v2.677a.608.608,0,0,0,.13.421.428.428,0,0,0,.335.148.438.438,0,0,0,.339-.143.622.622,0,0,0,.132-.427v-2.7a.567.567,0,0,0-.132-.392A.452.452,0,0,0,2339.049,2666.83Zm-4.125,0a.451.451,0,0,0-.22.059.44.44,0,0,0-.166.154.36.36,0,0,0-.058.189.467.467,0,0,0,.027.149,1.605,1.605,0,0,0,.053.168c.011.034.024.066.037.1s.019.047.027.07l.889,2.2c.074.174.133.3.164.369l.025.054a.781.781,0,0,0,.18.2.522.522,0,0,0,.317.085.559.559,0,0,0,.261-.058.427.427,0,0,0,.178-.162.93.93,0,0,0,.136-.254l.01-.022.005-.012c.034-.081.063-.15.083-.2l.9-2.229c.017-.04.031-.078.043-.112l.021-.055a.877.877,0,0,0,.053-.151.622.622,0,0,0,.021-.147.368.368,0,0,0-.122-.276.437.437,0,0,0-.3-.12.343.343,0,0,0-.282.111,1.319,1.319,0,0,0-.189.375l-.815,2.221-.758-2.128a2.225,2.225,0,0,0-.2-.447A.356.356,0,0,0,2334.924,2666.83Zm-1.589,0a.428.428,0,0,0-.333.138.615.615,0,0,0-.133.418v2.677a.619.619,0,0,0,.133.421.424.424,0,0,0,.333.148.419.419,0,0,0,.338-.143.586.586,0,0,0,.139-.427v-2.7a.534.534,0,0,0-.139-.392A.431.431,0,0,0,2333.335,2666.83Zm-2.941-.006a1.985,1.985,0,0,0-1.011.24,1.6,1.6,0,0,0-.645.681,2.283,2.283,0,0,0-.219,1.02,1.891,1.891,0,0,0,.487,1.356,1.791,1.791,0,0,0,1.354.509,2.3,2.3,0,0,0,.732-.112,1.658,1.658,0,0,0,.543-.29,1.283,1.283,0,0,0,.32-.378.79.79,0,0,0,.1-.378.418.418,0,0,0-.112-.275.363.363,0,0,0-.284-.127.336.336,0,0,0-.245.087.89.89,0,0,0-.186.245,1.106,1.106,0,0,1-.356.4.849.849,0,0,1-.48.132.949.949,0,0,1-.385-.08.838.838,0,0,1-.3-.239,1.107,1.107,0,0,1-.186-.375,1.638,1.638,0,0,1-.067-.487,1.428,1.428,0,0,1,.253-.887.886.886,0,0,1,1.146-.193,1.366,1.366,0,0,1,.359.393,1.158,1.158,0,0,0,.169.192.334.334,0,0,0,.2.06.438.438,0,0,0,.3-.113.382.382,0,0,0,.123-.291.738.738,0,0,0-.107-.354,1.407,1.407,0,0,0-.325-.357,1.807,1.807,0,0,0-.517-.274A1.944,1.944,0,0,0,2330.394,2666.823Zm-17.032-3.191a1.9,1.9,0,1,0,1.9,1.905A1.907,1.907,0,0,0,2313.362,2663.633Zm25.693,1.845a.475.475,0,0,0-.328.127.465.465,0,0,0-.005.668.518.518,0,0,0,.333.121.471.471,0,0,0,.327-.125.426.426,0,0,0,.138-.336.415.415,0,0,0-.14-.34A.489.489,0,0,0,2339.055,2665.478Zm-5.706,0a.489.489,0,0,0-.333.127.456.456,0,0,0,0,.668.508.508,0,0,0,.336.121.475.475,0,0,0,.324-.125.419.419,0,0,0,.139-.336.41.41,0,0,0-.141-.34A.493.493,0,0,0,2333.349,2665.478Zm13.4-2.976a.351.351,0,0,0-.261.1.356.356,0,0,0-.1.271.367.367,0,0,0,.218.339,1.421,1.421,0,0,0,.645.115.945.945,0,0,0,1.054-.906,5.1,5.1,0,0,0,.021-.556v-3.175a.612.612,0,0,0-.124-.421.45.45,0,0,0-.338-.139.44.44,0,0,0-.339.142.581.581,0,0,0-.132.417v3.156a1.61,1.61,0,0,1-.061.529.258.258,0,0,1-.253.148l-.033,0h-.006c-.025,0-.052-.005-.085-.007s-.078,0-.108-.008h-.009l-.019,0-.02,0h-.015Zm-28.689-3.053a1.3,1.3,0,0,0,0,2.6h3.973a1.627,1.627,0,0,0,1.6-1.617v-19.991a1.629,1.629,0,0,0-1.6-1.617h-3.973a1.3,1.3,0,0,0,0,2.6h2.388v18.017Zm-13.424-20.622a1.629,1.629,0,0,0-1.6,1.617v19.987a1.629,1.629,0,0,0,1.6,1.621h3.973a1.3,1.3,0,1,0,0-2.6h-2.389v-18.017h2.389a1.3,1.3,0,1,0,0-2.6Zm40.144,19.307a2.054,2.054,0,0,0-.764.137,1.664,1.664,0,0,0-.594.388,1.691,1.691,0,0,0-.372.6,2.3,2.3,0,0,0-.125.78,2.267,2.267,0,0,0,.125.771,1.71,1.71,0,0,0,.966.994,2.194,2.194,0,0,0,1.535,0,1.624,1.624,0,0,0,.967-.994,2.142,2.142,0,0,0,.13-.771,2.211,2.211,0,0,0-.125-.771,1.841,1.841,0,0,0-.376-.608,1.749,1.749,0,0,0-.6-.388A2.039,2.039,0,0,0,2344.784,2658.134Zm-5.2,0a.454.454,0,0,0-.222.062.471.471,0,0,0-.166.155.385.385,0,0,0-.056.188.66.66,0,0,0,.024.148c.013.055.03.106.05.168.021.046.04.1.059.144l.008.021.892,2.2a3.888,3.888,0,0,0,.191.427.505.505,0,0,0,.49.293.559.559,0,0,0,.261-.059.529.529,0,0,0,.185-.167,1.283,1.283,0,0,0,.131-.248c.049-.116.078-.187.1-.247l.9-2.23.043-.106.024-.059a.98.98,0,0,0,.053-.152.761.761,0,0,0,.019-.143.366.366,0,0,0-.124-.276.416.416,0,0,0-.3-.123.346.346,0,0,0-.283.113,1.463,1.463,0,0,0-.189.378l-.816,2.222-.756-2.129a2.11,2.11,0,0,0-.2-.446A.35.35,0,0,0,2339.583,2658.134Zm-5.618,3.282h0a2.005,2.005,0,0,0,.3.388.409.409,0,0,0,.284.139.468.468,0,0,0,.31-.12.346.346,0,0,0,.13-.262,1.776,1.776,0,0,0-.085-.369,1.94,1.94,0,0,1-.088-.549c0-.221,0-.379,0-.513v-.559a2.032,2.032,0,0,0-.14-.838.929.929,0,0,0-.5-.462,2.691,2.691,0,0,0-.972-.146,2.477,2.477,0,0,0-.922.152,1.253,1.253,0,0,0-.54.382.771.771,0,0,0-.181.482.337.337,0,0,0,.113.259.406.406,0,0,0,.275.1c.119,0,.2-.021.229-.061s.1-.129.185-.262a.832.832,0,0,1,.306-.3,1.139,1.139,0,0,1,.536-.1.682.682,0,0,1,.549.17,1.009,1.009,0,0,1,.149.544c-.181.052-.36.1-.548.145-.156.039-.343.079-.541.121l-.064.014c-.251.05-.387.078-.441.094a1.218,1.218,0,0,0-.674.362.957.957,0,0,0-.242.652,1.047,1.047,0,0,0,.146.533,1.058,1.058,0,0,0,.424.382,1.318,1.318,0,0,0,.63.145,1.841,1.841,0,0,0,.715-.134,2.942,2.942,0,0,0,.652-.393Zm-4.817-3.282c-.3,0-.455.213-.455.634v2.605a.623.623,0,0,0,.129.424.421.421,0,0,0,.336.147.429.429,0,0,0,.337-.145.591.591,0,0,0,.137-.426v-.781c0-.291.008-.526.023-.717a2.437,2.437,0,0,1,.1-.506.686.686,0,0,1,.205-.318.5.5,0,0,1,.333-.108,1.2,1.2,0,0,1,.349.062,1.216,1.216,0,0,0,.247.064.387.387,0,0,0,.375-.394.443.443,0,0,0-.277-.394,1.261,1.261,0,0,0-.572-.147.7.7,0,0,0-.468.147,1.612,1.612,0,0,0-.352.437.775.775,0,0,0-.112-.437A.381.381,0,0,0,2329.149,2658.134Zm6.768.083a.486.486,0,0,0-.319.1.314.314,0,0,0-.11.255c0,.147.049.24.147.275a1.55,1.55,0,0,0,.437.051h1.388c-.052.076-.125.167-.228.289s-.225.264-.357.409-.276.311-.465.517c-.15.17-.329.368-.562.624-.187.211-.324.367-.383.446a.415.415,0,0,0-.094.243.4.4,0,0,0,.132.316.577.577,0,0,0,.4.121h2.533a.507.507,0,0,0,.341-.1.334.334,0,0,0,.112-.258.353.353,0,0,0-.114-.271.472.472,0,0,0-.338-.1h-1.831l1.714-1.919.085-.091c.028-.031.054-.058.078-.082.042-.048.071-.087.1-.121l.005-.007a.565.565,0,0,0,.069-.13.483.483,0,0,0,.03-.157.318.318,0,0,0-.161-.314.939.939,0,0,0-.454-.088Zm11.953-1.432a.46.46,0,0,0-.328.128.418.418,0,0,0-.144.328.433.433,0,0,0,.139.341.5.5,0,0,0,.333.117.48.48,0,0,0,.329-.121.428.428,0,0,0,.132-.338.42.42,0,0,0-.138-.341A.486.486,0,0,0,2347.87,2656.785Zm14.937-4.062h0a2.146,2.146,0,0,0,.3.392.435.435,0,0,0,.287.135.476.476,0,0,0,.309-.12.364.364,0,0,0,.133-.26,1.665,1.665,0,0,0-.085-.37,1.767,1.767,0,0,1-.088-.551c0-.1,0-.192,0-.281v-.015c0-.076,0-.148,0-.217v-.556a2.086,2.086,0,0,0-.144-.839.911.911,0,0,0-.5-.457,2.637,2.637,0,0,0-.974-.149,2.492,2.492,0,0,0-.922.151,1.3,1.3,0,0,0-.548.384.83.83,0,0,0-.173.481.324.324,0,0,0,.115.258.38.38,0,0,0,.273.1c.118,0,.2-.022.226-.063a2.4,2.4,0,0,0,.181-.264.918.918,0,0,1,.31-.3,1.155,1.155,0,0,1,.538-.1c.281,0,.466.058.547.174a.954.954,0,0,1,.149.54c-.184.057-.355.1-.507.139l-.042.01c-.183.043-.382.085-.607.13l-.078.016-.1.02-.019,0c-.125.025-.207.042-.245.053a1.228,1.228,0,0,0-.67.364.941.941,0,0,0-.246.656,1,1,0,0,0,.15.527,1.071,1.071,0,0,0,.422.385,1.328,1.328,0,0,0,.632.143,1.81,1.81,0,0,0,.71-.131,3,3,0,0,0,.656-.4Zm-9.589,0h0a2.249,2.249,0,0,0,.3.392.422.422,0,0,0,.288.135.462.462,0,0,0,.306-.12.343.343,0,0,0,.133-.26,1.663,1.663,0,0,0-.085-.37,1.794,1.794,0,0,1-.09-.551c0-.186,0-.36,0-.514s0-.338,0-.556a2,2,0,0,0-.147-.839.892.892,0,0,0-.5-.457,2.572,2.572,0,0,0-.972-.149,2.479,2.479,0,0,0-.918.151,1.278,1.278,0,0,0-.545.384.787.787,0,0,0-.179.481.333.333,0,0,0,.117.258.4.4,0,0,0,.275.1.3.3,0,0,0,.227-.063,2.206,2.206,0,0,0,.182-.264.9.9,0,0,1,.307-.3,1.159,1.159,0,0,1,.535-.1c.284,0,.465.057.552.174a1.021,1.021,0,0,1,.149.54c-.194.059-.374.1-.518.141l-.034.009c-.176.042-.379.085-.6.13l-.1.02-.018,0c-.171.035-.275.057-.323.07a1.233,1.233,0,0,0-.672.364.964.964,0,0,0-.242.656,1.021,1.021,0,0,0,.569.913,1.36,1.36,0,0,0,.634.143,1.83,1.83,0,0,0,.71-.131,2.923,2.923,0,0,0,.657-.4Zm-4.191-.1v.094a.565.565,0,0,0,.125.4.408.408,0,0,0,.317.138.424.424,0,0,0,.322-.131.622.622,0,0,0,.124-.405v-4.128a.584.584,0,0,0-.117-.4.411.411,0,0,0-.329-.138.386.386,0,0,0-.325.148.687.687,0,0,0-.117.434v1.384a1.9,1.9,0,0,0-.546-.432,1.518,1.518,0,0,0-.678-.138,1.448,1.448,0,0,0-1.129.491,2.028,2.028,0,0,0-.431,1.368,2.772,2.772,0,0,0,.109.772,1.9,1.9,0,0,0,.321.62,1.442,1.442,0,0,0,.5.407,1.364,1.364,0,0,0,.621.143,1.432,1.432,0,0,0,.865-.276,2.532,2.532,0,0,0,.371-.352Zm-4.372.1h0a2.1,2.1,0,0,0,.3.392.409.409,0,0,0,.281.135.448.448,0,0,0,.31-.12.345.345,0,0,0,.138-.26,1.653,1.653,0,0,0-.088-.37,1.793,1.793,0,0,1-.088-.551c0-.118,0-.231,0-.337v-.177q0-.1,0-.225c0-.1,0-.211,0-.332a2.034,2.034,0,0,0-.148-.839.9.9,0,0,0-.5-.457,2.579,2.579,0,0,0-.972-.149,2.505,2.505,0,0,0-.924.151,1.248,1.248,0,0,0-.543.384.8.8,0,0,0-.176.481.321.321,0,0,0,.114.258.4.4,0,0,0,.272.1c.12,0,.195-.021.229-.063a2.914,2.914,0,0,0,.184-.264.866.866,0,0,1,.309-.3,1.148,1.148,0,0,1,.536-.1.658.658,0,0,1,.547.174.961.961,0,0,1,.149.54c-.165.051-.315.09-.461.128l-.021.005-.063.016c-.153.036-.345.077-.6.13l-.144.029-.019,0c-.144.029-.239.048-.284.061a1.182,1.182,0,0,0-.665.364.944.944,0,0,0-.242.656.989.989,0,0,0,.144.527,1.071,1.071,0,0,0,.419.385,1.35,1.35,0,0,0,.634.143,1.822,1.822,0,0,0,.714-.131,3.1,3.1,0,0,0,.654-.4Zm-3.809-4.671a.433.433,0,0,0-.338.144.619.619,0,0,0-.121.427v4.059a.619.619,0,0,0,.127.42.461.461,0,0,0,.672.005.608.608,0,0,0,.137-.426v-4.059a.628.628,0,0,0-.133-.43A.443.443,0,0,0,2340.846,2648.051Zm-2.808,3.411h0l.827,1.36a2.228,2.228,0,0,0,.25.333.365.365,0,0,0,.264.094.409.409,0,0,0,.319-.13.491.491,0,0,0,.128-.351.381.381,0,0,0-.048-.165c-.029-.057-.076-.134-.156-.258l-.958-1.509.5-.456c.251-.224.378-.409.378-.548a.379.379,0,0,0-.113-.282.41.41,0,0,0-.293-.109.436.436,0,0,0-.248.074,2.61,2.61,0,0,0-.3.283l-1.054,1.1v-2.271a.644.644,0,0,0-.125-.434.43.43,0,0,0-.346-.148.4.4,0,0,0-.341.162.784.784,0,0,0-.12.473v4a.642.642,0,0,0,.12.423.434.434,0,0,0,.341.146.446.446,0,0,0,.33-.146.572.572,0,0,0,.14-.418v-.745l.508-.479Zm-3.311,1.26h0a1.9,1.9,0,0,0,.3.392.411.411,0,0,0,.284.135.473.473,0,0,0,.307-.12.345.345,0,0,0,.132-.26,1.663,1.663,0,0,0-.085-.37,1.877,1.877,0,0,1-.088-.551c0-.059,0-.116,0-.172,0-.115,0-.233.006-.342v-.556a1.979,1.979,0,0,0-.148-.839.893.893,0,0,0-.5-.457,2.584,2.584,0,0,0-.972-.149,2.534,2.534,0,0,0-.921.151,1.3,1.3,0,0,0-.545.384.8.8,0,0,0-.176.481.318.318,0,0,0,.12.258.378.378,0,0,0,.272.1.3.3,0,0,0,.226-.063c.035-.043.092-.125.185-.264a.866.866,0,0,1,.306-.3,1.136,1.136,0,0,1,.534-.1c.283,0,.463.057.549.174a.97.97,0,0,1,.149.54c-.186.058-.354.1-.517.141l-.032.008c-.158.038-.362.082-.6.13l-.1.021-.026.005c-.165.034-.265.054-.315.067a1.222,1.222,0,0,0-.666.364.938.938,0,0,0-.244.656,1.008,1.008,0,0,0,.15.527,1.023,1.023,0,0,0,.419.385,1.326,1.326,0,0,0,.632.143,1.806,1.806,0,0,0,.711-.131,2.991,2.991,0,0,0,.658-.4Zm22.2-3.2a.484.484,0,0,0-.317.1.324.324,0,0,0-.114.255c0,.148.05.24.149.272a1.407,1.407,0,0,0,.436.052h1.39a3.392,3.392,0,0,1-.227.288c-.1.118-.22.256-.356.41-.071.077-.143.156-.217.239s-.166.185-.255.281c-.1.111-.211.233-.327.362l-.026.029-.206.229c-.182.207-.318.366-.384.448a.392.392,0,0,0-.093.24.406.406,0,0,0,.133.321.587.587,0,0,0,.4.12h2.539a.488.488,0,0,0,.341-.105.323.323,0,0,0,.109-.255.356.356,0,0,0-.112-.269.482.482,0,0,0-.338-.1h-1.837l1.72-1.916.065-.073.016-.017.076-.085a1.068,1.068,0,0,0,.1-.128.584.584,0,0,0,.069-.132.438.438,0,0,0,.032-.156.334.334,0,0,0-.157-.313.941.941,0,0,0-.46-.088Zm-28.08,0a.481.481,0,0,0-.319.1.318.318,0,0,0-.113.255c0,.149.049.241.146.272a1.442,1.442,0,0,0,.436.052h1.4c-.068.092-.146.188-.229.288l-.013.016c-.094.11-.207.244-.347.394l-.205.228c-.084.094-.171.192-.263.292s-.217.239-.336.373l-.053.06-.169.188c-.174.2-.315.359-.388.448a.419.419,0,0,0-.091.24.41.41,0,0,0,.131.321.6.6,0,0,0,.4.12h2.535a.491.491,0,0,0,.339-.105.315.315,0,0,0,.108-.255.35.35,0,0,0-.111-.269.476.476,0,0,0-.337-.1h-1.833l1.713-1.916.127-.14.02-.021.013-.014.048-.058.008-.01c.018-.021.034-.041.048-.06a.691.691,0,0,0,.067-.132.394.394,0,0,0,.031-.156.332.332,0,0,0-.158-.313.909.909,0,0,0-.456-.088Zm36.615-5.5h0a2.156,2.156,0,0,0,.3.391.432.432,0,0,0,.288.134.452.452,0,0,0,.306-.117.345.345,0,0,0,.135-.264,1.71,1.71,0,0,0-.086-.367,1.763,1.763,0,0,1-.088-.551v-.163c0-.124,0-.24,0-.348v-.559a2.056,2.056,0,0,0-.144-.836.924.924,0,0,0-.5-.463,2.651,2.651,0,0,0-.969-.143,2.525,2.525,0,0,0-.922.148,1.228,1.228,0,0,0-.544.384.777.777,0,0,0-.176.484.34.34,0,0,0,.112.259.4.4,0,0,0,.273.1c.12,0,.2-.021.23-.064a2.534,2.534,0,0,0,.181-.26.841.841,0,0,1,.31-.3,1.133,1.133,0,0,1,.536-.1.655.655,0,0,1,.544.172.933.933,0,0,1,.148.542c-.186.059-.363.1-.543.148l-.093.021c-.14.032-.315.073-.514.11-.246.05-.385.08-.438.093a1.206,1.206,0,0,0-.671.362.956.956,0,0,0-.245.655,1.006,1.006,0,0,0,.146.53,1.054,1.054,0,0,0,.418.385,1.377,1.377,0,0,0,.635.141,1.824,1.824,0,0,0,.71-.13,2.876,2.876,0,0,0,.657-.4Zm-4.875-2.558a.525.525,0,0,1,.514.248,1.572,1.572,0,0,1,.132.71v1.559a.6.6,0,0,0,.129.421.464.464,0,0,0,.672.006.624.624,0,0,0,.131-.427v-1.745a4.224,4.224,0,0,0-.026-.5,1.034,1.034,0,0,0-.122-.372,1.023,1.023,0,0,0-.434-.456,1.342,1.342,0,0,0-.666-.162,1.428,1.428,0,0,0-.671.152,1.689,1.689,0,0,0-.538.478v-.114a.626.626,0,0,0-.062-.282.4.4,0,0,0-.162-.173.374.374,0,0,0-.218-.061.405.405,0,0,0-.32.133.575.575,0,0,0-.116.4v2.708a.63.63,0,0,0,.127.421.425.425,0,0,0,.336.147.436.436,0,0,0,.34-.141.6.6,0,0,0,.129-.427v-1.173a2.953,2.953,0,0,1,.072-.783.845.845,0,0,1,.3-.412A.759.759,0,0,1,2360.582,2641.472Zm-3.175-2.113a.432.432,0,0,0-.338.144.657.657,0,0,0-.122.423v4.063a.637.637,0,0,0,.125.421.427.427,0,0,0,.335.147.445.445,0,0,0,.344-.141.623.623,0,0,0,.133-.427v-4.062a.6.6,0,0,0-.132-.423A.432.432,0,0,0,2357.407,2639.359Zm-2.267,4.671h0a2.033,2.033,0,0,0,.295.391.428.428,0,0,0,.29.134.448.448,0,0,0,.3-.117.341.341,0,0,0,.136-.264,1.981,1.981,0,0,0-.086-.367,1.913,1.913,0,0,1-.09-.551c0-.062,0-.123,0-.182v-.051c0-.1,0-.191,0-.279v-.559a2.014,2.014,0,0,0-.146-.836.913.913,0,0,0-.5-.463,2.674,2.674,0,0,0-.972-.143,2.556,2.556,0,0,0-.923.148,1.282,1.282,0,0,0-.548.384.789.789,0,0,0-.171.484.331.331,0,0,0,.115.259.4.4,0,0,0,.272.1.292.292,0,0,0,.228-.064,2.618,2.618,0,0,0,.182-.26.864.864,0,0,1,.309-.3,1.141,1.141,0,0,1,.537-.1.668.668,0,0,1,.549.172,1.022,1.022,0,0,1,.146.542c-.2.062-.38.107-.543.148l-.076.017-.012,0c-.151.035-.323.074-.518.111-.236.047-.383.079-.442.093a1.211,1.211,0,0,0-.671.362.965.965,0,0,0-.245.655.988.988,0,0,0,.149.53,1.014,1.014,0,0,0,.421.385,1.338,1.338,0,0,0,.633.141,1.82,1.82,0,0,0,.708-.13,2.933,2.933,0,0,0,.659-.4Zm-4.876-2.558a.524.524,0,0,1,.514.248,1.574,1.574,0,0,1,.13.71v1.559a.607.607,0,0,0,.128.421.469.469,0,0,0,.676.006.628.628,0,0,0,.128-.427v-1.745a3.8,3.8,0,0,0-.029-.5,1.031,1.031,0,0,0-.117-.372,1.049,1.049,0,0,0-.44-.456,1.327,1.327,0,0,0-.66-.162,1.444,1.444,0,0,0-.673.152,1.706,1.706,0,0,0-.54.478v-.114a.633.633,0,0,0-.06-.282.412.412,0,0,0-.158-.173.4.4,0,0,0-.221-.061.413.413,0,0,0-.322.133.589.589,0,0,0-.118.4v2.708a.623.623,0,0,0,.131.421.421.421,0,0,0,.335.147.443.443,0,0,0,.339-.141.591.591,0,0,0,.13-.427v-1.173a2.953,2.953,0,0,1,.072-.783.832.832,0,0,1,.3-.412A.767.767,0,0,1,2350.264,2641.472Zm-4.343-.722a2.052,2.052,0,0,0-.761.137,1.676,1.676,0,0,0-.593.384,1.7,1.7,0,0,0-.373.606,2.2,2.2,0,0,0-.131.777,2.235,2.235,0,0,0,.127.769,1.72,1.72,0,0,0,.969,1,2.039,2.039,0,0,0,.761.136,2.148,2.148,0,0,0,.777-.134,1.647,1.647,0,0,0,.585-.391,1.675,1.675,0,0,0,.379-.607,2.2,2.2,0,0,0,.129-.771,2.226,2.226,0,0,0-.128-.77,1.715,1.715,0,0,0-.378-.606,1.658,1.658,0,0,0-.588-.389A2.13,2.13,0,0,0,2345.921,2640.75Zm-3.074,0a.439.439,0,0,0-.335.141.6.6,0,0,0-.128.418v2.678a.625.625,0,0,0,.128.421.424.424,0,0,0,.335.147.453.453,0,0,0,.343-.141.619.619,0,0,0,.131-.427v-2.708a.551.551,0,0,0-.131-.389A.468.468,0,0,0,2342.847,2640.75Zm-6.443,3.28h0a2.011,2.011,0,0,0,.3.391.419.419,0,0,0,.285.134.445.445,0,0,0,.308-.117.343.343,0,0,0,.138-.264,1.981,1.981,0,0,0-.086-.367,1.752,1.752,0,0,1-.088-.551c0-.1,0-.19,0-.279v-.01c0-.077,0-.151,0-.222,0-.151,0-.34,0-.559a2.022,2.022,0,0,0-.147-.836.9.9,0,0,0-.5-.463,2.631,2.631,0,0,0-.969-.143,2.564,2.564,0,0,0-.925.148,1.254,1.254,0,0,0-.542.384.775.775,0,0,0-.176.484.348.348,0,0,0,.112.259.42.42,0,0,0,.277.1.29.29,0,0,0,.227-.064,2.149,2.149,0,0,0,.18-.26.89.89,0,0,1,.309-.3,1.156,1.156,0,0,1,.538-.1c.282,0,.461.056.545.172a.955.955,0,0,1,.152.542c-.205.063-.4.112-.548.148l-.031.007-.01,0c-.156.036-.35.081-.564.122s-.366.075-.446.093a1.186,1.186,0,0,0-.662.362,1.013,1.013,0,0,0-.1,1.185,1.024,1.024,0,0,0,.417.385,1.356,1.356,0,0,0,.636.141,1.831,1.831,0,0,0,.71-.13,3.05,3.05,0,0,0,.657-.4Zm-6.672-3,0,0,1.906,2.927c.036.047.07.1.1.143l.011.015.054.076a1.192,1.192,0,0,0,.178.2.638.638,0,0,0,.208.126.775.775,0,0,0,.246.037c.363,0,.547-.222.547-.66v-3.952a.654.654,0,0,0-.127-.44.438.438,0,0,0-.346-.146.407.407,0,0,0-.335.146.65.65,0,0,0-.129.44v2.986l-1.958-2.962c-.041-.069-.083-.133-.124-.2l-.007-.011-.029-.044a.86.86,0,0,0-.149-.193.556.556,0,0,0-.171-.124.575.575,0,0,0-.234-.043.6.6,0,0,0-.33.1.575.575,0,0,0-.213.254,1.023,1.023,0,0,0-.053.385v3.884a.664.664,0,0,0,.125.433.446.446,0,0,0,.349.147.433.433,0,0,0,.34-.147.617.617,0,0,0,.136-.433v-2.949Zm10.172-.282a2.022,2.022,0,0,0-1.006.239,1.616,1.616,0,0,0-.65.688,2.256,2.256,0,0,0-.218,1.016,1.879,1.879,0,0,0,.485,1.354,1.793,1.793,0,0,0,1.354.509,2.263,2.263,0,0,0,.738-.109,1.674,1.674,0,0,0,.537-.291,1.192,1.192,0,0,0,.317-.381.765.765,0,0,0,.109-.372.422.422,0,0,0-.114-.277.366.366,0,0,0-.284-.131.344.344,0,0,0-.245.088.922.922,0,0,0-.185.249,1.146,1.146,0,0,1-.355.4.887.887,0,0,1-.482.128.864.864,0,0,1-.384-.08.794.794,0,0,1-.3-.236,1.14,1.14,0,0,1-.186-.378,1.747,1.747,0,0,1-.064-.486,1.433,1.433,0,0,1,.25-.885.819.819,0,0,1,.671-.324.847.847,0,0,1,.475.13,1.4,1.4,0,0,1,.356.391.987.987,0,0,0,.177.194.293.293,0,0,0,.192.06.44.44,0,0,0,.306-.115.382.382,0,0,0,.121-.285.674.674,0,0,0-.109-.354,1.267,1.267,0,0,0-.325-.361,1.741,1.741,0,0,0-.513-.275A1.987,1.987,0,0,0,2339.9,2640.746Zm2.954-1.347a.488.488,0,0,0-.333.13.425.425,0,0,0-.14.328.437.437,0,0,0,.138.34.516.516,0,0,0,.663,0,.431.431,0,0,0,.135-.338.414.414,0,0,0-.141-.341A.5.5,0,0,0,2342.858,2639.4Zm-29.5-5.954a1.9,1.9,0,1,0,1.9,1.9A1.907,1.907,0,0,0,2313.362,2633.445Zm-8.955-12.582a.613.613,0,0,0-.482.2.9.9,0,0,0-.181.6v6.127a1.63,1.63,0,0,0,.133.708.55.55,0,0,0,.53.239c.458,0,.681-.306.681-.934v-2.134a3.083,3.083,0,0,0,.79.718,2.018,2.018,0,0,0,1.02.242,2.262,2.262,0,0,0,.947-.2,2.108,2.108,0,0,0,.759-.575,2.668,2.668,0,0,0,.511-.922,3.742,3.742,0,0,0,.181-1.2,3.389,3.389,0,0,0-.323-1.538,2.245,2.245,0,0,0-2.075-1.322,2.05,2.05,0,0,0-.977.231,2.79,2.79,0,0,0-.833.724v-.173a.816.816,0,0,0-.193-.594A.61.61,0,0,0,2304.407,2620.863Zm44.628,4.971h0a3.415,3.415,0,0,0,.451.6.639.639,0,0,0,.432.2.682.682,0,0,0,.468-.18.518.518,0,0,0,.2-.4,2.479,2.479,0,0,0-.136-.558,2.915,2.915,0,0,1-.13-.834l0-.154v-.04c0-.21.007-.408.007-.581,0-.156,0-.331,0-.516v-.07c0-.084,0-.172,0-.264a2.955,2.955,0,0,0-.223-1.269,1.355,1.355,0,0,0-.75-.7,3.949,3.949,0,0,0-1.477-.215,3.707,3.707,0,0,0-1.4.227,1.855,1.855,0,0,0-.827.582,1.186,1.186,0,0,0-.266.729.522.522,0,0,0,.177.394.606.606,0,0,0,.41.152.476.476,0,0,0,.349-.1,4.034,4.034,0,0,0,.277-.4,1.353,1.353,0,0,1,.469-.453,1.663,1.663,0,0,1,.809-.149,1.018,1.018,0,0,1,.834.264,1.472,1.472,0,0,1,.224.823l-.047.013-.012,0c-.273.077-.53.15-.774.2s-.521.122-.916.2l-.364.074c-.153.031-.253.052-.309.064a1.847,1.847,0,0,0-1.011.553,1.429,1.429,0,0,0-.374.993,1.556,1.556,0,0,0,.226.8,1.65,1.65,0,0,0,.639.589,2.058,2.058,0,0,0,.958.21,2.823,2.823,0,0,0,1.08-.2,4.454,4.454,0,0,0,1-.6Zm-9-4.971a.641.641,0,0,0-.339.093.679.679,0,0,0-.244.234.544.544,0,0,0-.087.285.843.843,0,0,0,.037.222c.022.08.047.161.08.257.025.053.044.1.062.155.011.031.022.061.035.092l1.35,3.345c.163.389.253.575.292.651a1.075,1.075,0,0,0,.266.3.788.788,0,0,0,.48.132.829.829,0,0,0,.4-.088.777.777,0,0,0,.277-.248,2.238,2.238,0,0,0,.2-.376c.039-.1.072-.187.1-.261l.014-.037.029-.076,1.363-3.378c.019-.043.036-.083.051-.122s.037-.091.056-.13a2.047,2.047,0,0,0,.074-.233.627.627,0,0,0,.035-.219.545.545,0,0,0-.194-.419.612.612,0,0,0-.458-.181.514.514,0,0,0-.426.17,2.017,2.017,0,0,0-.285.57l-1.237,3.366-1.152-3.225a2.842,2.842,0,0,0-.3-.682A.534.534,0,0,0,2340.04,2620.863Zm-2.694,4.971h0a3.44,3.44,0,0,0,.452.6.636.636,0,0,0,.431.2.683.683,0,0,0,.466-.18.524.524,0,0,0,.205-.4,2.446,2.446,0,0,0-.137-.558,2.905,2.905,0,0,1-.13-.834c.006-.32.01-.561.01-.775.005-.153,0-.321,0-.516,0-.1,0-.216,0-.334a2.963,2.963,0,0,0-.223-1.269,1.352,1.352,0,0,0-.756-.7,3.875,3.875,0,0,0-1.47-.215,3.7,3.7,0,0,0-1.4.227,1.867,1.867,0,0,0-.828.582,1.2,1.2,0,0,0-.267.729.517.517,0,0,0,.178.394.6.6,0,0,0,.41.152.48.48,0,0,0,.349-.1,4.346,4.346,0,0,0,.277-.4,1.354,1.354,0,0,1,.468-.453,1.671,1.671,0,0,1,.811-.149,1.007,1.007,0,0,1,.831.264,1.411,1.411,0,0,1,.223.823l-.04.012c-.264.075-.537.152-.79.209s-.553.128-.915.2l-.324.066-.042.009-.02,0c-.141.029-.234.048-.287.06a1.853,1.853,0,0,0-1.011.553,1.428,1.428,0,0,0-.373.993,1.55,1.55,0,0,0,.226.8,1.622,1.622,0,0,0,.639.589,2.071,2.071,0,0,0,.958.21,2.83,2.83,0,0,0,1.08-.2,4.427,4.427,0,0,0,.995-.6Zm-13.153-4.971c-.458,0-.691.321-.691.955v3.955a.934.934,0,0,0,.2.643.646.646,0,0,0,.5.217.673.673,0,0,0,.516-.217.919.919,0,0,0,.2-.643v-1.19c0-.417.013-.782.039-1.083a3.42,3.42,0,0,1,.154-.768,1.037,1.037,0,0,1,.308-.489.759.759,0,0,1,.509-.163,1.614,1.614,0,0,1,.529.1,1.949,1.949,0,0,0,.373.094.564.564,0,0,0,.394-.174.554.554,0,0,0,.175-.426.666.666,0,0,0-.421-.593,1.823,1.823,0,0,0-.869-.22,1.1,1.1,0,0,0-.716.22,2.494,2.494,0,0,0-.522.661,1.232,1.232,0,0,0-.17-.661A.581.581,0,0,0,2324.193,2620.863Zm-3.443,4.82v.14a.88.88,0,0,0,.193.6.619.619,0,0,0,.477.205.629.629,0,0,0,.484-.2.88.88,0,0,0,.187-.61v-6.262a.89.89,0,0,0-.176-.607.583.583,0,0,0-.5-.2.6.6,0,0,0-.5.223,1.079,1.079,0,0,0-.17.66v2.1a2.929,2.929,0,0,0-.823-.652,2.253,2.253,0,0,0-1.035-.2,2.131,2.131,0,0,0-1.708.742,3.045,3.045,0,0,0-.652,2.075,4.179,4.179,0,0,0,.165,1.169,3.1,3.1,0,0,0,.48.94,2.261,2.261,0,0,0,.756.623,2.107,2.107,0,0,0,.941.21,2.226,2.226,0,0,0,.71-.106,2.183,2.183,0,0,0,.6-.314,3.736,3.736,0,0,0,.561-.527Zm-7.84-4.82a3.136,3.136,0,0,0-1.158.2,2.492,2.492,0,0,0-.894.586,2.565,2.565,0,0,0-.567.916,3.324,3.324,0,0,0-.2,1.176,3.283,3.283,0,0,0,.2,1.17,2.7,2.7,0,0,0,.57.919,2.641,2.641,0,0,0,.891.593,3.169,3.169,0,0,0,1.158.205,3.211,3.211,0,0,0,1.173-.205,2.553,2.553,0,0,0,.892-.587,2.657,2.657,0,0,0,.575-.925,3.616,3.616,0,0,0,0-2.339,2.569,2.569,0,0,0-.569-.915,2.463,2.463,0,0,0-.9-.594A3.181,3.181,0,0,0,2312.91,2620.863Zm15.475.122a.7.7,0,0,0-.48.147.466.466,0,0,0-.167.391.391.391,0,0,0,.221.41,2.133,2.133,0,0,0,.661.077h2.114c-.073.1-.176.228-.275.348l-.073.089c-.071.08-.149.17-.235.27s-.194.225-.309.355c-.234.262-.467.518-.713.785q-.31.342-.679.755l-.036.04-.133.148c-.266.3-.474.537-.585.681a.613.613,0,0,0,.064.846.9.9,0,0,0,.6.179h3.848a.771.771,0,0,0,.516-.152.5.5,0,0,0,.168-.392.554.554,0,0,0-.174-.412.727.727,0,0,0-.51-.15h-2.784l2.6-2.91c.064-.067.121-.131.171-.188l.074-.082a1.9,1.9,0,0,0,.155-.19.8.8,0,0,0,.1-.2.735.735,0,0,0,.047-.239.5.5,0,0,0-.244-.48,1.408,1.408,0,0,0-.692-.13Zm.313-2.228a1.5,1.5,0,0,0-.186.005c-.022,0-.037.028-.037.069a.857.857,0,0,0,.149.25l.6.7c.072.078.13.145.176.2s.094.107.118.129a.455.455,0,0,0,.191.106,1.047,1.047,0,0,0,.365.046h.29a1.482,1.482,0,0,0,.3-.027.634.634,0,0,0,.208-.082.819.819,0,0,0,.157-.136c.022-.024.046-.055.074-.091l.011-.014.016-.02c.026-.033.055-.07.088-.109l.573-.692a.7.7,0,0,0,.163-.261c0-.051-.069-.075-.216-.075h-.415a.547.547,0,0,0-.3.059,1.909,1.909,0,0,0-.3.32l-.512.606-.521-.606a1.7,1.7,0,0,0-.284-.31.5.5,0,0,0-.3-.069Zm11.719-4.052h-.041a.533.533,0,0,0-.4.158.578.578,0,0,0-.149.409.567.567,0,0,0,.33.513,2.158,2.158,0,0,0,.978.179,1.438,1.438,0,0,0,1.5-.908,1.6,1.6,0,0,0,.1-.472,7.538,7.538,0,0,0,.031-.839v-4.814a.894.894,0,0,0-.2-.638.639.639,0,0,0-.5-.21.67.67,0,0,0-.522.214.919.919,0,0,0-.2.635v4.785a2.146,2.146,0,0,1-.1.8.372.372,0,0,1-.381.226c-.014,0-.039,0-.071-.005l-.119-.009c-.1-.012-.162-.016-.208-.019A.274.274,0,0,0,2340.418,2614.706Zm16.12-6.621a.658.658,0,0,0-.512.214.912.912,0,0,0-.191.635v4.059a.986.986,0,0,0,.2.644.7.7,0,0,0,1.02,0,.9.9,0,0,0,.2-.647v-4.1a.8.8,0,0,0-.2-.59A.659.659,0,0,0,2356.538,2608.085Zm-4.256,3.063h0l1.253,2.059a3.14,3.14,0,0,0,.38.51.539.539,0,0,0,.4.139.664.664,0,0,0,.491-.2.757.757,0,0,0,.181-.528.455.455,0,0,0-.075-.257,2.986,2.986,0,0,0-.229-.386l-1.452-2.285.752-.693c.384-.346.578-.626.578-.833a.559.559,0,0,0-.178-.426.591.591,0,0,0-.441-.168.623.623,0,0,0-.382.116,3.693,3.693,0,0,0-.452.425l-1.6,1.674v-3.442a.955.955,0,0,0-.193-.661.632.632,0,0,0-.519-.223.611.611,0,0,0-.521.248,1.244,1.244,0,0,0-.181.718v6.052a1,1,0,0,0,.185.647.651.651,0,0,0,.517.218.7.7,0,0,0,.5-.22.866.866,0,0,0,.211-.634v-1.126l.77-.728Zm-7.762.62a.584.584,0,0,0-.421.166.55.55,0,0,0-.168.4,1.243,1.243,0,0,0,.261.708,1.929,1.929,0,0,0,.809.583,3.359,3.359,0,0,0,1.311.23,3.792,3.792,0,0,0,1.362-.218,1.649,1.649,0,0,0,1.13-1.637,1.164,1.164,0,0,0-.221-.7,1.655,1.655,0,0,0-.634-.527,4.4,4.4,0,0,0-1.073-.383l-.238-.061c-.263-.067-.471-.12-.638-.169a1.672,1.672,0,0,1-.5-.238.449.449,0,0,1-.188-.368.485.485,0,0,1,.252-.407,1.111,1.111,0,0,1,.643-.162,1.2,1.2,0,0,1,.593.124,1.245,1.245,0,0,1,.378.332,2.6,2.6,0,0,0,.354.376.569.569,0,0,0,.367.124.653.653,0,0,0,.471-.157.505.505,0,0,0,.16-.4.828.828,0,0,0-.154-.455,1.455,1.455,0,0,0-.448-.426,2.255,2.255,0,0,0-.734-.306,3.784,3.784,0,0,0-.986-.116,2.772,2.772,0,0,0-1.2.232,1.684,1.684,0,0,0-.75.6,1.412,1.412,0,0,0-.256.8,1.229,1.229,0,0,0,.274.809,2.091,2.091,0,0,0,.74.533,8.437,8.437,0,0,0,1.194.373,3.424,3.424,0,0,1,.936.331.578.578,0,0,1,.28.546.539.539,0,0,1-.274.436,1.208,1.208,0,0,1-.7.188,1.61,1.61,0,0,1-.832-.188,1.557,1.557,0,0,1-.518-.567,1.078,1.078,0,0,0-.232-.306A.476.476,0,0,0,2344.519,2611.769Zm-5.359-3.684a.645.645,0,0,0-.508.214.9.9,0,0,0-.195.635v4.059a.969.969,0,0,0,.2.644.651.651,0,0,0,.5.22.687.687,0,0,0,.518-.218.941.941,0,0,0,.2-.647v-4.1a.822.822,0,0,0-.2-.59A.675.675,0,0,0,2339.16,2608.085Zm-10.823,1.1a.806.806,0,0,1,.782.375,2.278,2.278,0,0,1,.192,1.074v2.363a.98.98,0,0,0,.194.644.683.683,0,0,0,.516.22.646.646,0,0,0,.508-.218.892.892,0,0,0,.2-.647v-2.637a5.853,5.853,0,0,0-.04-.769,1.6,1.6,0,0,0-.185-.566,1.531,1.531,0,0,0-.661-.69,1.955,1.955,0,0,0-1-.245,2.147,2.147,0,0,0-1.023.234,2.424,2.424,0,0,0-.82.724v-.172a.9.9,0,0,0-.094-.434.661.661,0,0,0-1.06-.149.894.894,0,0,0-.177.6v4.1a.967.967,0,0,0,.2.644.666.666,0,0,0,.506.22.686.686,0,0,0,.519-.218.929.929,0,0,0,.2-.647v-1.775a4.6,4.6,0,0,1,.1-1.187,1.289,1.289,0,0,1,.458-.623A1.118,1.118,0,0,1,2328.338,2609.182Zm-5.371,3.875h0a3.3,3.3,0,0,0,.458.6.632.632,0,0,0,.431.2.675.675,0,0,0,.466-.181.513.513,0,0,0,.2-.394,2.338,2.338,0,0,0-.136-.563,2.874,2.874,0,0,1-.13-.833l0-.16c0-.218.007-.428.007-.614,0-.153,0-.328,0-.514v-.07c0-.084,0-.172,0-.264a2.923,2.923,0,0,0-.223-1.267,1.323,1.323,0,0,0-.754-.7,3.817,3.817,0,0,0-1.471-.22,3.615,3.615,0,0,0-1.4.232,1.828,1.828,0,0,0-.825.58,1.194,1.194,0,0,0-.265.729.511.511,0,0,0,.178.394.586.586,0,0,0,.409.152.474.474,0,0,0,.349-.1c.058-.07.144-.2.273-.394a1.316,1.316,0,0,1,.472-.456,1.686,1.686,0,0,1,.809-.152,1.022,1.022,0,0,1,.833.267,1.476,1.476,0,0,1,.223.822l-.075.021c-.266.076-.517.147-.756.2s-.539.12-.916.2l-.088.018c-.288.059-.5.1-.582.123a1.859,1.859,0,0,0-1.017.551,1.451,1.451,0,0,0-.368,1,1.545,1.545,0,0,0,.224.8,1.626,1.626,0,0,0,.639.589,2.075,2.075,0,0,0,.958.212,2.836,2.836,0,0,0,1.083-.2,4.272,4.272,0,0,0,.989-.6Zm-7.384-3.875a.8.8,0,0,1,.781.375,2.266,2.266,0,0,1,.193,1.074v2.363a.975.975,0,0,0,.2.644.693.693,0,0,0,.517.22.661.661,0,0,0,.509-.218.922.922,0,0,0,.194-.647v-2.637a4.927,4.927,0,0,0-.043-.769,1.587,1.587,0,0,0-.181-.566,1.569,1.569,0,0,0-.662-.69,1.963,1.963,0,0,0-1-.245,2.17,2.17,0,0,0-1.024.234,2.425,2.425,0,0,0-.814.724v-.172a.933.933,0,0,0-.1-.434.6.6,0,0,0-.239-.264.609.609,0,0,0-.338-.088.616.616,0,0,0-.484.2.9.9,0,0,0-.175.6v4.1a.953.953,0,0,0,.2.644.669.669,0,0,0,.5.22.682.682,0,0,0,.522-.218.918.918,0,0,0,.2-.647v-1.775a4.454,4.454,0,0,1,.1-1.187,1.307,1.307,0,0,1,.457-.623A1.115,1.115,0,0,1,2315.582,2609.182Zm-4.815-1.1a.654.654,0,0,0-.509.214.9.9,0,0,0-.191.635v4.059a.983.983,0,0,0,.194.644.663.663,0,0,0,.506.22.675.675,0,0,0,.517-.218.924.924,0,0,0,.2-.647v-4.1a.807.807,0,0,0-.2-.59A.655.655,0,0,0,2310.767,2608.085Zm-5.971-1.979a1.255,1.255,0,0,0-.546.1.592.592,0,0,0-.3.308,1.3,1.3,0,0,0-.1.54v5.866a1.032,1.032,0,0,0,.215.711.787.787,0,0,0,1.113,0,1,1,0,0,0,.216-.711V2610.4h2.542a.72.72,0,0,0,.524-.156.506.506,0,0,0,.179-.42.527.527,0,0,0-.179-.423.722.722,0,0,0-.524-.156h-2.542v-1.951h3.042a.826.826,0,0,0,.554-.165.562.562,0,0,0,.175-.433.551.551,0,0,0-.181-.431.773.773,0,0,0-.548-.16Zm29.908,1.969a2.964,2.964,0,0,0-1.528.367,2.42,2.42,0,0,0-.976,1.038,3.4,3.4,0,0,0-.339,1.543,2.893,2.893,0,0,0,.735,2.06,2.75,2.75,0,0,0,2.055.764,3.528,3.528,0,0,0,1.115-.167,2.565,2.565,0,0,0,.823-.44,1.974,1.974,0,0,0,.481-.572,1.151,1.151,0,0,0,.158-.567.619.619,0,0,0-.174-.423.576.576,0,0,0-.8-.061,1.385,1.385,0,0,0-.282.375,1.684,1.684,0,0,1-.543.6,1.274,1.274,0,0,1-.726.2,1.376,1.376,0,0,1-.583-.125,1.294,1.294,0,0,1-.453-.359,1.775,1.775,0,0,1-.287-.572,2.81,2.81,0,0,1-.1-.734,2.165,2.165,0,0,1,.385-1.347,1.345,1.345,0,0,1,1.738-.291,2.042,2.042,0,0,1,.54.592,1.746,1.746,0,0,0,.264.3.47.47,0,0,0,.292.089.665.665,0,0,0,.464-.177.553.553,0,0,0,.186-.433,1.043,1.043,0,0,0-.17-.54,1.876,1.876,0,0,0-.487-.54,2.529,2.529,0,0,0-.78-.416A3,3,0,0,0,2334.7,2608.075Zm21.849-2.039a.72.72,0,0,0-.505.2.623.623,0,0,0-.213.49.661.661,0,0,0,.213.518.753.753,0,0,0,.505.179.687.687,0,0,0,.493-.186.627.627,0,0,0,.207-.51.609.609,0,0,0-.212-.514A.711.711,0,0,0,2356.553,2606.036Zm-14.48,0a.73.73,0,0,0-.506.2.623.623,0,0,0-.213.49.656.656,0,0,0,.213.518.754.754,0,0,0,.506.179.685.685,0,0,0,.492-.186.633.633,0,0,0,.211-.51.614.614,0,0,0-.216-.514A.709.709,0,0,0,2342.073,2606.036Zm-2.9,0a.72.72,0,0,0-.506.2.622.622,0,0,0-.213.49.654.654,0,0,0,.213.518.753.753,0,0,0,.506.179.693.693,0,0,0,.494-.186.637.637,0,0,0,.208-.51.62.62,0,0,0-.212-.514A.721.721,0,0,0,2339.177,2606.036Zm-28.391,0a.707.707,0,0,0-.5.2.613.613,0,0,0-.213.49.66.66,0,0,0,.213.518.748.748,0,0,0,.5.179.685.685,0,0,0,.492-.186.631.631,0,0,0,.21-.51.612.612,0,0,0-.215-.514A.719.719,0,0,0,2310.786,2606.036Zm40.776,72.675a.594.594,0,0,1-.423-.148.472.472,0,0,1-.159-.362.39.39,0,0,1,.138-.322.836.836,0,0,1,.286-.157c.153-.032.341-.073.544-.12a4.587,4.587,0,0,0,.6-.157v.131a1.468,1.468,0,0,1-.128.7.864.864,0,0,1-.347.315A1.106,1.106,0,0,1,2351.562,2678.711Zm-21.247-.109a.821.821,0,0,1-.447-.131.938.938,0,0,1-.325-.409,1.529,1.529,0,0,1-.122-.647,1.642,1.642,0,0,1,.117-.634.91.91,0,0,1,.31-.414.785.785,0,0,1,.465-.147.814.814,0,0,1,.449.14.945.945,0,0,1,.33.411,1.493,1.493,0,0,1,.123.643,1.553,1.553,0,0,1-.123.665.844.844,0,0,1-.325.392A.83.83,0,0,1,2330.315,2678.6Zm26.1-8.582a.6.6,0,0,1-.423-.149.476.476,0,0,1-.16-.363.406.406,0,0,1,.137-.321.773.773,0,0,1,.286-.154c.07-.019.176-.042.328-.075l.218-.048a4.484,4.484,0,0,0,.6-.159v.138a1.41,1.41,0,0,1-.128.695.823.823,0,0,1-.345.311A1.043,1.043,0,0,1,2356.412,2670.02Zm-8.141-.083a.855.855,0,0,1-.49-.144.911.911,0,0,1-.319-.423,1.736,1.736,0,0,1-.113-.639,1.779,1.779,0,0,1,.113-.649.893.893,0,0,1,.322-.42.848.848,0,0,1,.487-.14.825.825,0,0,1,.679.319,1.4,1.4,0,0,1,.25.891,1.424,1.424,0,0,1-.25.887A.82.82,0,0,1,2348.271,2669.937Zm4.226-.085a.8.8,0,0,1-.641-.292,1.3,1.3,0,0,1-.248-.862,1.353,1.353,0,0,1,.243-.864.773.773,0,0,1,.642-.306.817.817,0,0,1,.665.319,1.392,1.392,0,0,1,.25.891,1.291,1.291,0,0,1-.131.612.867.867,0,0,1-.341.376A.778.778,0,0,1,2352.5,2669.852Zm-19.576-8.524a.583.583,0,0,1-.421-.149.477.477,0,0,1-.163-.359.4.4,0,0,1,.139-.322.731.731,0,0,1,.287-.157c.1-.024.284-.066.545-.123a5.077,5.077,0,0,0,.6-.156v.131a1.486,1.486,0,0,1-.128.7.846.846,0,0,1-.347.312A1.091,1.091,0,0,1,2332.921,2661.328Zm11.864-.082a.814.814,0,0,1-.488-.147.923.923,0,0,1-.319-.418,1.7,1.7,0,0,1-.112-.641,1.727,1.727,0,0,1,.112-.649.911.911,0,0,1,.325-.423.882.882,0,0,1,1.16.177,1.694,1.694,0,0,1,0,1.781A.83.83,0,0,1,2344.784,2661.246Zm16.977-8.61a.589.589,0,0,1-.423-.149.482.482,0,0,1-.159-.362.4.4,0,0,1,.138-.32.672.672,0,0,1,.287-.152c.061-.017.236-.062.542-.125a5.418,5.418,0,0,0,.6-.157v.131a1.456,1.456,0,0,1-.125.7.819.819,0,0,1-.345.313A1.1,1.1,0,0,1,2361.761,2652.636Zm-9.589,0a.58.58,0,0,1-.421-.149.461.461,0,0,1-.162-.362.392.392,0,0,1,.139-.32.663.663,0,0,1,.284-.152c.112-.029.29-.073.546-.125a5.424,5.424,0,0,0,.6-.157v.131a1.383,1.383,0,0,1-.131.7.786.786,0,0,1-.344.313A1.064,1.064,0,0,1,2352.173,2652.636Zm-8.562,0a.571.571,0,0,1-.421-.149.462.462,0,0,1-.164-.362.394.394,0,0,1,.138-.32.659.659,0,0,1,.288-.152c.081-.022.258-.067.542-.125a5.251,5.251,0,0,0,.6-.157v.131a1.351,1.351,0,0,1-.13.7.792.792,0,0,1-.341.313A1.066,1.066,0,0,1,2343.611,2652.636Zm-9.932,0a.585.585,0,0,1-.42-.149.477.477,0,0,1-.159-.362.391.391,0,0,1,.136-.32.688.688,0,0,1,.29-.152c.08-.022.256-.068.543-.125a5.307,5.307,0,0,0,.6-.157v.131a1.444,1.444,0,0,1-.126.7.815.815,0,0,1-.345.313A1.093,1.093,0,0,1,2333.678,2652.636Zm14.4-.111a.808.808,0,0,1-.45-.131.917.917,0,0,1-.322-.405,1.81,1.81,0,0,1,0-1.282.878.878,0,0,1,.31-.418.8.8,0,0,1,.916,0,.983.983,0,0,1,.327.411,1.578,1.578,0,0,1,.123.641,1.626,1.626,0,0,1-.123.665.906.906,0,0,1-.327.4A.824.824,0,0,1,2348.077,2652.525Zm16.335-8.583a.576.576,0,0,1-.421-.149.458.458,0,0,1-.162-.358.4.4,0,0,1,.136-.323.734.734,0,0,1,.291-.151c.1-.029.275-.069.543-.128a3.833,3.833,0,0,0,.6-.159v.138a1.463,1.463,0,0,1-.122.7.821.821,0,0,1-.346.314A1.072,1.072,0,0,1,2364.412,2643.942Zm-10.318,0a.576.576,0,0,1-.423-.149.456.456,0,0,1-.157-.358.4.4,0,0,1,.133-.323.734.734,0,0,1,.29-.151c.1-.029.287-.071.508-.12l.033-.008a3.694,3.694,0,0,0,.6-.159v.138a1.417,1.417,0,0,1-.128.7.785.785,0,0,1-.34.314A1.077,1.077,0,0,1,2354.094,2643.942Zm-18.738,0a.567.567,0,0,1-.418-.149.457.457,0,0,1-.165-.358.409.409,0,0,1,.135-.323.755.755,0,0,1,.292-.151c.1-.029.293-.072.538-.127h.006a3.946,3.946,0,0,0,.6-.159v.138a1.4,1.4,0,0,1-.131.7.791.791,0,0,1-.34.314A1.094,1.094,0,0,1,2335.356,2643.942Zm10.565-.08a.827.827,0,0,1-.488-.143.918.918,0,0,1-.317-.423,1.933,1.933,0,0,1,0-1.289.928.928,0,0,1,.323-.42.852.852,0,0,1,.481-.144.813.813,0,0,1,.679.32,1.711,1.711,0,0,1,0,1.781A.814.814,0,0,1,2345.921,2643.862Zm1.527-18.157a.922.922,0,0,1-.641-.232.718.718,0,0,1-.246-.543.621.621,0,0,1,.208-.489,1.122,1.122,0,0,1,.436-.235c.158-.042.435-.1.832-.186a8.748,8.748,0,0,0,.9-.24v.2a2.153,2.153,0,0,1-.194,1.062,1.221,1.221,0,0,1-.526.479A1.59,1.59,0,0,1,2347.448,2625.7Zm-11.688,0a.926.926,0,0,1-.642-.232.724.724,0,0,1-.245-.543.621.621,0,0,1,.207-.489,1.133,1.133,0,0,1,.438-.235c.154-.042.42-.1.828-.186a8.492,8.492,0,0,0,.9-.24v.2a2.165,2.165,0,0,1-.191,1.062,1.213,1.213,0,0,1-.525.479A1.6,1.6,0,0,1,2335.76,2625.7Zm-22.85-.126a1.262,1.262,0,0,1-.741-.227,1.4,1.4,0,0,1-.484-.63,2.568,2.568,0,0,1-.167-.977,2.642,2.642,0,0,1,.17-.98,1.379,1.379,0,0,1,.493-.638,1.336,1.336,0,0,1,1.759.269,2.061,2.061,0,0,1,.383,1.349,2.106,2.106,0,0,1-.386,1.349A1.232,1.232,0,0,1,2312.91,2625.578Zm6.4-.042a1.235,1.235,0,0,1-.681-.207,1.437,1.437,0,0,1-.5-.607,2.426,2.426,0,0,1-.175-.987,2.506,2.506,0,0,1,.171-.961,1.377,1.377,0,0,1,.471-.631,1.136,1.136,0,0,1,.7-.22,1.186,1.186,0,0,1,.7.22,1.44,1.44,0,0,1,.5.623,2.286,2.286,0,0,1,.181.969,2.413,2.413,0,0,1-.187,1.011,1.363,1.363,0,0,1-.491.6A1.292,1.292,0,0,1,2319.31,2625.536Zm-12.761,0a1.246,1.246,0,0,1-.99-.473,2.426,2.426,0,0,1,0-2.677,1.248,1.248,0,0,1,.987-.464,1.1,1.1,0,0,1,.676.22,1.357,1.357,0,0,1,.474.616,2.444,2.444,0,0,1,.17.963,2.384,2.384,0,0,1-.182,1,1.4,1.4,0,0,1-.481.616A1.145,1.145,0,0,1,2306.549,2625.536Zm14.835-12.609a.938.938,0,0,1-.642-.226.736.736,0,0,1-.242-.549.6.6,0,0,1,.207-.486,1.088,1.088,0,0,1,.437-.235c.149-.041.42-.1.828-.187a7.958,7.958,0,0,0,.9-.241v.2a2.125,2.125,0,0,1-.194,1.062,1.168,1.168,0,0,1-.524.474A1.592,1.592,0,0,1,2321.384,2612.927Z" transform="translate(-2037 -2217)" fill="#aeb0b3" stroke="rgba(0,0,0,0)" stroke-miterlimit="10" stroke-width="1"/></g></svg>